<svg width="802" height="780" viewBox="0 0 802 780" fill="none" xmlns="http://www.w3.org/2000/svg">
<path fill-rule="evenodd" clip-rule="evenodd" d="M458.529 687.972C638.375 687.972 663.869 607.962 691.139 593.259C718.408 578.557 701.454 549.05 719.339 526.796C747.906 491.247 765.22 509.568 774.675 463.451C784.13 417.336 766.941 404.289 766.941 363.117C766.941 280.627 806.457 241.579 755.994 198.418C705.531 155.258 621.261 160.35 537.916 160.35C383.22 160.35 290.544 -51.7145 84.2153 11.9067C13.1108 33.8333 20.9693 63.7114 36.5932 169.305C43.3779 215.157 -7.84854 273.456 1.0394 325.564C17.2723 420.732 60.1441 407.822 141.033 472.077C154.603 482.858 174.396 482.745 189.19 493.802C213.994 512.338 215.588 541.159 261.957 560.599C336.725 591.945 330.382 687.972 458.529 687.972Z" fill="#9BB7D9"/>
<path d="M114.715 485.07C139.827 485.07 160.184 465.927 160.184 442.313C160.184 418.699 139.827 399.555 114.715 399.555C89.6024 399.555 69.245 418.699 69.245 442.313C69.245 465.927 89.6024 485.07 114.715 485.07Z" fill="white"/>
<path fill-rule="evenodd" clip-rule="evenodd" d="M96.8822 289.864C89.1311 270.505 95.9028 258.907 100.243 243.766C103.868 231.119 132.22 210.574 145.268 231.996C149.106 238.298 147.566 244.255 155.956 249.793C176.265 263.202 165.186 235.385 165.941 228.353C166.31 224.923 163.411 217.012 164.49 213.702C165.623 210.228 171.657 205.294 171.657 198.093C171.657 190.894 159.383 188.12 155.956 186.351C125.507 170.631 106.143 144.372 115.793 131.047C129.239 112.479 181.931 141.692 197.764 144.372C197.969 144.407 200.796 129.646 203.106 126.266C207.727 119.503 212.834 112.939 218.927 107.464C221.655 105.013 225.354 103.499 228.991 103.008C239.871 101.54 251.003 100.336 261.902 101.665C265.753 102.136 288.688 75.5914 297.631 67.0292C366.244 1.33635 503.785 81.3904 428.813 190.171C415.033 210.164 397.412 216.521 395.136 223.588C390.081 239.284 421.903 237.22 435.382 238.897C458.41 241.762 469.761 253.591 455.465 273.866C446.56 286.497 394.315 285.853 371.431 276.719C362.937 273.329 352.44 258.505 344.412 270.666C338.88 279.043 317.313 296.817 294.179 306.872C283.736 311.411 271.842 308.676 262.931 312.728C250.388 318.434 213.359 342.387 197.764 342.381C182.058 342.375 161.733 323.474 159.383 322.234C155.798 320.345 128.074 314.928 114.377 293.792C110.236 287.401 99.7202 296.951 96.8822 289.864Z" fill="white"/>
<path d="M363.558 182.388C366.218 182.388 368.375 180.262 368.375 177.64C368.375 175.018 366.218 172.892 363.558 172.892C360.898 172.892 358.741 175.018 358.741 177.64C358.741 180.262 360.898 182.388 363.558 182.388Z" fill="#FFB61D"/>
<path d="M328.292 172.406C330.875 172.406 332.969 170.313 332.969 167.73C332.969 165.147 330.875 163.053 328.292 163.053C325.71 163.053 323.616 165.147 323.616 167.73C323.616 170.313 325.71 172.406 328.292 172.406Z" fill="#FFB61D"/>
<path d="M669.016 227.189C704.069 227.189 732.484 198.774 732.484 163.721C732.484 128.669 704.069 100.253 669.016 100.253C633.964 100.253 605.548 128.669 605.548 163.721C605.548 198.774 633.964 227.189 669.016 227.189Z" fill="white"/>
<path d="M470.561 681.41C572.416 681.41 654.986 610.837 654.986 523.781C654.986 436.724 572.416 366.151 470.561 366.151C368.706 366.151 286.136 436.724 286.136 523.781C286.136 610.837 368.706 681.41 470.561 681.41Z" fill="white"/>
<path fill-rule="evenodd" clip-rule="evenodd" d="M314.212 609.729L316.282 611.228C311.609 615.419 304.582 610.207 300.642 605.322C294.306 597.465 287.876 589.117 285.948 579.21C284.851 573.573 285.289 567.765 285.733 562.039L287.52 538.953C288.311 528.722 289.106 518.473 290.877 508.367C295.67 481.014 307.735 454.968 325.5 433.624L325.677 433.41C328.815 429.642 332.241 425.528 332.181 420.643C332.052 410.309 338.004 400.651 345.819 393.886C353.633 387.121 363.201 382.78 372.623 378.531C376.89 376.605 382.463 374.88 385.772 378.194C392.576 385.01 403.93 380.669 412.917 377.207C423.952 372.956 435.738 370.666 447.56 370.475C447.904 370.47 448.251 370.466 448.6 370.46C455.699 370.359 463.688 370.245 468.018 364.746C470.776 361.243 476.049 361.447 480.474 361.976L510.911 365.617C513.237 365.895 516.024 366.529 516.758 368.754C518.724 374.72 525.66 377.153 531.672 378.966C553.051 385.412 573.947 394.164 592.097 407.17C610.246 420.177 625.585 437.674 633.725 458.466C620.492 440.377 606.915 421.948 588.548 409.102C583.293 405.427 577.702 402.252 572.027 399.262C558.635 392.201 544.697 386.116 530.217 381.696C463 361.179 385.245 380.208 335.099 429.447C327.829 436.586 321.012 444.449 316.887 453.768L322.334 455.458C313.701 459.317 307.288 467.771 305.901 477.126C309.375 471.176 314.327 466.094 320.187 462.468C318.51 468.07 314.148 472.573 309.872 476.987C304.422 482.611 299.112 488.09 299.674 495.523C302.262 488.733 308.78 483.606 315.99 482.693C304.555 493.865 292.284 506.978 292.649 522.962C296.82 513.731 303.902 505.844 312.631 500.708L300.064 517.594C295.313 523.981 290.308 531.278 291.394 539.164C295.528 531.744 301.439 525.323 308.492 520.59C305.096 528.313 300.247 535.395 294.275 541.354C299.953 540.668 305.422 538.316 309.826 534.664C307.98 537.241 306.316 540.149 306.255 543.319C306.192 546.489 308.246 549.889 311.383 550.346C312.333 548.222 315.311 547.325 317.276 548.572C311.322 554.364 311.26 565.098 317.147 570.958C317.671 568.204 319.995 565.882 322.749 565.361C318.358 573.039 317.568 582.68 320.652 590.97C321.585 586.273 324.192 581.927 327.894 578.891C325.759 590.032 321.04 600.669 314.212 609.729ZM311.61 606.18C315.328 606.141 317.64 601.983 318.028 598.286C318.492 593.862 317.393 589.44 316.303 585.128L309.836 559.551C308.619 559.936 308.477 561.26 308.33 562.647C308.203 563.831 308.072 565.06 307.262 565.791C305.626 563.755 305.44 560.674 306.82 558.456C308.214 556.216 307.301 553.082 305.325 551.337C303.347 549.591 300.598 548.998 297.961 548.911C296.537 548.865 295.022 548.974 293.857 549.795C292.69 550.615 292.077 552.359 292.905 553.518C295.37 556.971 297.224 560.859 298.357 564.948C298.441 565.254 298.522 565.563 298.605 565.874C299.168 567.997 299.748 570.179 301.3 571.693C302.5 572.862 302.806 574.647 303.051 576.306L305.027 589.746C305.386 592.193 305.746 594.687 305.334 597.126C304.923 599.563 303.605 601.98 301.394 603.088L308.456 605.489C309.479 605.838 310.528 606.19 311.61 606.18ZM388.579 385.888C387.188 386.182 386.022 384.959 385.025 383.916L384.911 383.795C383.889 382.728 382.135 381.798 381.059 382.809C368.526 394.601 354.264 404.55 338.871 412.241C336.077 413.636 335.701 417.4 335.7 420.524C335.699 421.566 336.698 423.031 337.349 422.216C340.522 418.239 344.65 415.151 348.729 412.11C360.208 403.552 371.824 394.915 384.982 389.272C386.579 388.587 388.448 387.619 388.579 385.888ZM514.545 372.626C513.834 370.96 511.815 370.359 510.034 370.023C505.184 369.109 500.247 368.695 495.314 368.282C488.539 367.713 481.774 367.147 475.255 365.287C473.167 364.691 471.382 366.806 470.237 368.653C473.672 368.294 477.128 368.146 480.582 368.21C486.593 368.321 492.572 369.069 498.537 369.818C501.568 370.197 504.62 370.582 507.528 371.523C507.866 371.632 508.206 371.748 508.55 371.866C510.535 372.547 512.586 373.253 514.545 372.626ZM450.38 398.246C451.753 398.56 453.061 399.586 453.267 400.98C453.472 402.371 452.522 403.726 451.307 404.434C450.094 405.142 448.659 405.341 447.265 405.525L443.071 406.08C442.65 406.136 442.217 406.196 441.852 406.413C440.798 407.037 440.87 408.728 441.732 409.599C442.595 410.469 443.917 410.686 445.142 410.683C450.847 410.672 456.249 406.566 457.992 401.133C458.406 399.844 458.625 398.409 458.112 397.154C457.852 396.518 457.417 395.967 456.935 395.477C454.69 393.203 451.347 392.201 448.16 392.426C444.974 392.651 441.942 394.009 439.348 395.874C438.106 396.77 436.922 397.816 436.215 399.175C435.509 400.534 435.357 402.26 436.148 403.571C436.449 404.072 436.915 404.514 437.491 404.609C438.067 404.702 438.732 404.331 438.804 403.751C439.004 402.14 440.179 400.778 441.581 399.959C442.983 399.14 444.598 398.78 446.191 398.461C447.572 398.185 449.006 397.932 450.38 398.246ZM337.936 477.946C339.503 468.673 346.993 461.134 355.725 457.64C360.537 455.715 366.043 454.872 370.883 456.726C372.077 457.183 373.233 457.815 374.094 458.761C374.902 459.651 375.411 460.772 375.795 461.911C378.253 469.203 375.759 477.636 370.477 483.232C365.195 488.829 357.504 491.765 349.829 492.315C347.369 492.492 344.729 492.393 342.698 490.995C340.667 489.597 339.659 486.492 341.223 484.587C341.961 484.621 342.361 485.282 342.768 485.956C342.97 486.292 343.175 486.63 343.425 486.898C344.277 487.816 345.687 487.882 346.937 487.83C352.381 487.6 357.906 486.252 362.335 483.081C366.765 479.911 369.949 474.734 369.855 469.286C369.825 467.532 369.444 465.736 368.45 464.29C366.817 461.916 363.732 460.844 360.856 461.034C357.982 461.224 355.287 462.498 352.839 464.018C349.618 466.017 346.641 468.53 344.622 471.738C342.603 474.948 341.615 478.913 342.469 482.608C341.714 483.968 339.472 483.697 338.545 482.446C337.618 481.196 337.676 479.481 337.936 477.946ZM388.059 554.376C384.078 556.939 380.776 560.949 380.161 565.643C379.664 569.442 380.938 573.224 382.192 576.844C383.172 579.67 384.183 582.555 386.048 584.892C389.417 589.113 394.994 590.859 400.325 591.716C401.778 591.949 403.98 591.293 403.463 589.917C397.833 589.814 392.298 587.205 388.634 582.93C384.971 578.656 383.241 572.785 384.001 567.206C384.16 566.033 384.429 564.865 384.921 563.788C385.919 561.609 387.777 559.933 389.79 558.633C394.122 555.834 399.395 554.523 404.534 554.967C409.487 555.394 414.437 557.566 417.462 561.513C420.486 565.46 421.207 571.283 418.537 575.48C418.104 576.161 417.788 577.368 418.583 577.509C422.879 575.195 425.264 570.091 425.023 565.217C424.783 560.342 422.208 555.781 418.672 552.417C416.716 550.558 414.399 548.986 411.775 548.354C408.316 547.52 404.696 548.381 401.255 549.286C396.675 550.491 392.041 551.815 388.059 554.376ZM583.62 560.431C569.22 555.055 553.574 553.051 538.285 554.625C531.874 555.285 525.442 556.593 519.679 559.478C508.804 564.92 501.029 576.124 499.735 588.216C498.442 600.307 503.67 612.903 513.148 620.523C516.742 623.412 520.821 625.576 524.906 627.743C527.695 629.222 530.486 630.702 533.126 632.415C533.881 633.137 532.183 633.856 531.19 633.535C521.954 630.554 512.986 626.02 506.399 618.893C498.384 610.224 494.475 597.913 496.021 586.208C497.567 574.503 504.537 563.629 514.528 557.337C522.43 552.361 531.878 550.265 541.21 549.928C550.543 549.591 559.848 550.925 569.076 552.355C574.84 553.247 581.598 554.96 583.62 560.431ZM432.11 578.473C431.457 576.975 428.829 576.583 428.348 578.147C425.293 588.087 415.594 595.602 405.206 596.078C402.859 596.186 400.508 595.967 398.169 595.742C393.13 595.254 387.934 594.678 383.522 592.197C377.176 588.629 373.357 581.304 373.313 574.025C373.268 566.745 376.721 559.672 381.964 554.621C381.235 552.583 378.112 553.568 376.56 555.075C367.961 563.433 366.486 577.859 372.52 588.221C378.552 598.585 391.197 604.393 403.115 603.076C415.034 601.758 425.794 593.779 431.335 583.144C432.09 581.694 432.765 579.971 432.11 578.473ZM357.474 628.806C355.533 636.252 355.349 644.15 356.94 651.678C357.655 655.054 357.732 656.914 357.747 657.263C357.748 657.303 357.75 657.323 357.751 657.323C357.751 657.323 357.752 657.303 357.754 657.263C357.77 656.914 357.854 655.046 358.585 651.664C360.213 644.123 359.826 636.155 357.474 628.806ZM367.79 633.309C365.03 639.091 365.372 646.245 368.67 651.738C369.41 652.971 369.973 653.975 370.387 654.715C370.944 655.71 371.236 656.229 371.337 656.194C371.447 656.156 371.329 655.459 371.085 654C370.987 653.415 370.868 652.706 370.735 651.869L367.79 633.309ZM375.555 640.693C374.385 644.383 375.247 648.653 377.757 651.6C380.32 654.612 381.158 655.577 380.376 651.7C379.58 647.744 377.923 643.961 375.555 640.693ZM600.309 598.704C596.788 612.842 585.539 623.554 574.632 633.213C575.13 634.287 576.741 633.903 577.773 633.321C588.822 627.104 597.761 616.969 601.84 604.966C605.918 592.964 604.904 579.172 598.466 568.251C597.925 567.334 597.237 566.359 596.192 566.155C595.148 565.95 593.945 567.161 594.559 568.031C600.747 576.795 602.902 588.292 600.309 598.704ZM441.474 471.053C441.447 468.816 441.478 466.395 442.829 464.612C444.689 462.158 448.216 461.9 451.296 461.857C452.67 461.837 454.061 461.82 455.398 462.138C458.246 462.815 460.513 464.917 462.533 467.033C462.981 467.502 463.458 468.08 463.347 468.718C463.21 469.511 462.218 469.874 461.43 469.712C460.906 469.604 460.437 469.344 459.967 469.083H459.965C459.729 468.952 459.491 468.82 459.246 468.708C456.415 467.409 453.088 468.833 450.545 470.632C450.146 470.915 449.714 471.278 449.704 471.768C449.694 472.259 450.115 472.64 450.512 472.931C453.949 475.449 458.349 476.614 462.58 476.129C463.593 476.013 464.781 475.641 465.044 474.656C465.146 474.273 465.107 473.82 465.068 473.383C465.004 472.652 464.943 471.964 465.557 471.71C465.878 471.578 466.241 471.673 466.573 471.77C468.864 472.436 471.542 473.507 471.986 475.851C472.114 476.528 472.023 477.234 471.807 477.889C471.176 479.805 469.417 481.301 467.425 481.618C466.541 481.758 465.639 481.682 464.746 481.606C462.415 481.405 460.082 481.205 457.771 480.832C453.529 480.149 449.382 478.885 445.48 477.088C444.126 476.464 442.719 475.696 442.033 474.373C441.512 473.367 441.486 472.186 441.474 471.053ZM528.59 415.901C527.227 412.217 523.933 409.31 520.108 408.413C518.924 408.136 517.588 408.068 516.584 408.754C515.579 409.44 515.235 411.112 516.191 411.862C517.12 412.588 516.559 414.299 515.426 414.621C514.291 414.944 513.071 414.175 512.505 413.14C511.94 412.107 511.878 410.878 511.872 409.7C511.864 408.127 512.007 406.371 513.169 405.312C513.611 404.907 514.163 404.646 514.711 404.402C516.974 403.389 519.478 402.531 521.898 403.075C524.203 403.593 526.042 405.296 527.649 407.027C528.968 408.446 530.215 409.934 531.384 411.478C532.414 412.84 533.404 414.292 533.791 415.956C534.178 417.619 533.845 419.549 532.56 420.674C531.302 421.773 529.367 421.868 527.842 421.188C526.492 420.587 525.342 419.265 525.442 417.793C525.542 416.319 527.351 415.098 528.59 415.901ZM540.756 519.494C544.137 519.397 547.288 516.792 548.018 513.489C548.463 511.481 547.915 509.092 546.164 508.012C544.886 507.223 543.277 507.28 541.778 507.376C539.701 507.51 537.546 507.692 535.742 508.727C533.938 509.764 532.597 511.913 533.162 513.916C534.081 517.171 537.375 519.59 540.756 519.494ZM541.19 514.615C540.537 514.791 539.605 514.623 539.545 513.948C539.521 513.667 539.672 513.403 539.844 513.179C540.805 511.935 542.636 511.452 544.085 512.06C543.582 513.294 542.478 514.268 541.19 514.615ZM542.938 464.58C542.386 463.31 543.453 461.828 544.749 461.341C545.788 460.951 546.915 460.991 548.035 461.033C548.314 461.042 548.591 461.053 548.866 461.055C550.252 461.073 551.782 460.842 552.681 459.787C552.998 459.416 553.213 458.869 552.971 458.445C552.718 458.001 552.122 457.925 551.613 457.898C548.083 457.715 543.914 457.823 541.879 460.713C541.442 461.336 540.371 461.125 539.962 460.485C539.553 459.845 539.647 459.004 539.88 458.282C540.713 455.691 543.106 453.807 545.72 453.052C548.334 452.297 551.14 452.535 553.794 453.136C554.689 453.338 555.618 453.605 556.271 454.249C556.79 454.759 557.08 455.46 557.269 456.162C558.173 459.521 556.838 463.371 554.048 465.45C551.258 467.531 547.188 467.71 544.226 465.883C543.698 465.557 543.183 465.149 542.938 464.58ZM530.837 523.958C532.477 525.923 534.418 527.709 536.773 528.708C541.533 530.73 547.62 528.863 550.427 524.52C551.45 522.939 551.907 520.526 550.395 519.403C547.972 524.494 540.947 526.742 536.02 524.002C535.076 523.477 534.218 522.807 533.437 522.06C529.894 518.667 528.045 513.126 530.124 508.682C530.801 507.234 531.842 505.983 532.98 504.859C535.463 502.409 539.015 500.403 542.328 501.492C542.466 501.537 542.604 501.588 542.741 501.639C543.205 501.809 543.671 501.981 544.159 501.953C544.791 501.916 545.452 501.35 545.289 500.737C545.241 500.557 545.129 500.399 545.013 500.252C542.964 497.642 538.945 496.837 536.048 498.455C532.602 500.38 529.1 502.648 527.267 506.144C524.283 511.835 526.719 519.025 530.837 523.958ZM585.731 436.171C585.58 436.388 585.619 436.69 585.655 436.98C585.698 437.324 585.738 437.648 585.456 437.787C584.424 438.296 583.19 438.244 582.09 437.908C579.089 436.986 577.075 434.23 575.377 431.59C574.384 430.046 573.396 428.406 573.235 426.576C573.075 424.746 574.01 422.687 575.773 422.17C577.737 421.594 579.662 423.055 581.192 424.416C582.917 425.952 584.68 427.535 585.747 429.582C586.815 431.63 587.051 434.276 585.731 436.171ZM579.205 429.317C579.629 429.729 579.86 430.282 580.092 430.835C580.32 431.38 580.549 431.926 580.961 432.336C581.482 432.856 582.274 433.089 582.995 432.934C581.645 430.846 580.082 428.895 578.335 427.125C577.869 427.265 577.83 427.957 578.111 428.355C578.282 428.597 578.52 428.775 578.759 428.954C578.913 429.069 579.068 429.185 579.205 429.317ZM322.246 618.03C322.079 620.771 322.289 623.947 324.483 625.598C325.214 625.191 325.164 624.146 325.072 623.313C324.506 618.189 326.096 613.251 327.696 608.28C328.842 604.722 329.992 601.146 330.361 597.475C330.469 596.41 330.184 594.952 329.114 594.91C328.312 594.88 327.795 595.725 327.472 596.459C324.476 603.265 322.696 610.606 322.246 618.03ZM535.054 519.17C537.529 520.264 540.273 521.381 542.864 520.594C543.894 520.281 544.811 519.687 545.713 519.099C545.709 520.613 544.407 521.885 542.956 522.316C541.505 522.749 539.945 522.518 538.465 522.197C536.822 521.842 534.812 520.833 535.054 519.17ZM339.254 645.526C339.885 644.401 339.993 643.066 340.087 641.779L340.834 631.532C341.2 626.501 341.567 621.453 341.239 616.421C341.197 615.787 341.133 615.119 340.763 614.602C340.393 614.084 339.61 613.808 339.102 614.191C338.729 614.475 338.636 614.985 338.57 615.449C337.759 621.268 337.326 627.139 337.274 633.014C337.235 637.274 337.43 641.675 339.254 645.526ZM328.052 636.718C327.396 637.272 326.303 636.785 325.941 636.006C325.58 635.225 325.726 634.315 325.881 633.471C327.503 624.626 329.343 615.821 331.398 607.067C331.448 606.848 331.505 606.621 331.646 606.446C332.187 605.776 333.282 606.45 333.665 607.219C334.607 609.107 334.156 611.361 333.685 613.418L328.618 635.513C328.518 635.954 328.398 636.427 328.052 636.718ZM345.598 637.111C345.315 640.428 345.814 643.757 346.309 647.049C346.486 648.221 347.33 649.779 348.388 649.246L350.453 627.174C350.537 626.276 350.593 625.28 350.037 624.571C349.48 623.861 348.07 623.891 347.893 624.774L346.371 632.343C346.053 633.923 345.735 635.506 345.598 637.111ZM558.739 569.463C552.863 566.438 545.711 565.245 539.607 567.779C535.047 569.673 522.161 577.85 520.446 588.331C519.298 595.347 519.31 602.517 521.766 609.292L522.161 610.354C522.892 612.273 525.223 614.477 526.525 612.891C522.721 606.014 522.01 597.5 524.621 590.088C527.232 582.676 533.123 576.487 540.396 573.513C541.927 572.886 543.526 572.395 545.172 572.238C548.501 571.923 551.824 573.003 554.801 574.527C561.208 577.81 569.148 583.27 572.197 589.792C575.138 596.08 577.303 603.578 574.642 609.989C571.982 616.4 554.501 621.038 554.501 621.038L556.436 624.568C556.436 624.568 566.22 622.637 572.197 618.285C597.285 600.012 564.36 572.357 558.739 569.463Z" fill="#00160A"/>
<path fill-rule="evenodd" clip-rule="evenodd" d="M115.241 479.241C106.368 480.192 96.9703 478.14 90.0423 472.514C85.1359 468.531 81.6885 462.989 79.2687 457.15C76.6418 450.811 75.1319 444.011 74.8286 437.155C74.7137 434.575 74.7752 431.947 75.5341 429.476C76.7821 425.413 79.7885 422.151 82.8563 419.208C89.3849 412.948 97.0585 407.234 106.007 405.918C112.105 405.022 118.308 406.244 124.276 407.779C128.965 408.986 133.647 410.409 137.863 412.786C147.181 418.04 153.637 428.06 154.571 438.715C155.505 449.371 154.356 456.431 139.976 469.67C132.504 474.548 124.115 478.288 115.241 479.241ZM130.889 445.792C129.45 446.245 128.015 447.048 126.529 446.786C123.495 446.253 122.951 442.088 123.624 439.082C125.554 430.473 131.554 422.87 139.479 418.994C137.685 415.74 132.92 415.501 129.549 417.065C126.179 418.629 123.544 421.447 120.285 423.231C118.663 424.118 116.74 424.748 114.977 424.194C112.072 423.286 110.964 419.482 111.914 416.592C112.865 413.701 115.237 411.545 117.515 409.527C109.262 409.817 101.094 412.294 94.0695 416.64C88.5698 420.04 83.3534 425.617 84.0843 432.042C88.6299 428.382 93.9679 425.711 99.6226 424.266C100.823 423.959 102.328 423.806 103.079 424.79C103.647 425.536 103.484 426.609 103.119 427.472C101.312 431.76 95.9962 433.197 92.6999 436.479C92.267 436.911 91.8514 437.408 91.7472 438.01C91.5415 439.189 92.6652 440.264 93.8464 440.462C95.0275 440.659 96.2127 440.228 97.3324 439.806C99.6587 438.928 101.985 438.052 104.311 437.174C105.996 436.538 107.995 435.931 109.493 436.929C111.042 437.964 111.187 440.313 110.312 441.955C109.437 443.598 107.829 444.701 106.282 445.737C102.554 448.236 98.8263 450.735 95.0983 453.233C91.977 455.326 88.4803 458.146 88.7769 461.892C89.0562 465.418 92.9351 467.814 96.4639 467.588C99.9941 467.361 103.101 465.203 105.706 462.811C108.31 460.418 110.662 457.686 113.687 455.854C115.662 454.658 118.479 453.994 120.082 455.653C121.321 456.936 121.202 458.998 120.737 460.72C119.397 465.681 115.773 469.976 111.107 472.132C114.903 473.009 118.862 473.173 122.717 472.617C124.916 472.299 127.192 471.69 128.782 470.139C130.372 468.587 130.988 465.856 129.609 464.115C127.551 461.518 127.633 457.716 128.948 454.674C130.262 451.633 132.61 449.175 134.91 446.79C134.251 445.433 132.328 445.341 130.889 445.792ZM148.461 451.689C150.528 446.912 150.603 441.508 150.079 436.329C149.501 430.601 147.504 424.051 142.108 422.044C134.2 425.326 128.098 432.648 126.295 441.018C126.144 441.721 126.025 442.477 126.302 443.141C126.579 443.805 127.4 444.29 128.038 443.956C130.224 442.811 132.913 442.161 135.135 443.235C137.357 444.308 138.44 447.658 136.64 449.346C134.652 451.213 132.61 453.155 131.537 455.661C130.464 458.168 130.619 461.413 132.639 463.245C134.156 464.623 134.16 467.326 132.646 468.708C136.95 467.45 140.018 463.749 142.808 460.24C144.942 457.559 147.099 454.835 148.461 451.689ZM98.9144 426.982C94.4383 428.839 90.0917 431.013 85.9215 433.481C84.9287 434.067 83.9266 434.689 83.2011 435.584C82.2217 436.794 81.8489 438.372 81.5469 439.9C80.5688 444.832 80.0651 450.143 82.1361 454.725C82.7976 456.186 83.7008 457.524 84.6 458.853C84.8659 459.246 85.1666 459.666 85.6222 459.798C86.0765 459.93 86.6778 459.563 86.5709 459.102C86.2422 457.679 87.3191 456.341 88.3814 455.341C94.608 449.48 102.995 446.116 108.595 439.654C107.745 438.648 106.134 439.121 104.923 439.638C102.038 440.868 99.0641 441.891 96.0323 442.69C94.4677 443.103 92.724 443.438 91.2969 442.678C89.2072 441.563 88.8678 438.515 89.9715 436.422C91.0751 434.327 93.1729 432.974 95.1959 431.744C97.2188 430.514 99.342 429.23 100.557 427.198C100.335 426.619 99.4877 426.745 98.9144 426.982ZM114.238 466.241C116.215 464.651 118.353 462.776 118.57 460.247C118.682 458.925 117.835 457.307 116.513 457.434C116.107 457.473 115.736 457.673 115.385 457.883C109.632 461.32 105.847 468.041 99.3554 469.712C101.19 470.533 103.102 471.178 105.058 471.638C105.641 471.775 106.247 471.896 106.833 471.774C107.515 471.632 108.086 471.184 108.628 470.748C110.498 469.245 112.367 467.743 114.238 466.241ZM119.588 411.296C118.308 412.711 117.028 414.128 115.748 415.544C114.733 416.665 113.644 418.146 114.21 419.549C114.625 420.581 115.853 421.104 116.963 421.018C118.075 420.931 119.087 420.364 120.018 419.752C123.337 417.575 126.325 414.609 130.198 413.738C127.513 412.759 124.827 411.78 122.141 410.802C121.583 410.597 120.959 410.394 120.408 410.622C120.078 410.758 119.827 411.03 119.588 411.296Z" fill="#00160A"/>
<path fill-rule="evenodd" clip-rule="evenodd" d="M169.565 242.152C169.229 248.861 164.053 256.127 157.381 255.333C154.37 251.851 152.014 247.528 149.685 243.257C145.211 235.053 140.841 227.036 132.132 225.514C123.578 224.019 115.611 230.311 110.284 237.168C102.569 247.098 97.5823 259.129 96.011 271.606C95.0864 278.943 98.0954 289.115 105.444 288.308C113.84 287.386 119.81 293.99 125.882 300.707C131.502 306.923 137.209 313.236 145.008 313.768C154.293 314.402 161.878 319.965 169.555 325.596C174.683 329.357 179.853 333.148 185.599 335.522C196.406 339.988 208.869 339.124 219.901 335.245C230.934 331.368 240.752 324.688 250.043 317.589L250.531 317.217C255.603 313.338 260.913 309.277 267.22 308.422C299.472 304.053 329.471 285.135 347.313 257.915C372.608 278.135 407.974 285.046 439.019 275.835C444.287 274.272 449.589 272.177 453.494 268.313C457.401 264.448 459.617 258.449 457.696 253.301C455.596 247.67 449.321 244.656 443.357 243.932C440.087 243.533 436.792 243.651 433.494 243.768H433.493C430.775 243.866 428.055 243.962 425.346 243.771C408.948 242.611 395.292 231.301 382.875 220.526C400.866 215.007 415.453 201.146 425.086 184.98C434.717 168.812 439.879 150.395 443.8 131.99C445.865 122.304 447.397 111.393 441.864 103.181C439.387 99.5047 435.755 96.8164 432.137 94.1387C428.062 91.1229 424.002 88.1192 421.628 83.7299C417.058 75.2853 408.151 70.2787 399.703 65.717C377.594 53.781 352.2 41.4962 328.374 49.4678C319.093 52.5731 311.076 58.523 303.259 64.4115C290.278 74.1896 276.373 85.6607 273.901 101.724C252.662 92.2213 225.184 99.8107 211.832 118.866C208.777 123.224 206.434 128.031 204.091 132.833C201.333 138.486 198.579 144.132 194.675 149.033C178.991 141.887 163.012 135.392 146.792 129.57C139.601 126.988 131.009 124.706 124.812 129.176C119.843 132.759 118.318 139.792 119.777 145.742C121.235 151.693 125.13 156.737 129.306 161.22C138.365 170.944 149.248 178.965 161.219 184.74C161.605 184.927 161.994 185.113 162.384 185.299C166.132 187.084 169.985 188.92 172.481 192.198C175.237 195.816 175.408 201.871 171.545 204.273C165.839 207.819 164.788 215.777 165.958 222.392C166.358 224.653 166.944 226.893 167.53 229.128C168.659 233.437 169.785 237.734 169.565 242.152ZM324.478 277.528C310.099 292.626 289.867 301.458 269.179 304.04C248.491 306.622 227.366 303.266 207.604 296.623C212.921 296.621 216.763 289.661 213.936 285.159C203.045 297.855 186.44 303.803 170.619 309.232C156.324 314.138 139.239 310.574 128.739 299.706C118.24 288.836 115.399 271.002 122.783 257.816C125.992 252.085 131.436 247.096 137.98 246.533C144.525 245.97 151.573 251.398 150.965 257.939C147.324 257.305 143.49 260.398 143.341 264.092C157.431 262.575 170.676 254.501 178.481 242.674C181.175 238.591 183.223 234.145 185.271 229.695C186.647 226.707 188.024 223.717 189.598 220.834C193.515 213.659 199.139 206.819 206.935 204.353C213.191 202.375 219.953 203.472 226.419 204.588L255.142 209.54C257.292 207.684 253.81 204.71 251.031 204.13C242.053 202.254 232.95 201.098 223.846 199.941C215.406 198.869 206.963 197.798 198.62 196.151C181.277 192.729 163.847 186.471 151.226 174.098C159.788 169.171 166.302 160.802 168.974 151.293C169.515 149.369 168.227 146.209 166.664 147.455C164.88 153.628 162.945 160.067 158.473 164.68C154.001 169.296 146.151 171.323 141.089 167.364C134.518 162.225 127.61 156.618 125.011 148.692C122.412 140.764 126.524 130.119 134.808 129.146C138.528 128.711 142.162 130.247 145.592 131.751L180.19 146.916C190.486 151.43 200.938 155.989 212.06 157.627C219.87 158.776 227.814 158.454 235.7 158.128L258.061 157.206C258.974 157.169 259.912 157.126 260.754 156.766C263 155.808 263.762 153.064 264.258 150.673C270.258 121.719 278.32 91.163 300.13 71.1953C309.889 62.2603 322.047 55.9696 334.977 53.1636C347.723 50.3978 361.786 51.2102 372.759 58.2598C354.352 59.6147 336.476 67.3778 322.921 79.9044C317.225 73.8235 306.624 78.7941 302.081 85.7769C295.039 96.6026 295.166 111.641 302.392 122.347C308.474 131.356 310.73 142.107 312.99 152.883C315.068 162.787 317.15 172.712 322.21 181.327C330.216 194.954 345.125 203.701 360.696 206.413C376.268 209.124 392.41 206.292 407.208 200.742C390.645 217.263 364.186 222.978 342.282 214.764C340.685 214.166 339.097 213.498 337.508 212.828L337.507 212.827C332.473 210.708 327.422 208.58 322.024 208.645C325.187 211.993 329.226 214.508 333.628 215.867C328.553 224.391 323.228 232.766 317.663 240.98C316.951 242.03 316.14 243.15 314.921 243.505C313.564 243.901 312.147 243.225 310.909 242.541C300.678 236.886 291.506 229.318 284.012 220.347L269.017 238.585C276.712 247.992 285.707 256.331 295.668 263.293C282.411 279.67 262.326 290.338 241.332 292.151C263.063 293.258 285.062 283.065 298.269 265.771C306.629 270.465 315.412 274.406 324.478 277.528ZM393.201 117.149C398.002 111.912 399.781 104.434 399.371 97.3415C398.961 90.2491 396.576 83.4279 393.936 76.8312C400.813 76.0162 407.801 78.611 413.281 82.8494C418.76 87.0864 422.876 92.852 426.251 98.9008C430.344 106.232 433.481 114.16 434.841 122.445C438.047 141.955 431.204 161.845 421.462 179.05C419.57 182.39 417.535 185.708 414.773 188.374C411.993 191.059 408.572 192.99 405.067 194.619C390.601 201.34 373.961 203.28 358.337 200.065C368.311 191.762 375.355 180.322 379.84 168.144C384.326 155.966 386.38 143.023 387.562 130.099L387.569 130.027C387.867 126.768 388.18 123.342 390.037 120.651C390.653 119.76 391.413 118.987 392.175 118.215C392.521 117.864 392.868 117.511 393.201 117.149ZM375.152 170.978C370.848 181.045 364.181 190.288 355.141 196.465C354.083 197.19 352.946 197.887 351.673 198.037C350.549 198.168 349.423 197.858 348.343 197.517C340.659 195.092 333.397 190.792 328.467 184.417C326.678 182.104 325.218 179.552 323.915 176.935C314.426 157.867 313.496 134.733 321.424 114.966C321.804 114.022 322.345 112.961 323.343 112.764C324.634 112.507 325.624 113.828 326.35 114.925C332.271 123.901 343.347 128.445 354.09 128.915C364.833 129.386 375.4 126.332 385.587 122.889C383.731 127.429 383.258 132.375 382.789 137.274V137.281L382.788 137.288C382.731 137.9 382.672 138.512 382.61 139.122C381.519 150.016 379.456 160.911 375.152 170.978ZM372.965 77.4566C378.462 76.2059 384.875 75.8625 389.076 79.6225C390.432 80.8371 391.44 82.3951 392.27 84.0159C397.473 94.1828 395.435 107.573 387.443 115.733C378.205 125.165 363.583 126.719 350.429 125.6C345.708 125.198 340.854 124.471 336.824 121.98C331.61 118.758 328.522 113.079 325.667 107.654C338.343 93.4906 354.429 81.6695 372.965 77.4566ZM417.424 248.442C415.699 252.797 413.958 257.21 413.393 261.86C412.829 266.51 413.564 271.499 416.391 275.234C392.924 276.531 369.078 269.296 350.29 255.175C356.348 246.601 361.133 237.129 364.437 227.164C365.744 223.229 370.726 221.587 374.772 222.498C378.498 223.337 381.624 225.726 384.675 228.056L385.049 228.342C385.186 228.447 385.324 228.552 385.462 228.656C395.451 236.24 406.458 242.355 417.424 248.442ZM253.443 307.91C249.741 312.078 245.319 315.536 240.8 318.799C231.369 325.608 221.085 331.797 209.622 333.776C192.823 336.674 174.674 329.429 164.49 315.757L201.132 302.09C202.008 301.762 202.917 301.43 203.852 301.483C204.38 301.512 204.888 301.665 205.397 301.816C205.736 301.917 206.075 302.018 206.421 302.084C207.597 302.306 208.784 302.111 209.976 301.915C210.717 301.793 211.462 301.67 212.206 301.647C214.949 301.566 217.469 302.819 219.964 304.059C220.596 304.373 221.228 304.687 221.861 304.978C231.576 309.447 242.779 308.724 253.443 307.91ZM200.537 151.14C200.279 150.561 200.552 149.897 200.824 149.327C208.328 133.611 218.255 119.054 230.145 106.331C238.51 117.945 244.076 131.558 246.245 145.706C246.679 148.533 246.21 152.444 243.371 152.797C229.764 154.494 215.919 154.262 202.376 152.115C201.659 152.002 200.834 151.801 200.537 151.14ZM251.786 150.17C248.984 134.766 243.168 119.919 234.763 106.711C241.877 102.965 250.288 102.904 258.328 102.929C263.405 102.945 268.948 103.123 272.817 106.411L262.78 136.028C261.076 141.056 259.35 146.225 259.565 151.53L253.221 151.631C252.994 151.635 252.761 151.637 252.553 151.55C252.045 151.338 251.885 150.711 251.786 150.17ZM333.425 225.963C335.109 223.095 336.716 220.033 336.887 216.711C344.477 220.125 352.838 221.817 361.158 221.623C362.465 221.592 362.418 223.606 361.882 224.798C360.263 228.404 358.641 232.014 356.765 235.495C354.841 239.068 352.656 242.492 350.473 245.913L345.242 254.113C344.525 255.236 343.787 256.383 342.723 257.184C339.866 259.331 335.791 258.298 332.532 256.834C327.127 254.406 322.151 251.024 317.905 246.89C323.803 240.492 329.015 233.464 333.425 225.963ZM137.12 233.047C139.634 235.583 141.279 238.834 142.881 242.026L135.336 243.102C132.821 243.46 130.244 243.839 128.022 245.069C125.86 246.264 124.192 248.183 122.725 250.17C116.588 258.484 113.186 268.783 113.165 279.117C113.158 282.849 108.746 285.512 105.136 284.566C101.525 283.62 99.0722 280.034 98.4482 276.354C97.8242 272.674 98.7034 268.911 99.8057 265.345C103.685 252.797 110.625 240.945 120.891 232.753C122.853 231.188 125.021 229.723 127.498 229.327C131.025 228.763 134.605 230.511 137.12 233.047ZM453.983 254.053C454.856 255.174 455.502 256.54 455.464 257.961C455.413 259.796 454.249 261.406 452.996 262.749C445.712 270.555 434.518 273.212 423.915 274.464C423.217 274.547 422.484 274.622 421.828 274.365C421.29 274.154 420.857 273.74 420.473 273.307C417.915 270.43 416.902 266.41 417.109 262.566C417.316 258.722 418.643 255.019 420.294 251.542C420.643 250.81 421.045 250.04 421.755 249.648C422.321 249.335 422.996 249.31 423.643 249.294L436.474 248.957C439.634 248.874 442.828 248.794 445.921 249.446C449.013 250.097 452.042 251.56 453.983 254.053ZM310.977 132.81C305.747 123.123 301.836 112.726 299.383 101.994L301.494 96.3514C304.108 91.2926 307.403 86.5853 311.26 82.3977C312.833 80.6928 315.556 80.5031 317.725 81.3248C319.893 82.1465 321.638 83.7807 323.322 85.3761L330.898 92.554C331.122 92.7678 331.358 92.9976 331.434 93.2982C331.574 93.8648 331.106 94.3845 330.683 94.7867C327.135 98.1592 323.983 101.963 321.455 106.155C317.635 112.491 315.302 119.593 313.001 126.624L310.977 132.81ZM330.338 78.3999C345.763 70.1384 362.635 62.3645 380.034 64.2245C389.13 65.1959 397.831 68.8142 405.408 73.9411C383.703 68.3613 359.509 73.5082 341.955 87.4378C339.241 89.5917 335.17 91.93 332.754 89.4474C332.134 88.81 331.729 87.9175 331.333 87.0463C330.7 85.654 330.093 84.3192 328.676 84.1882C327.324 84.064 326.721 82.2281 327.296 80.9974C327.869 79.7655 329.141 79.0413 330.338 78.3999ZM287.964 229.502C291.009 232.428 294.362 235.01 297.706 237.586L311.22 247.995C307.059 251.663 302.987 255.432 299.01 259.299C289.542 253.687 281.091 246.365 274.188 237.793C277.967 233.857 281.594 229.776 285.059 225.562C285.604 227.117 286.776 228.361 287.964 229.502ZM201.075 201.35C193.959 206.909 186.602 212.76 182.688 220.897C181.924 222.487 181.292 224.162 180.661 225.832C179.32 229.383 177.984 232.923 175.385 235.626C174.232 235.288 173.779 233.929 173.498 232.761L170.79 221.499C170.425 219.979 170.058 218.417 170.265 216.869C170.472 215.327 171.232 213.922 171.978 212.557L179.923 198.039C180.1 197.716 180.283 197.383 180.568 197.148C181.271 196.564 182.31 196.75 183.198 196.968L201.075 201.35ZM316.672 251.223C321.523 256.212 327.555 260.048 334.13 262.327C335.361 261.169 337.736 261.807 338.221 263.425C335.959 266.36 333.475 269.126 330.796 271.689C329.602 272.834 327.686 272.592 326.072 272.222C318.191 270.413 310.6 267.348 303.672 263.178C303.21 262.898 302.687 262.502 302.734 261.962C302.765 261.6 303.049 261.318 303.318 261.072L313.044 252.114C314.063 251.175 315.704 250.229 316.672 251.223ZM440.846 126.091C440.756 127.188 440.602 128.413 439.744 129.104C439.737 120.481 437.598 111.87 433.572 104.244C432.842 102.863 432.05 101.51 431.169 100.218C431.056 100.051 430.941 99.8856 430.826 99.7185C429.938 98.4358 429.029 97.1237 428.812 95.5924L439.235 106.48C440.193 107.482 441.179 108.527 441.633 109.837C442.07 111.101 441.966 112.479 441.856 113.812L440.846 126.091ZM428.871 112.254L426.512 109.28C423.915 106.007 420.73 102.434 416.552 102.428C414.127 102.426 411.898 103.668 409.793 104.873L406.526 106.748C405.634 107.26 404.717 107.792 404.088 108.607C402.272 110.954 403.596 114.386 405.312 116.807C406.5 118.482 407.923 120.091 409.811 120.898C412.253 121.942 415.063 121.479 417.625 120.774C421.131 119.807 424.519 118.412 427.69 116.629C428.704 116.059 429.824 115.223 429.773 114.062C429.742 113.378 429.297 112.792 428.871 112.254ZM408.253 114.551C407.847 113.905 407.427 113.214 407.42 112.45C407.408 110.957 408.898 109.955 410.209 109.24L414.867 106.7C415.571 106.315 416.303 105.922 417.105 105.869C417.905 105.814 418.795 106.2 419.064 106.955C419.859 109.187 421.816 110.965 424.112 111.544C424.855 111.732 425.094 112.761 424.742 113.442C424.391 114.124 423.672 114.522 422.985 114.863C420.531 116.08 417.964 117.074 415.328 117.826C414.271 118.127 413.153 118.392 412.084 118.136C410.336 117.721 409.21 116.072 408.253 114.551ZM375.117 137.548C370.497 138.085 369.617 146.415 371.763 150.858C372.204 151.772 372.895 152.714 373.903 152.841C375.624 153.06 376.575 150.935 376.956 149.242L376.965 149.202C377.467 146.971 379.708 137.012 375.117 137.548ZM351.29 148.474C352.214 146.32 352.522 143.904 352.17 141.587C352.005 140.51 351.681 139.416 350.962 138.598C350.242 137.781 349.052 137.305 348.028 137.674C347.1 138.008 346.516 138.915 346.078 139.798C344.527 142.914 343.909 146.487 344.324 149.943C344.516 151.55 346.542 152.429 348.078 151.92C349.616 151.412 350.653 149.963 351.29 148.474ZM364.91 143.542C365.626 142.949 366.531 144.027 366.822 144.913C367.779 147.821 368.571 150.783 369.193 153.78C369.587 155.673 369.911 157.642 369.492 159.53C368.901 162.193 366.877 164.359 364.529 165.745C362.18 167.132 359.508 167.851 356.873 168.554C356.177 168.74 355.302 168.872 354.851 168.308C354.471 167.831 354.659 167.083 355.093 166.651C355.52 166.23 356.113 166.035 356.683 165.848L356.717 165.836C360.825 164.487 365.215 162.051 366.171 157.834C366.698 155.516 366.058 153.187 365.415 150.847C364.83 148.716 364.242 146.578 364.532 144.432C364.576 144.105 364.655 143.753 364.91 143.542ZM336.22 134.058C335.138 132.559 336.005 130.282 337.573 129.305C339.142 128.327 341.125 128.341 342.958 128.577C345.145 128.86 347.298 129.416 349.349 130.23C349.786 130.404 350.256 130.624 350.449 131.053C350.804 131.847 349.883 132.715 349.014 132.714C348.314 132.714 347.679 132.377 347.051 132.043C346.898 131.963 346.748 131.883 346.595 131.807C343.172 130.108 338.632 131.093 336.22 134.058ZM375.68 133.541C377.307 133.271 379.032 133.647 380.399 134.569C380.971 134.955 381.789 134.307 381.793 133.617C381.795 132.928 381.281 132.348 380.74 131.922C379.572 131.002 378.119 130.453 376.636 130.37C375.68 130.316 374.621 130.501 374.004 131.235C373.388 131.968 373.574 133.346 374.498 133.601C374.827 133.693 375.173 133.631 375.514 133.57C375.569 133.561 375.625 133.55 375.68 133.541ZM355.487 175.815C355.944 175.556 356.55 176.007 356.618 176.528C356.686 177.049 356.388 177.549 356.049 177.95C354.342 179.964 351.403 180.584 348.807 180.111C346.21 179.639 343.883 178.244 341.693 176.772C340.664 176.079 339.648 175.363 338.65 174.627C337.616 173.863 336.514 172.927 336.39 171.647C336.267 170.367 337.906 169.077 338.843 169.958C341.144 172.126 343.498 174.329 346.36 175.669C349.223 177.011 352.734 177.367 355.487 175.815ZM306.204 186.079C296.616 165.235 292.615 141.851 294.729 119.005C294.765 118.615 294.815 118.196 295.072 117.901C295.437 117.484 296.183 117.502 296.528 117.935C296.405 130.503 296.287 143.145 298.339 155.545C300.39 167.945 304.746 180.212 312.701 189.943C312.938 190.235 313.179 190.523 313.421 190.813C314.789 192.454 316.169 194.108 316.944 196.087C311.772 195.987 308.366 190.779 306.204 186.079ZM315.609 91.9554C315.433 91.763 315.226 91.5946 314.987 91.4904C314.295 91.1924 313.485 91.4984 312.878 91.946C310.465 93.7325 310.456 97.9107 312.861 99.7092C314.035 98.7084 315.239 97.6702 315.927 96.2899C316.614 94.911 316.657 93.0871 315.609 91.9554ZM336.422 113.966C339.023 116.079 341.987 117.742 345.145 118.862C355.336 122.475 366.787 120.206 376.622 115.711C378.124 115.024 380.041 115.386 381.19 116.574C374.875 121.073 367.14 123.546 359.386 123.545C357.677 123.545 355.97 123.428 354.266 123.278C350.78 122.975 347.269 122.527 343.991 121.307C340.712 120.086 337.651 118.021 335.795 115.056L336.422 113.966ZM447.392 251.309C447.29 251.656 447.57 251.987 447.826 252.242L451.698 256.085C452.121 254.98 451.646 253.694 450.834 252.833C450.023 251.973 448.926 251.45 447.856 250.945C447.646 250.954 447.451 251.108 447.392 251.309Z" fill="#00160A"/>
<path fill-rule="evenodd" clip-rule="evenodd" d="M701.683 101.846C706.426 103.489 710.894 99.2108 714.981 96.2966C721.307 91.787 729.558 90.0821 737.153 91.7149C738.413 91.9861 739.733 92.3923 740.563 93.3784C741.32 94.2803 741.537 95.5096 741.658 96.6828C742.406 103.857 740.612 111.27 736.668 117.308C734.747 120.246 732.344 122.861 730.627 125.922C728.911 128.983 727.93 132.722 729.153 136.012C736.423 155.566 733.398 178.631 721.33 195.65C709.263 212.668 688.499 223.155 667.64 222.765C656.972 222.565 646.52 219.717 636.469 216.138C632.084 214.575 627.263 212.862 622.911 214.51C614.968 217.521 606.606 219.422 598.141 220.141C596.041 220.32 593.847 220.411 591.909 219.582C589.009 218.341 587.257 215.196 586.924 212.057C586.591 208.92 587.459 205.78 588.554 202.82C591.859 193.895 602.119 179.952 608.331 176.739C607.829 165.9 607.883 154.934 610.227 144.341C612.569 133.747 617.353 123.466 625.197 115.97C628.438 112.874 632.146 110.297 636.03 108.06C655.674 96.7496 680.264 94.422 701.683 101.846ZM671.766 100.965C656.744 101.317 642.121 107.351 630.378 116.727C626.931 119.479 623.69 122.536 621.102 126.109C619.062 128.926 617.449 132.034 616.101 135.241C608.103 154.264 609.928 177.12 620.846 194.632C621.083 195.014 621.356 195.419 621.781 195.567C622.305 195.751 622.87 195.483 623.359 195.223C657.648 176.951 688.167 151.642 712.472 121.33C713.051 120.608 713.659 119.769 713.534 118.853C713.441 118.164 712.95 117.606 712.471 117.103C702.099 106.231 686.788 100.614 671.766 100.965ZM692.768 214.529C709.054 206.882 721.423 191.774 726.713 174.578C727.912 170.684 728.772 166.658 728.856 162.585C728.928 159.159 728.45 155.75 727.973 152.357C727.282 147.439 726.592 142.52 725.899 137.6C725.716 136.296 724.46 134.575 723.542 135.52C698.06 161.744 670.236 185.689 640.507 206.978C639.519 207.687 638.43 208.563 638.376 209.779C638.315 211.186 639.657 212.205 640.877 212.91C656.463 221.897 676.482 222.175 692.768 214.529ZM592.312 212.526C593.497 214.426 596.065 214.816 598.303 214.878C610.048 215.203 621.666 211.762 632.174 206.505C642.681 201.25 652.192 194.219 661.433 186.965C673.761 177.291 685.719 167.151 697.373 156.677C711.807 143.704 725.99 129.944 735.466 113.008C737.3 109.732 738.991 106.14 738.704 102.396C738.418 98.6536 735.432 94.8749 731.681 95.0219C723.72 95.3319 715.894 98.3931 709.835 103.564C708.629 104.593 709.482 106.782 710.965 107.339C712.448 107.896 714.101 107.343 715.551 106.703C716.999 106.063 718.509 105.314 720.083 105.489C722.488 105.757 724.197 108.219 724.34 110.635C724.483 113.052 723.415 115.373 722.157 117.44C719.826 121.266 716.784 124.601 713.709 127.858C686.381 156.812 654.854 181.797 620.425 201.791C617.323 203.593 614.186 205.359 610.85 206.67C609.099 207.358 607.092 207.911 605.385 207.124C602.583 205.833 602.358 201.901 603.199 198.933C604.461 194.478 607.187 190.451 610.855 187.625C610.16 185.668 609.465 183.71 608.771 181.754C599.718 187.536 593.365 197.373 591.816 208.002C591.593 209.536 591.491 211.211 592.312 212.526ZM618.053 199.096C618.117 198.895 618 198.683 617.886 198.504C616.717 196.646 615.548 194.788 614.379 192.93C613.849 192.089 612.826 191.137 612.032 191.734C609.173 193.888 607.127 197.095 606.377 200.594C606.23 201.285 606.144 202.056 606.521 202.653C607.219 203.765 608.891 203.518 610.128 203.074C612.764 202.129 615.304 200.915 617.695 199.454C617.843 199.365 618.001 199.261 618.053 199.096ZM719.79 110.642C719.673 110.158 719.098 109.948 718.601 109.927C717.095 109.861 715.52 111.1 715.616 112.606C715.711 114.11 717.949 115.059 718.883 113.875C719.166 113.517 719.285 113.062 719.398 112.621C719.508 112.184 719.621 111.747 719.732 111.31C719.788 111.091 719.844 110.861 719.79 110.642Z" fill="#00160A"/>
<path d="M515.147 745.102L517.636 744.873L515.72 723.982C515.638 723.092 515.088 722.313 514.277 721.939C513.465 721.565 512.516 721.653 511.787 722.168L494.663 734.274L494.664 734.274L477.528 746.38C476.798 746.895 476.4 747.761 476.481 748.651C476.563 749.54 477.113 750.318 477.924 750.692L496.971 759.472L496.97 759.471L516.017 768.259C516.828 768.633 517.778 768.547 518.507 768.032C519.237 767.516 519.636 766.65 519.554 765.761L517.636 744.873L515.147 745.102L512.658 745.331L514.18 761.905L499.065 754.931L499.064 754.931L483.951 747.965L497.549 738.358L497.55 738.358L511.136 728.752L512.658 745.331L515.147 745.102Z" fill="#263F95"/>
<path d="M637.597 745.769L640.012 746.414L645.429 726.146C645.66 725.283 645.413 724.362 644.781 723.731C644.148 723.1 643.227 722.854 642.365 723.086L622.113 728.533H622.114L601.852 733.976C600.989 734.207 600.316 734.882 600.085 735.745C599.855 736.608 600.102 737.528 600.734 738.159L615.577 752.977L615.576 752.976L630.416 767.802C631.048 768.433 631.969 768.68 632.831 768.448C633.694 768.216 634.368 767.542 634.598 766.679L640.012 746.414L637.597 745.769L635.182 745.124L630.886 761.204L619.11 749.439L619.109 749.438L607.332 737.681L623.411 733.362H623.412L639.48 729.04L635.182 745.124L637.597 745.769Z" fill="#00160A"/>
<path d="M563.697 131.479L563.373 133.958L584.176 136.676C585.062 136.792 585.942 136.427 586.485 135.717C587.028 135.007 587.151 134.062 586.809 133.238L578.758 113.873L578.758 113.874L570.711 94.4982C570.369 93.6729 569.611 93.094 568.726 92.9779C567.84 92.8628 566.96 93.2281 566.417 93.9372L553.669 110.592L553.67 110.591L540.913 127.243C540.371 127.952 540.246 128.898 540.589 129.722C540.932 130.547 541.688 131.127 542.574 131.242L563.373 133.958L563.697 131.479L564.02 129L547.516 126.846L557.639 113.631L557.64 113.63L567.755 100.416L574.141 115.791L574.141 115.792L580.528 131.157L564.02 129L563.697 131.479Z" fill="#263F95"/>
<path d="M479.641 124.667L477.593 121.407C476.62 122.018 475.568 122.299 474.51 122.3C473.546 122.3 472.585 122.058 471.738 121.6C470.888 121.139 470.153 120.475 469.594 119.588V119.585C468.983 118.612 468.701 117.56 468.7 116.502C468.7 115.54 468.942 114.58 469.4 113.732C469.859 112.883 470.525 112.149 471.41 111.59C472.38 110.983 473.429 110.701 474.488 110.7C475.452 110.7 476.415 110.942 477.263 111.4C478.113 111.861 478.85 112.526 479.409 113.412L479.41 113.415C480.018 114.383 480.299 115.434 480.3 116.492C480.302 117.456 480.058 118.416 479.6 119.267C479.139 120.117 478.474 120.853 477.59 121.41L477.593 121.407L479.641 124.667L481.692 127.926C483.72 126.651 485.31 124.901 486.375 122.924C487.444 120.944 488 118.734 488 116.492C488.003 114.037 487.326 111.533 485.924 109.312L485.926 109.314C484.651 107.284 482.901 105.692 480.922 104.626C478.942 103.557 476.731 103 474.488 103C472.035 102.998 469.531 103.674 467.312 105.073C465.283 106.346 463.692 108.094 462.626 110.073C461.557 112.052 461 114.26 461 116.502C460.998 118.959 461.676 121.464 463.076 123.686V123.685C464.349 125.714 466.099 127.307 468.076 128.374C470.056 129.443 472.266 130 474.51 130C476.963 130.002 479.467 129.326 481.689 127.927L481.692 127.926L479.641 124.667Z" fill="#00160A"/>
<path d="M737.641 73.6671L735.593 70.4071C734.62 71.0184 733.568 71.2987 732.51 71.3002C731.546 71.3002 730.585 71.0585 729.738 70.5996C728.888 70.1391 728.153 69.4754 727.594 68.5884V68.5853C726.983 67.6121 726.701 66.5603 726.7 65.5023C726.7 64.5399 726.942 63.5804 727.4 62.7319C727.859 61.8834 728.525 61.1489 729.41 60.5899C730.38 59.9831 731.429 59.7013 732.488 59.6998C733.452 59.6998 734.415 59.9415 735.263 60.4005C736.113 60.8609 736.85 61.5262 737.409 62.4116L737.41 62.4147C738.018 63.3833 738.299 64.4336 738.3 65.4915C738.302 66.4556 738.058 67.4165 737.6 68.2665C737.139 69.1166 736.474 69.8527 735.59 70.4102L735.593 70.4071L737.641 73.6671L739.692 76.9257C741.72 75.6506 743.31 73.9012 744.375 71.9239C745.444 69.9435 746 67.7337 746 65.4915C746.003 63.0369 745.326 60.5329 743.924 58.3123L743.926 58.3138C742.651 56.2841 740.901 54.6918 738.922 53.6262C736.942 52.5575 734.731 52 732.488 52C730.035 51.9985 727.531 52.6745 725.312 54.0728C723.283 55.3463 721.692 57.0942 720.626 59.073C719.557 61.0519 719 63.2602 719 65.5023C718.998 67.9586 719.676 70.464 721.076 72.6862V72.6846C722.349 74.7143 724.099 76.3066 726.076 77.3738C728.056 78.4426 730.266 79 732.51 79C734.963 79.0016 737.467 78.3255 739.689 76.9272L739.692 76.9257L737.641 73.6671Z" fill="#00160A"/>
<path d="M335.583 742.08C335.241 742.439 334.972 742.596 334.655 742.713C334.377 742.812 334.041 742.869 333.6 742.87C332.834 742.876 331.777 742.672 330.565 742.361C328.737 741.91 326.584 741.214 324.14 741.171C322.921 741.155 321.612 741.326 320.322 741.836C319.032 742.34 317.791 743.183 316.705 744.353C315.763 745.363 315.818 746.944 316.828 747.886C317.838 748.828 319.42 748.773 320.362 747.763C320.918 747.169 321.427 746.818 321.93 746.584C322.37 746.38 322.816 746.263 323.318 746.205C324.19 746.106 325.242 746.222 326.42 746.478C328.195 746.85 330.171 747.547 332.362 747.8C333.459 747.918 334.644 747.914 335.862 747.574C337.077 747.24 338.28 746.531 339.239 745.49C340.181 744.48 340.125 742.897 339.116 741.956C338.106 741.014 336.524 741.07 335.583 742.08Z" fill="#263F95"/>
<path d="M355.41 720.818C355.068 721.177 354.799 721.335 354.482 721.452C354.205 721.55 353.868 721.608 353.427 721.608C352.661 721.614 351.605 721.411 350.392 721.1C348.565 720.649 346.413 719.953 343.97 719.91C342.75 719.894 341.442 720.065 340.151 720.573C338.862 721.078 337.621 721.922 336.535 723.091C335.593 724.101 335.648 725.682 336.658 726.624C337.668 727.566 339.25 727.511 340.191 726.501C340.748 725.907 341.257 725.557 341.759 725.322C342.199 725.119 342.646 725.001 343.147 724.944C344.018 724.845 345.07 724.96 346.248 725.217C348.023 725.588 349.999 726.286 352.19 726.538C353.286 726.656 354.472 726.652 355.689 726.311C356.904 725.978 358.106 725.269 359.066 724.228C360.008 723.218 359.952 721.636 358.943 720.695C357.933 719.753 356.351 719.808 355.41 720.818Z" fill="#263F95"/>
<path d="M339.239 745.49C340.083 744.591 340.67 743.532 340.966 742.454C341.229 741.511 341.282 740.577 341.22 739.703C341.109 738.169 340.685 736.792 340.263 735.493C339.614 733.555 338.968 731.766 338.862 730.32C338.803 729.595 338.857 728.973 339.044 728.378C339.234 727.784 339.555 727.187 340.192 726.501C341.133 725.491 341.078 723.909 340.068 722.967C339.058 722.026 337.477 722.081 336.535 723.091C335.585 724.107 334.888 725.219 334.453 726.364C334.07 727.366 333.887 728.383 333.848 729.354C333.782 731.06 334.124 732.617 334.529 734.026C335.151 736.13 335.91 737.984 336.143 739.355C336.268 740.04 336.269 740.568 336.186 740.961C336.097 741.357 335.964 741.659 335.583 742.08C334.641 743.09 334.696 744.671 335.706 745.613C336.715 746.554 338.298 746.5 339.239 745.49Z" fill="#263F95"/>
<path d="M359.067 724.227C359.91 723.329 360.497 722.268 360.792 721.191C361.055 720.249 361.107 719.315 361.046 718.44C360.935 716.907 360.511 715.53 360.089 714.232C359.44 712.293 358.795 710.505 358.688 709.059C358.63 708.334 358.683 707.712 358.869 707.119C359.06 706.524 359.38 705.928 360.016 705.242L360.017 705.241L358.193 703.541L359.725 705.507C359.871 705.393 359.969 705.292 360.017 705.241L358.193 703.541L359.725 705.507C360.814 704.659 361.009 703.089 360.162 701.999C359.313 700.909 357.742 700.714 356.653 701.563C356.507 701.677 356.408 701.779 356.36 701.831L356.359 701.832C355.41 702.847 354.713 703.959 354.278 705.105C353.895 706.106 353.713 707.122 353.674 708.094C353.608 709.799 353.95 711.355 354.355 712.764C354.976 714.868 355.736 716.722 355.97 718.094C356.093 718.778 356.095 719.306 356.012 719.699C355.922 720.095 355.791 720.398 355.409 720.818C354.467 721.828 354.524 723.41 355.533 724.351C356.543 725.293 358.125 725.237 359.067 724.227Z" fill="#263F95"/>
<path d="M251.734 618.862C251.594 618.386 251.593 618.075 251.651 617.742C251.705 617.452 251.824 617.133 252.045 616.751C252.424 616.085 253.13 615.273 254.008 614.381C255.314 613.026 256.997 611.513 258.26 609.42C258.886 608.374 259.394 607.155 259.601 605.784C259.812 604.415 259.705 602.919 259.238 601.392C258.837 600.071 257.441 599.325 256.12 599.726C254.799 600.127 254.053 601.523 254.454 602.845C254.689 603.624 254.736 604.24 254.687 604.793C254.642 605.276 254.52 605.72 254.318 606.183C253.966 606.987 253.339 607.839 252.525 608.73C251.314 610.079 249.719 611.438 248.401 613.207C247.748 614.097 247.157 615.124 246.841 616.347C246.52 617.566 246.53 618.962 246.949 620.315C247.35 621.635 248.747 622.382 250.068 621.981C251.389 621.58 252.134 620.183 251.734 618.862Z" fill="#00160A"/>
<path d="M260.178 646.681C260.039 646.206 260.037 645.894 260.095 645.56C260.149 645.271 260.268 644.951 260.489 644.569C260.868 643.903 261.574 643.092 262.451 642.199C263.758 640.845 265.439 639.332 266.703 637.24C267.329 636.193 267.837 634.976 268.045 633.605C268.255 632.236 268.148 630.739 267.682 629.213C267.28 627.891 265.885 627.146 264.563 627.547C263.242 627.948 262.496 629.344 262.897 630.665C263.132 631.445 263.18 632.06 263.131 632.612C263.085 633.095 262.963 633.541 262.761 634.003C262.41 634.806 261.782 635.658 260.969 636.549C259.758 637.898 258.163 639.257 256.846 641.026C256.193 641.915 255.602 642.943 255.286 644.166C254.965 645.384 254.975 646.78 255.394 648.133C255.795 649.454 257.192 650.2 258.512 649.799C259.834 649.398 260.579 648.002 260.178 646.681Z" fill="#00160A"/>
<path d="M246.949 620.315C247.303 621.495 247.925 622.535 248.709 623.332C249.392 624.032 250.174 624.546 250.961 624.931C252.343 625.605 253.747 625.929 255.083 626.216C257.084 626.627 258.957 626.966 260.261 627.599C260.917 627.912 261.428 628.271 261.849 628.73C262.267 629.193 262.622 629.771 262.897 630.665C263.298 631.987 264.694 632.733 266.016 632.331C267.337 631.93 268.083 630.535 267.682 629.213C267.28 627.881 266.667 626.721 265.894 625.77C265.22 624.936 264.432 624.268 263.611 623.747C262.169 622.833 260.65 622.348 259.229 621.992C257.097 621.474 255.112 621.201 253.809 620.714C253.154 620.478 252.697 620.215 252.399 619.946C252.101 619.669 251.906 619.404 251.733 618.862C251.332 617.541 249.936 616.795 248.615 617.196C247.294 617.597 246.548 618.993 246.949 620.315Z" fill="#00160A"/>
<path d="M255.394 648.134C255.748 649.314 256.371 650.354 257.155 651.15C257.838 651.85 258.62 652.364 259.407 652.75C260.789 653.422 262.192 653.746 263.527 654.033C265.53 654.444 267.401 654.783 268.705 655.417C269.362 655.729 269.873 656.087 270.293 656.546C270.712 657.009 271.066 657.586 271.341 658.48L271.341 658.481L273.727 657.757L271.257 658.095C271.283 658.278 271.321 658.414 271.341 658.481L273.727 657.757L271.257 658.095C271.445 659.462 272.705 660.419 274.073 660.233C275.441 660.045 276.398 658.784 276.211 657.417C276.186 657.233 276.146 657.097 276.126 657.029L276.125 657.028C275.723 655.697 275.111 654.537 274.338 653.585C273.664 652.751 272.876 652.084 272.056 651.563C270.614 650.651 269.096 650.166 267.674 649.809C265.543 649.291 263.558 649.018 262.253 648.532C261.6 648.296 261.142 648.032 260.843 647.763C260.546 647.487 260.351 647.221 260.178 646.68C259.777 645.358 258.38 644.614 257.06 645.015C255.738 645.416 254.993 646.813 255.394 648.134Z" fill="#00160A"/>
<path d="M765.583 641.08C765.241 641.439 764.972 641.596 764.655 641.713C764.377 641.812 764.041 641.869 763.6 641.87C762.834 641.876 761.777 641.672 760.565 641.361C758.737 640.91 756.584 640.214 754.14 640.171C752.921 640.155 751.612 640.326 750.322 640.836C749.032 641.34 747.791 642.183 746.705 643.353C745.763 644.363 745.818 645.944 746.828 646.886C747.838 647.828 749.42 647.773 750.362 646.763C750.918 646.169 751.427 645.818 751.93 645.584C752.37 645.38 752.816 645.263 753.318 645.205C754.19 645.106 755.242 645.222 756.42 645.478C758.195 645.85 760.171 646.547 762.362 646.8C763.459 646.918 764.644 646.914 765.862 646.574C767.077 646.24 768.28 645.531 769.239 644.49C770.181 643.48 770.125 641.897 769.116 640.956C768.106 640.014 766.524 640.07 765.583 641.08Z" fill="#00160A"/>
<path d="M785.41 619.818C785.068 620.177 784.799 620.335 784.482 620.452C784.205 620.55 783.868 620.608 783.427 620.608C782.661 620.614 781.605 620.411 780.392 620.1C778.565 619.649 776.414 618.953 773.97 618.91C772.75 618.894 771.442 619.065 770.152 619.573C768.862 620.078 767.621 620.922 766.535 622.091C765.593 623.101 765.648 624.682 766.658 625.624C767.668 626.566 769.25 626.511 770.192 625.501C770.748 624.907 771.257 624.557 771.759 624.322C772.199 624.119 772.646 624.001 773.147 623.944C774.018 623.845 775.07 623.96 776.249 624.217C778.023 624.588 779.999 625.286 782.19 625.538C783.286 625.656 784.472 625.652 785.689 625.311C786.904 624.978 788.107 624.269 789.066 623.228C790.008 622.218 789.952 620.636 788.943 619.695C787.933 618.753 786.351 618.808 785.41 619.818Z" fill="#00160A"/>
<path d="M769.239 644.49C770.083 643.591 770.67 642.532 770.966 641.454C771.229 640.511 771.282 639.577 771.22 638.703C771.109 637.169 770.685 635.792 770.263 634.493C769.614 632.555 768.968 630.766 768.862 629.32C768.803 628.595 768.857 627.973 769.044 627.378C769.234 626.784 769.555 626.187 770.192 625.501C771.133 624.491 771.078 622.909 770.068 621.967C769.058 621.026 767.477 621.081 766.535 622.091C765.585 623.107 764.888 624.219 764.453 625.364C764.07 626.366 763.887 627.383 763.848 628.354C763.782 630.06 764.124 631.617 764.529 633.026C765.151 635.13 765.91 636.984 766.143 638.355C766.268 639.04 766.269 639.568 766.186 639.961C766.097 640.357 765.964 640.659 765.583 641.08C764.641 642.09 764.696 643.671 765.706 644.613C766.715 645.554 768.298 645.5 769.239 644.49Z" fill="#00160A"/>
<path d="M789.067 623.227C789.91 622.329 790.497 621.268 790.792 620.191C791.055 619.249 791.107 618.315 791.046 617.44C790.935 615.907 790.511 614.53 790.089 613.232C789.44 611.293 788.795 609.505 788.688 608.059C788.63 607.334 788.683 606.712 788.869 606.119C789.06 605.524 789.381 604.928 790.016 604.242L790.017 604.241L788.193 602.541L789.725 604.507C789.871 604.393 789.969 604.292 790.017 604.241L788.193 602.541L789.725 604.507C790.814 603.659 791.009 602.089 790.162 600.999C789.313 599.909 787.742 599.714 786.653 600.563C786.507 600.677 786.408 600.779 786.36 600.831L786.359 600.832C785.41 601.847 784.713 602.959 784.278 604.105C783.895 605.106 783.713 606.122 783.674 607.094C783.608 608.799 783.95 610.355 784.355 611.764C784.976 613.868 785.736 615.722 785.97 617.094C786.093 617.778 786.095 618.306 786.012 618.699C785.922 619.095 785.791 619.398 785.409 619.818C784.467 620.828 784.524 622.41 785.533 623.351C786.543 624.293 788.125 624.237 789.067 623.227Z" fill="#00160A"/>
<path d="M766.583 111.08C766.241 111.439 765.972 111.596 765.655 111.713C765.377 111.812 765.041 111.869 764.6 111.87C763.834 111.876 762.777 111.672 761.565 111.361C759.737 110.91 757.584 110.214 755.14 110.171C753.921 110.155 752.612 110.326 751.322 110.836C750.032 111.34 748.791 112.183 747.705 113.353C746.763 114.363 746.818 115.944 747.828 116.886C748.838 117.828 750.42 117.773 751.362 116.763C751.918 116.169 752.427 115.818 752.93 115.584C753.37 115.38 753.816 115.263 754.318 115.205C755.19 115.106 756.242 115.222 757.42 115.478C759.195 115.85 761.171 116.547 763.362 116.8C764.459 116.918 765.644 116.914 766.862 116.574C768.077 116.24 769.28 115.531 770.239 114.49C771.181 113.48 771.125 111.897 770.116 110.956C769.106 110.014 767.524 110.07 766.583 111.08Z" fill="#263F95"/>
<path d="M786.41 89.8179C786.068 90.1765 785.799 90.3345 785.482 90.4517C785.205 90.5498 784.868 90.6076 784.427 90.6082C783.661 90.6144 782.605 90.4107 781.392 90.1C779.565 89.6487 777.414 88.9533 774.97 88.9099C773.75 88.8938 772.442 89.0647 771.152 89.5732C769.862 90.0781 768.621 90.9217 767.535 92.0909C766.593 93.1009 766.648 94.6825 767.658 95.6243C768.668 96.5662 770.25 96.5109 771.192 95.5009C771.748 94.907 772.257 94.5567 772.759 94.3219C773.199 94.119 773.646 94.0008 774.147 93.9444C775.018 93.8447 776.07 93.9601 777.249 94.2168C779.023 94.5879 780.999 95.2858 783.19 95.5376C784.286 95.6564 785.472 95.6518 786.689 95.3114C787.904 94.9782 789.107 94.269 790.066 93.2279C791.008 92.2179 790.952 90.6357 789.943 89.6945C788.933 88.7527 787.351 88.8079 786.41 89.8179Z" fill="#263F95"/>
<path d="M770.239 114.49C771.083 113.591 771.67 112.532 771.966 111.454C772.229 110.511 772.282 109.577 772.22 108.703C772.109 107.169 771.685 105.792 771.263 104.493C770.614 102.555 769.968 100.766 769.862 99.3199C769.803 98.5953 769.857 97.9728 770.044 97.3784C770.234 96.7845 770.555 96.1874 771.192 95.5008C772.133 94.4908 772.078 92.9093 771.068 91.9674C770.058 91.0256 768.477 91.0808 767.535 92.0908C766.585 93.1068 765.888 94.2186 765.453 95.3644C765.07 96.3662 764.887 97.383 764.848 98.3544C764.782 100.06 765.124 101.617 765.529 103.026C766.151 105.13 766.91 106.984 767.143 108.355C767.268 109.04 767.269 109.568 767.186 109.961C767.097 110.357 766.964 110.659 766.583 111.08C765.641 112.09 765.696 113.671 766.706 114.613C767.715 115.554 769.298 115.5 770.239 114.49Z" fill="#263F95"/>
<path d="M790.067 93.227C790.91 92.3287 791.497 91.2682 791.792 90.1909C792.055 89.2492 792.107 88.3148 792.046 87.4403C791.935 85.9074 791.511 84.5305 791.089 83.232C790.44 81.2934 789.795 79.5047 789.688 78.0586C789.63 77.334 789.683 76.7123 789.869 76.1186C790.06 75.524 790.381 74.9276 791.016 74.2418L791.017 74.241L789.193 72.5408L790.725 74.5074C790.871 74.3933 790.969 74.2922 791.017 74.241L789.193 72.5408L790.725 74.5074C791.814 73.6592 792.009 72.0887 791.162 70.999C790.313 69.9093 788.742 69.7144 787.653 70.5626C787.507 70.6766 787.408 70.7791 787.36 70.831L787.359 70.8318C786.41 71.847 785.713 72.9588 785.278 74.1046C784.895 75.1065 784.713 76.1225 784.674 77.0939C784.608 78.7985 784.95 80.3552 785.355 81.7639C785.976 83.8676 786.736 85.7217 786.97 87.094C787.093 87.7781 787.095 88.3059 787.012 88.6993C786.922 89.0952 786.791 89.3976 786.409 89.8185C785.467 90.8285 785.524 92.41 786.533 93.3511C787.543 94.293 789.125 94.237 790.067 93.227Z" fill="#263F95"/>
<path d="M430.64 4.45669L429.283 6.55628L453.768 22.3827L439.299 44.7678L416.913 30.2984L432.739 5.81378L430.64 4.45669L429.283 6.55628L430.64 4.45669L428.54 3.09959L411.357 29.6838C410.999 30.2373 410.874 30.9231 411.012 31.566C411.151 32.2103 411.547 32.7833 412.1 33.1405L438.685 50.324C439.237 50.6812 439.923 50.8074 440.566 50.6685C441.21 50.5309 441.784 50.135 442.141 49.5815L459.324 22.9973C459.682 22.4447 459.807 21.7589 459.669 21.1146C459.53 20.4716 459.135 19.8978 458.582 19.5406L431.997 2.35709C431.444 1.99991 430.758 1.87456 430.115 2.01212C429.471 2.15107 428.897 2.54698 428.54 3.09959L430.64 4.45669Z" fill="#263F95"/>
<path d="M680.64 624.457L679.283 626.556L703.768 642.383L689.299 664.768L666.913 650.298L682.739 625.814L680.64 624.457L679.283 626.556L680.64 624.457L678.54 623.1L661.357 649.684C660.999 650.237 660.874 650.923 661.012 651.566C661.151 652.21 661.547 652.783 662.1 653.141L688.685 670.324C689.237 670.681 689.923 670.807 690.566 670.668C691.21 670.531 691.784 670.135 692.141 669.582L709.324 642.997C709.682 642.445 709.807 641.759 709.669 641.115C709.53 640.472 709.135 639.898 708.582 639.541L681.997 622.357C681.444 622 680.758 621.875 680.115 622.012C679.471 622.151 678.897 622.547 678.54 623.1L680.64 624.457Z" fill="#263F95"/>
<path d="M730.463 704.452L715.211 690.147C714.203 689.203 712.621 689.253 711.677 690.26C710.732 691.267 710.783 692.85 711.79 693.794L727.042 708.099C728.049 709.043 729.631 708.993 730.576 707.985C731.52 706.978 731.47 705.396 730.463 704.452Z" fill="#263F95"/>
<path d="M715.795 708.462L730.102 693.21C731.047 692.203 730.996 690.621 729.989 689.677C728.982 688.732 727.4 688.782 726.455 689.79L712.149 705.041C711.204 706.048 711.255 707.631 712.262 708.575C713.269 709.52 714.851 709.469 715.795 708.462Z" fill="#263F95"/>
</svg>
