<svg width="383" height="383" viewBox="0 0 383 383" fill="none" xmlns="http://www.w3.org/2000/svg">
<path d="M323.802 122.637C323.802 122.637 310.91 70.9322 232.864 38.3242C154.817 5.71626 84.9929 35.917 69.0748 74.1265C53.1567 112.336 69.839 132.969 59.2168 165.6C48.5945 198.231 -5.97622 239.558 16.0477 289.674C38.0717 339.789 141.13 354.103 224.526 343.763C307.922 333.424 373.077 218.879 323.802 122.637Z" fill="#146FB8"/>
<path opacity="0.7" d="M323.802 122.637C323.802 122.637 310.91 70.9322 232.864 38.3242C154.817 5.71626 84.9929 35.917 69.0748 74.1265C53.1567 112.336 69.839 132.969 59.2168 165.6C48.5945 198.231 -5.97622 239.558 16.0477 289.674C38.0717 339.789 141.13 354.103 224.526 343.763C307.922 333.424 373.077 218.879 323.802 122.637Z" fill="white"/>
<path d="M120.742 81.4474H57.314C55.2873 81.4474 53.3435 82.2525 51.9104 83.6856C50.4772 85.1188 49.6721 87.0625 49.6721 89.0893V112.779C49.6721 114.806 50.4772 116.75 51.9104 118.183C53.3435 119.616 55.2873 120.421 57.314 120.421H120.36L128.384 131.12V89.0893C128.384 87.0625 127.579 85.1188 126.145 83.6856C124.712 82.2525 122.768 81.4474 120.742 81.4474Z" fill="#263238"/>
<path d="M63.4802 107.529H61.1876V93.0096H63.4802V99.2224H66.0631V93.0096H68.3557V107.529H66.0631V101.316H63.4802V107.529Z" fill="#146FB8"/>
<path d="M70.0457 93.0326H72.3383V107.552H70.0457V93.0326Z" fill="#146FB8"/>
<path d="M76.5257 93.0326H83.5639V95.1035H81.1796V107.529H78.8871V95.1035H76.5104L76.5257 93.0326Z" fill="#146FB8"/>
<path d="M86.8345 107.529H84.5419V93.0096H86.8345V99.2224H89.4098V93.0096H91.7024V107.529H89.4098V101.316H86.8192L86.8345 107.529Z" fill="#146FB8"/>
<path d="M95.6761 99.1383H98.8017V101.209H95.6761V105.458H99.6117V107.529H93.3989V93.0096H99.6117V95.0805H95.6761V99.1383Z" fill="#146FB8"/>
<path d="M105.778 107.529C105.592 106.956 105.521 106.35 105.572 105.749V103.456C105.572 102.111 105.121 101.615 104.044 101.615H103.28V107.514H100.987V92.9945H104.426C106.787 92.9945 107.804 94.0949 107.804 96.3263V97.465C107.804 98.9552 107.322 99.9333 106.275 100.407C107.414 100.889 107.804 101.981 107.804 103.464V105.703C107.762 106.3 107.848 106.899 108.056 107.461L105.778 107.529ZM103.295 95.1036V99.5589H104.189C105.037 99.5589 105.557 99.1844 105.557 98.0305V96.5938C105.557 95.5622 105.205 95.0654 104.395 95.0654L103.295 95.1036Z" fill="#146FB8"/>
<path d="M111.625 99.1383H114.75V101.209H111.625V105.458H115.553V107.529H109.34V93.0096H115.553V95.0805H111.625V99.1383Z" fill="#146FB8"/>
<path d="M117.257 104.32L116.966 99.0773V93.0326H119.259V99.0773L118.969 104.32H117.257ZM119.198 105.336V107.529H117.005V105.336H119.198Z" fill="#146FB8"/>
<path d="M227.728 82.2117C227.728 82.2117 224.901 81.2106 224.259 83.74C223.617 86.2695 227.361 87.2095 227.82 87.2095C228.278 87.2095 229.004 86.5752 228.546 85.1156C228.087 83.656 227.728 82.2117 227.728 82.2117Z" fill="#263238" stroke="#263238" stroke-width="1.26862" stroke-linecap="round" stroke-linejoin="round"/>
<path d="M243.776 76.0063C243.776 76.0063 243.501 79.6591 243.501 81.1187C243.501 82.5783 245.029 83.1285 245.793 83.1285C246.557 83.1285 246.894 84.8632 246.435 86.6896C245.976 88.516 244.425 89.6088 240.681 89.6088C236.936 89.6088 234.659 87.9658 234.567 86.7813C234.475 85.5968 235.385 80.4768 236.944 79.1394C238.503 77.8021 243.776 76.0063 243.776 76.0063Z" fill="#263238" stroke="#263238" stroke-width="1.26862" stroke-linecap="round" stroke-linejoin="round"/>
<path d="M230.104 87.2323V88.6461C230.105 88.8685 230.169 89.0862 230.29 89.2731C230.41 89.4601 230.582 89.6084 230.785 89.7006C231.441 89.9781 232.138 90.1459 232.848 90.1974C234.279 90.1976 235.693 89.8846 236.99 89.2803C237.169 89.2037 237.323 89.0759 237.43 88.9128C237.537 88.7497 237.594 88.5586 237.594 88.3633V86.8884C237.592 86.7985 237.568 86.7103 237.525 86.6317C237.481 86.553 237.419 86.4863 237.343 86.4372C237.268 86.3882 237.182 86.3584 237.092 86.3505C237.002 86.3426 236.912 86.3567 236.829 86.3917L236.531 86.5445C236.531 86.5445 232.023 87.1177 230.104 87.2323Z" fill="#146FB8" stroke="#263238" stroke-width="1.26862" stroke-linecap="round" stroke-linejoin="round"/>
<path d="M228.102 75.2727C227.602 77.2801 227.265 79.3246 227.093 81.3862C226.818 84.7639 227.093 87.8665 228.461 87.9582C229.399 87.9599 230.319 87.6949 231.113 87.194C231.113 87.194 234.307 87.5608 235.4 87.0183L236.5 86.468L237.318 81.1187C237.318 81.1187 237.41 72.812 235.858 72.2618C234.307 71.7115 228.102 75.2727 228.102 75.2727Z" fill="white" stroke="#263238" stroke-width="1.26862" stroke-linecap="round" stroke-linejoin="round"/>
<path d="M230.563 79.0172L229.837 80.9353C229.837 80.9353 228.37 81.3021 228.553 82.0281C228.736 82.7541 229.707 82.6471 229.707 82.6471" stroke="#263238" stroke-width="1.26862" stroke-linecap="round" stroke-linejoin="round"/>
<path d="M232.909 79.8502C232.764 80.2476 232.466 80.5074 232.259 80.431C232.053 80.3546 231.992 79.9648 232.145 79.5598C232.298 79.1548 232.588 78.895 232.802 78.979C233.016 79.0631 233.077 79.4757 232.909 79.8502Z" fill="#263238"/>
<path d="M229.47 78.9254C229.317 79.3304 229.027 79.5902 228.813 79.5138C228.599 79.4374 228.553 79.04 228.698 78.6426C228.843 78.2452 229.141 77.9778 229.355 78.0542C229.569 78.1306 229.615 78.528 229.47 78.9254Z" fill="#263238"/>
<path d="M232.206 77.2827C232.206 77.2827 233.941 76.8242 234.124 78.4749" stroke="#263238" stroke-width="1.26862" stroke-linecap="round" stroke-linejoin="round"/>
<path d="M229.929 76.824C229.929 76.824 228.401 76.2814 227.919 77.5882" stroke="#263238" stroke-width="1.26862" stroke-linecap="round" stroke-linejoin="round"/>
<path d="M231.114 87.2323L233.574 86.2312" stroke="#263238" stroke-width="1.26862" stroke-linecap="round" stroke-linejoin="round"/>
<path d="M229.256 71.0695C229.256 71.0695 226.337 67.6001 224.144 70.1525C221.951 72.7049 222.616 76.5488 226.521 76.7322C230.426 76.9156 234.827 73.0794 234.827 73.0794C234.827 73.0794 234.369 78.1001 235.462 79.8348C236.554 81.5695 237.38 82.754 237.38 82.754C237.38 82.754 238.908 83.7551 241.491 81.7529C244.074 79.7507 244.685 74.8752 242.859 71.6121C241.032 68.349 237.838 66.4997 234.002 67.7912C230.166 69.0826 229.256 71.0695 229.256 71.0695Z" fill="#263238" stroke="#263238" stroke-width="1.26862" stroke-linecap="round" stroke-linejoin="round"/>
<path d="M235.583 82.6702C235.583 82.6702 238.87 79.6593 238.87 81.394C238.87 83.1287 237.341 84.68 236.134 84.3132" fill="white"/>
<path d="M235.583 82.6702C235.583 82.6702 238.87 79.6593 238.87 81.394C238.87 83.1287 237.341 84.68 236.134 84.3132" stroke="#263238" stroke-width="1.26862" stroke-linecap="round" stroke-linejoin="round"/>
<path d="M228.554 84.0608C228.985 84.3717 229.504 84.539 230.036 84.539C230.568 84.539 231.087 84.3717 231.519 84.0608" stroke="#263238" stroke-width="1.26862" stroke-linecap="round" stroke-linejoin="round"/>
<path d="M245.512 89.8313C251.347 83.6216 251.044 73.8573 244.834 68.0219C238.624 62.1866 228.86 62.4901 223.025 68.6997C217.189 74.9094 217.493 84.6737 223.702 90.5091C229.912 96.3444 239.676 96.0409 245.512 89.8313Z" stroke="#263238" stroke-width="1.26862" stroke-linecap="round" stroke-linejoin="round"/>
<path d="M339.265 204.778C348.035 202.728 353.482 193.956 351.432 185.186C349.381 176.416 340.609 170.969 331.839 173.019C323.069 175.07 317.622 183.841 319.673 192.611C321.723 201.382 330.495 206.829 339.265 204.778Z" stroke="#263238" stroke-width="1.26862" stroke-linecap="round" stroke-linejoin="round"/>
<path d="M341.119 193.707C341.119 194.78 340.801 195.829 340.204 196.721C339.608 197.613 338.761 198.309 337.769 198.719C336.778 199.13 335.687 199.238 334.635 199.028C333.582 198.819 332.615 198.302 331.857 197.543C331.098 196.784 330.581 195.818 330.372 194.765C330.162 193.713 330.27 192.622 330.68 191.63C331.091 190.639 331.786 189.792 332.679 189.195C333.571 188.599 334.62 188.281 335.693 188.281C337.132 188.281 338.512 188.853 339.53 189.87C340.547 190.888 341.119 192.268 341.119 193.707Z" fill="#146FB8" stroke="#263238" stroke-width="1.26862" stroke-linecap="round" stroke-linejoin="round"/>
<path d="M343.449 197.321C344.62 195.86 345.354 194.098 345.567 192.239C345.78 190.379 345.463 188.497 344.652 186.809C343.842 185.122 342.571 183.697 340.987 182.7C339.403 181.704 337.569 181.175 335.697 181.175C333.825 181.175 331.991 181.704 330.406 182.7C328.822 183.697 327.551 185.122 326.741 186.809C325.931 188.497 325.614 190.379 325.827 192.239C326.039 194.098 326.773 195.86 327.944 197.321H343.449Z" fill="white" stroke="#263238" stroke-width="1.26862" stroke-linecap="round" stroke-linejoin="round"/>
<path d="M339.567 194.509H331.573C331.106 194.509 330.643 194.417 330.211 194.238C329.779 194.059 329.386 193.797 329.055 193.466C328.725 193.135 328.462 192.743 328.283 192.311C328.104 191.879 328.012 191.415 328.012 190.948C328.011 190.48 328.103 190.016 328.281 189.584C328.46 189.151 328.722 188.758 329.053 188.428C329.384 188.097 329.777 187.834 330.209 187.656C330.642 187.477 331.105 187.386 331.573 187.387H339.567C340.035 187.386 340.498 187.477 340.931 187.656C341.363 187.834 341.756 188.097 342.087 188.428C342.418 188.758 342.68 189.151 342.859 189.584C343.038 190.016 343.129 190.48 343.128 190.948C343.128 191.892 342.753 192.798 342.085 193.466C341.417 194.134 340.511 194.509 339.567 194.509Z" fill="#146FB8" stroke="#263238" stroke-width="1.26862" stroke-linecap="round" stroke-linejoin="round"/>
<path d="M329.648 190.658C329.811 190.199 330.11 189.801 330.504 189.515C330.898 189.229 331.37 189.069 331.856 189.056C332.343 189.042 332.823 189.177 333.232 189.441C333.641 189.705 333.96 190.086 334.149 190.535" stroke="#263238" stroke-width="2.53723" stroke-linecap="round" stroke-linejoin="round"/>
<path d="M337.122 190.658C337.285 190.199 337.584 189.801 337.978 189.515C338.372 189.229 338.844 189.069 339.33 189.056C339.817 189.042 340.296 189.177 340.705 189.441C341.115 189.705 341.434 190.086 341.623 190.535" stroke="#263238" stroke-width="2.53723" stroke-linecap="round" stroke-linejoin="round"/>
<path d="M334.385 192.308C334.421 192.644 334.58 192.955 334.831 193.181C335.082 193.407 335.408 193.532 335.746 193.532C336.084 193.532 336.409 193.407 336.661 193.181C336.912 192.955 337.07 192.644 337.106 192.308H334.385Z" fill="white" stroke="#263238" stroke-width="1.26862" stroke-linecap="round" stroke-linejoin="round"/>
<path d="M348.538 192.874C348.402 192.874 348.267 192.847 348.141 192.795C348.015 192.742 347.9 192.666 347.804 192.569C347.707 192.473 347.631 192.358 347.578 192.232C347.526 192.106 347.499 191.971 347.499 191.835V189.473C347.499 189.337 347.526 189.202 347.578 189.075C347.631 188.949 347.707 188.835 347.804 188.738C347.9 188.642 348.015 188.565 348.141 188.513C348.267 188.461 348.402 188.434 348.538 188.434C348.675 188.434 348.81 188.461 348.936 188.513C349.062 188.565 349.177 188.642 349.273 188.738C349.37 188.835 349.446 188.949 349.499 189.075C349.551 189.202 349.578 189.337 349.578 189.473V191.812C349.581 191.95 349.556 192.088 349.505 192.216C349.455 192.345 349.378 192.462 349.282 192.561C349.185 192.66 349.069 192.739 348.942 192.793C348.814 192.846 348.677 192.874 348.538 192.874Z" fill="#263238" stroke="#263238" stroke-width="1.26862" stroke-linecap="round" stroke-linejoin="round"/>
<path d="M322.571 192.874C322.435 192.874 322.3 192.847 322.174 192.795C322.048 192.742 321.933 192.666 321.837 192.569C321.74 192.473 321.663 192.358 321.611 192.232C321.559 192.106 321.532 191.971 321.532 191.835V189.473C321.532 189.337 321.559 189.202 321.611 189.075C321.663 188.949 321.74 188.835 321.837 188.738C321.933 188.642 322.048 188.565 322.174 188.513C322.3 188.461 322.435 188.434 322.571 188.434C322.708 188.434 322.843 188.461 322.969 188.513C323.095 188.565 323.21 188.642 323.306 188.738C323.403 188.835 323.479 188.949 323.532 189.075C323.584 189.202 323.611 189.337 323.611 189.473V191.812C323.614 191.95 323.589 192.088 323.538 192.216C323.487 192.345 323.411 192.462 323.315 192.561C323.218 192.66 323.102 192.739 322.974 192.793C322.847 192.846 322.71 192.874 322.571 192.874Z" fill="#263238" stroke="#263238" stroke-width="1.26862" stroke-linecap="round" stroke-linejoin="round"/>
<path d="M324.49 189.618C324.201 189.616 323.925 189.5 323.722 189.296C323.519 189.091 323.405 188.814 323.405 188.526V186.814C323.402 184.959 323.955 183.146 324.994 181.61C325.069 181.479 325.17 181.365 325.29 181.274C325.411 181.184 325.549 181.12 325.696 181.086C325.843 181.052 325.995 181.048 326.143 181.076C326.292 181.103 326.432 181.161 326.557 181.246C326.682 181.33 326.788 181.44 326.868 181.567C326.949 181.695 327.002 181.838 327.024 181.987C327.047 182.136 327.038 182.288 326.999 182.433C326.96 182.579 326.892 182.715 326.798 182.832C326.003 184.008 325.58 185.395 325.583 186.814V188.526C325.583 188.815 325.468 189.093 325.263 189.298C325.058 189.503 324.78 189.618 324.49 189.618Z" fill="#263238"/>
<path d="M345.597 182.771C345.507 182.772 345.419 182.749 345.34 182.707C345.261 182.664 345.195 182.602 345.146 182.527C344.445 181.482 343.498 180.627 342.387 180.036C341.277 179.446 340.038 179.138 338.78 179.141H332.713C331.455 179.138 330.216 179.446 329.105 180.036C327.995 180.627 327.047 181.482 326.347 182.527C326.265 182.647 326.138 182.73 325.995 182.757C325.852 182.785 325.703 182.754 325.583 182.672C325.522 182.632 325.47 182.58 325.43 182.52C325.39 182.46 325.362 182.392 325.349 182.32C325.335 182.249 325.336 182.176 325.351 182.105C325.367 182.034 325.396 181.967 325.438 181.908C326.239 180.716 327.321 179.741 328.588 179.066C329.856 178.392 331.269 178.04 332.705 178.041H338.773C340.21 178.04 341.626 178.393 342.894 179.069C344.163 179.744 345.246 180.722 346.048 181.915C346.089 181.975 346.118 182.043 346.132 182.114C346.147 182.185 346.147 182.259 346.133 182.33C346.119 182.401 346.09 182.469 346.05 182.529C346.009 182.589 345.956 182.64 345.895 182.68C345.806 182.738 345.703 182.77 345.597 182.771Z" fill="#263238"/>
<path d="M347.003 189.618C346.713 189.618 346.435 189.503 346.23 189.298C346.025 189.093 345.91 188.815 345.91 188.525V186.814C345.913 185.395 345.49 184.008 344.695 182.832C344.604 182.714 344.538 182.578 344.501 182.433C344.465 182.288 344.458 182.137 344.482 181.989C344.506 181.842 344.561 181.701 344.641 181.575C344.722 181.449 344.828 181.341 344.952 181.258C345.076 181.175 345.216 181.118 345.363 181.091C345.51 181.064 345.661 181.067 345.807 181.101C345.952 181.135 346.09 181.198 346.21 181.287C346.33 181.375 346.431 181.488 346.506 181.617C347.543 183.151 348.094 184.962 348.088 186.814V188.525C348.088 188.814 347.974 189.091 347.771 189.295C347.567 189.5 347.291 189.616 347.003 189.618Z" fill="#263238"/>
<path d="M324.627 194.417C324.055 194.417 323.507 194.19 323.103 193.786C322.699 193.382 322.472 192.834 322.472 192.262V188.839C322.472 188.267 322.699 187.719 323.103 187.315C323.507 186.911 324.055 186.684 324.627 186.684C325.198 186.684 325.746 186.911 326.151 187.315C326.555 187.719 326.782 188.267 326.782 188.839V192.262C326.782 192.834 326.555 193.382 326.151 193.786C325.746 194.19 325.198 194.417 324.627 194.417Z" fill="white" stroke="#263238" stroke-width="1.26862" stroke-linecap="round" stroke-linejoin="round"/>
<path d="M324.848 186.684H324.405V194.417H324.848V186.684Z" fill="#146FB8" stroke="#263238" stroke-width="1.26862" stroke-linecap="round" stroke-linejoin="round"/>
<path d="M348.76 188.839C348.76 187.649 347.796 186.684 346.605 186.684C345.415 186.684 344.45 187.649 344.45 188.839V192.262C344.45 193.453 345.415 194.417 346.605 194.417C347.796 194.417 348.76 193.453 348.76 192.262V188.839Z" fill="white" stroke="#263238" stroke-width="1.26862" stroke-linecap="round" stroke-linejoin="round"/>
<path d="M346.827 186.684H346.384V194.417H346.827V186.684Z" fill="#146FB8" stroke="#263238" stroke-width="1.26862" stroke-linecap="round" stroke-linejoin="round"/>
<path d="M335.731 185.981C336.49 185.978 337.237 185.786 337.904 185.423C338.571 185.061 339.137 184.538 339.552 183.902L340.492 182.443C339.002 181.618 337.325 181.192 335.622 181.205C333.919 181.218 332.248 181.671 330.772 182.519L332.178 184.277C332.606 184.807 333.147 185.235 333.762 185.53C334.377 185.825 335.05 185.979 335.731 185.981Z" fill="#146FB8" stroke="#263238" stroke-width="1.26862" stroke-linecap="round" stroke-linejoin="round"/>
<path d="M335.807 195.388C335.896 195.388 335.968 195.316 335.968 195.227C335.968 195.139 335.896 195.067 335.807 195.067C335.719 195.067 335.647 195.139 335.647 195.227C335.647 195.316 335.719 195.388 335.807 195.388Z" fill="#263238"/>
<path d="M335.968 195.785C335.966 195.744 335.948 195.705 335.918 195.677C335.888 195.648 335.849 195.632 335.807 195.632C335.787 195.631 335.766 195.635 335.747 195.642C335.727 195.649 335.709 195.66 335.694 195.674C335.679 195.689 335.667 195.706 335.659 195.725C335.651 195.744 335.647 195.765 335.647 195.785C335.647 195.828 335.664 195.869 335.694 195.899C335.724 195.929 335.765 195.946 335.807 195.946C335.85 195.946 335.891 195.929 335.921 195.899C335.951 195.869 335.968 195.828 335.968 195.785Z" fill="#263238"/>
<path d="M335.333 195.701C335.374 195.689 335.408 195.661 335.428 195.624C335.448 195.587 335.452 195.543 335.44 195.503C335.425 195.463 335.395 195.43 335.357 195.41C335.319 195.39 335.276 195.385 335.234 195.396C335.194 195.408 335.16 195.436 335.14 195.473C335.12 195.51 335.115 195.554 335.127 195.594C335.143 195.634 335.172 195.667 335.21 195.687C335.248 195.706 335.292 195.712 335.333 195.701Z" fill="#263238"/>
<path d="M336.335 195.701C336.375 195.689 336.409 195.661 336.429 195.624C336.449 195.587 336.454 195.543 336.442 195.503C336.428 195.462 336.398 195.428 336.36 195.408C336.321 195.388 336.277 195.384 336.235 195.396C336.215 195.402 336.197 195.412 336.181 195.425C336.165 195.439 336.152 195.455 336.143 195.474C336.134 195.492 336.128 195.513 336.127 195.533C336.126 195.554 336.129 195.575 336.136 195.594C336.148 195.635 336.176 195.669 336.213 195.689C336.251 195.709 336.294 195.713 336.335 195.701Z" fill="#263238"/>
<path d="M315.518 105.573H254.711V78.4823V71.299L261.902 78.4823H315.518V105.573Z" fill="#D6D6D6" stroke="#263238" stroke-width="1.26862" stroke-linecap="round" stroke-linejoin="round"/>
<path d="M315.518 144.814H254.711V117.731V110.547L261.902 117.731H315.518V144.814Z" fill="#D6D6D6" stroke="#263238" stroke-width="1.26862" stroke-linecap="round" stroke-linejoin="round"/>
<path d="M295.313 87.8054H309.626" stroke="#263238" stroke-width="1.26862" stroke-linecap="round" stroke-linejoin="round"/>
<path d="M275.283 87.8054H291.637" stroke="#263238" stroke-width="1.26862" stroke-linecap="round" stroke-linejoin="round"/>
<path d="M263.018 87.8054H272.418" stroke="#263238" stroke-width="1.26862" stroke-linecap="round" stroke-linejoin="round"/>
<path d="M288.771 92.3066H309.626" stroke="#263238" stroke-width="1.26862" stroke-linecap="round" stroke-linejoin="round"/>
<path d="M263.018 92.3066H285.096" stroke="#263238" stroke-width="1.26862" stroke-linecap="round" stroke-linejoin="round"/>
<path d="M305.538 96.8002H309.626" stroke="#263238" stroke-width="1.26862" stroke-linecap="round" stroke-linejoin="round"/>
<path d="M282.642 96.8002H302.267" stroke="#263238" stroke-width="1.26862" stroke-linecap="round" stroke-linejoin="round"/>
<path d="M263.018 96.8002H279.372" stroke="#263238" stroke-width="1.26862" stroke-linecap="round" stroke-linejoin="round"/>
<path d="M295.313 125.824H309.626" stroke="#263238" stroke-width="1.26862" stroke-linecap="round" stroke-linejoin="round"/>
<path d="M275.283 125.824H291.637" stroke="#263238" stroke-width="1.26862" stroke-linecap="round" stroke-linejoin="round"/>
<path d="M263.018 125.824H272.418" stroke="#263238" stroke-width="1.26862" stroke-linecap="round" stroke-linejoin="round"/>
<path d="M288.771 130.325H309.626" stroke="#263238" stroke-width="1.26862" stroke-linecap="round" stroke-linejoin="round"/>
<path d="M263.018 130.325H285.096" stroke="#263238" stroke-width="1.26862" stroke-linecap="round" stroke-linejoin="round"/>
<path d="M305.538 134.818H309.626" stroke="#263238" stroke-width="1.26862" stroke-linecap="round" stroke-linejoin="round"/>
<path d="M282.642 134.818H302.267" stroke="#263238" stroke-width="1.26862" stroke-linecap="round" stroke-linejoin="round"/>
<path d="M263.018 134.818H279.372" stroke="#263238" stroke-width="1.26862" stroke-linecap="round" stroke-linejoin="round"/>
<path d="M254.711 255.17H315.518V189.656V182.473L308.327 189.656H254.711V255.17Z" fill="#146FB8" stroke="#263238" stroke-width="1.26862" stroke-linecap="round" stroke-linejoin="round"/>
<path d="M295.313 198.597H309.626" stroke="#263238" stroke-width="1.26862" stroke-linecap="round" stroke-linejoin="round"/>
<path d="M275.283 198.597H291.637" stroke="#263238" stroke-width="1.26862" stroke-linecap="round" stroke-linejoin="round"/>
<path d="M263.018 198.597H272.418" stroke="#263238" stroke-width="1.26862" stroke-linecap="round" stroke-linejoin="round"/>
<path d="M288.771 203.091H309.626" stroke="#263238" stroke-width="1.26862" stroke-linecap="round" stroke-linejoin="round"/>
<path d="M263.018 203.091H285.096" stroke="#263238" stroke-width="1.26862" stroke-linecap="round" stroke-linejoin="round"/>
<path d="M305.538 207.592H309.626" stroke="#263238" stroke-width="1.26862" stroke-linecap="round" stroke-linejoin="round"/>
<path d="M282.642 207.592H302.267" stroke="#263238" stroke-width="1.26862" stroke-linecap="round" stroke-linejoin="round"/>
<path d="M263.018 207.592H279.372" stroke="#263238" stroke-width="1.26862" stroke-linecap="round" stroke-linejoin="round"/>
<path d="M295.313 211.268H309.626" stroke="#263238" stroke-width="1.26862" stroke-linecap="round" stroke-linejoin="round"/>
<path d="M275.283 211.268H291.637" stroke="#263238" stroke-width="1.26862" stroke-linecap="round" stroke-linejoin="round"/>
<path d="M263.018 211.268H272.418" stroke="#263238" stroke-width="1.26862" stroke-linecap="round" stroke-linejoin="round"/>
<path d="M288.771 215.769H309.626" stroke="#263238" stroke-width="1.26862" stroke-linecap="round" stroke-linejoin="round"/>
<path d="M263.018 215.769H285.096" stroke="#263238" stroke-width="1.26862" stroke-linecap="round" stroke-linejoin="round"/>
<path d="M305.538 220.263H309.626" stroke="#263238" stroke-width="1.26862" stroke-linecap="round" stroke-linejoin="round"/>
<path d="M282.642 220.263H302.267" stroke="#263238" stroke-width="1.26862" stroke-linecap="round" stroke-linejoin="round"/>
<path d="M263.018 220.263H279.372" stroke="#263238" stroke-width="1.26862" stroke-linecap="round" stroke-linejoin="round"/>
<path d="M295.313 223.946H309.626" stroke="#263238" stroke-width="1.26862" stroke-linecap="round" stroke-linejoin="round"/>
<path d="M275.283 223.946H291.637" stroke="#263238" stroke-width="1.26862" stroke-linecap="round" stroke-linejoin="round"/>
<path d="M263.018 223.946H272.418" stroke="#263238" stroke-width="1.26862" stroke-linecap="round" stroke-linejoin="round"/>
<path d="M288.771 228.439H309.626" stroke="#263238" stroke-width="1.26862" stroke-linecap="round" stroke-linejoin="round"/>
<path d="M263.018 228.439H285.096" stroke="#263238" stroke-width="1.26862" stroke-linecap="round" stroke-linejoin="round"/>
<path d="M305.538 232.94H309.626" stroke="#263238" stroke-width="1.26862" stroke-linecap="round" stroke-linejoin="round"/>
<path d="M282.642 232.94H302.267" stroke="#263238" stroke-width="1.26862" stroke-linecap="round" stroke-linejoin="round"/>
<path d="M263.018 232.94H279.372" stroke="#263238" stroke-width="1.26862" stroke-linecap="round" stroke-linejoin="round"/>
<path d="M295.313 236.616H309.626" stroke="#263238" stroke-width="1.26862" stroke-linecap="round" stroke-linejoin="round"/>
<path d="M275.283 236.616H291.637" stroke="#263238" stroke-width="1.26862" stroke-linecap="round" stroke-linejoin="round"/>
<path d="M263.018 236.616H272.418" stroke="#263238" stroke-width="1.26862" stroke-linecap="round" stroke-linejoin="round"/>
<path d="M288.771 241.117H309.626" stroke="#263238" stroke-width="1.26862" stroke-linecap="round" stroke-linejoin="round"/>
<path d="M263.018 241.117H285.096" stroke="#263238" stroke-width="1.26862" stroke-linecap="round" stroke-linejoin="round"/>
<path d="M305.538 245.611H309.626" stroke="#263238" stroke-width="1.26862" stroke-linecap="round" stroke-linejoin="round"/>
<path d="M282.642 245.611H302.267" stroke="#263238" stroke-width="1.26862" stroke-linecap="round" stroke-linejoin="round"/>
<path d="M263.018 245.611H279.372" stroke="#263238" stroke-width="1.26862" stroke-linecap="round" stroke-linejoin="round"/>
<path d="M335.555 291.599C344.562 291.599 351.863 284.298 351.863 275.292C351.863 266.285 344.562 258.984 335.555 258.984C326.549 258.984 319.247 266.285 319.247 275.292C319.247 284.298 326.549 291.599 335.555 291.599Z" stroke="#263238" stroke-width="1.26862" stroke-linecap="round" stroke-linejoin="round"/>
<path d="M341.119 280.098C341.12 281.172 340.803 282.222 340.208 283.115C339.613 284.008 338.766 284.705 337.775 285.117C336.783 285.528 335.692 285.637 334.639 285.429C333.586 285.22 332.619 284.704 331.859 283.945C331.1 283.187 330.582 282.22 330.372 281.167C330.162 280.115 330.269 279.023 330.68 278.032C331.09 277.04 331.786 276.192 332.678 275.595C333.57 274.999 334.62 274.68 335.693 274.68C337.131 274.68 338.51 275.251 339.527 276.267C340.544 277.283 341.117 278.661 341.119 280.098Z" fill="#146FB8" stroke="#263238" stroke-width="1.26862" stroke-linecap="round" stroke-linejoin="round"/>
<path d="M343.449 283.713C344.62 282.252 345.354 280.49 345.567 278.63C345.78 276.771 345.463 274.888 344.652 273.201C343.842 271.513 342.571 270.089 340.987 269.092C339.403 268.095 337.569 267.566 335.697 267.566C333.825 267.566 331.991 268.095 330.406 269.092C328.822 270.089 327.551 271.513 326.741 273.201C325.931 274.888 325.614 276.771 325.827 278.63C326.039 280.49 326.773 282.252 327.944 283.713H343.449Z" fill="white" stroke="#263238" stroke-width="1.26862" stroke-linecap="round" stroke-linejoin="round"/>
<path d="M339.567 280.901H331.573C331.106 280.901 330.643 280.809 330.211 280.63C329.779 280.451 329.386 280.188 329.055 279.858C328.725 279.527 328.462 279.134 328.283 278.702C328.104 278.27 328.012 277.807 328.012 277.34C328.012 276.872 328.104 276.409 328.283 275.977C328.462 275.545 328.725 275.152 329.055 274.821C329.386 274.491 329.779 274.228 330.211 274.05C330.643 273.871 331.106 273.778 331.573 273.778H339.567C340.034 273.778 340.498 273.871 340.93 274.05C341.362 274.228 341.754 274.491 342.085 274.821C342.416 275.152 342.678 275.545 342.857 275.977C343.036 276.409 343.128 276.872 343.128 277.34C343.128 278.284 342.753 279.19 342.085 279.858C341.417 280.525 340.511 280.901 339.567 280.901Z" fill="#146FB8" stroke="#263238" stroke-width="1.26862" stroke-linecap="round" stroke-linejoin="round"/>
<path d="M329.648 277.049C329.811 276.591 330.11 276.192 330.504 275.906C330.898 275.621 331.37 275.461 331.856 275.447C332.343 275.434 332.823 275.568 333.232 275.832C333.641 276.096 333.96 276.478 334.149 276.927" stroke="#263238" stroke-width="2.53723" stroke-linecap="round" stroke-linejoin="round"/>
<path d="M337.122 277.049C337.285 276.591 337.584 276.192 337.978 275.906C338.372 275.621 338.844 275.461 339.33 275.447C339.817 275.434 340.296 275.568 340.705 275.832C341.115 276.096 341.434 276.478 341.623 276.927" stroke="#263238" stroke-width="2.53723" stroke-linecap="round" stroke-linejoin="round"/>
<path d="M334.385 278.7C334.421 279.036 334.58 279.347 334.831 279.573C335.082 279.799 335.408 279.924 335.746 279.924C336.084 279.924 336.409 279.799 336.661 279.573C336.912 279.347 337.07 279.036 337.106 278.7H334.385Z" fill="white" stroke="#263238" stroke-width="1.26862" stroke-linecap="round" stroke-linejoin="round"/>
<path d="M348.538 279.266C348.263 279.266 347.999 279.156 347.804 278.961C347.609 278.766 347.499 278.502 347.499 278.226V275.873C347.499 275.597 347.609 275.333 347.804 275.138C347.999 274.943 348.263 274.833 348.538 274.833C348.814 274.833 349.078 274.943 349.273 275.138C349.468 275.333 349.578 275.597 349.578 275.873V278.234C349.576 278.508 349.465 278.771 349.271 278.964C349.076 279.157 348.813 279.266 348.538 279.266Z" fill="#263238" stroke="#263238" stroke-width="1.26862" stroke-linecap="round" stroke-linejoin="round"/>
<path d="M322.571 279.266C322.296 279.266 322.031 279.156 321.837 278.961C321.642 278.766 321.532 278.502 321.532 278.226V275.873C321.532 275.597 321.642 275.333 321.837 275.138C322.031 274.943 322.296 274.833 322.571 274.833C322.847 274.833 323.111 274.943 323.306 275.138C323.501 275.333 323.611 275.597 323.611 275.873V278.234C323.609 278.508 323.498 278.771 323.304 278.964C323.109 279.157 322.846 279.266 322.571 279.266Z" fill="#263238" stroke="#263238" stroke-width="1.26862" stroke-linecap="round" stroke-linejoin="round"/>
<path d="M324.49 276.018C324.201 276.016 323.925 275.9 323.722 275.695C323.519 275.49 323.405 275.213 323.405 274.925V273.205C323.402 271.351 323.956 269.538 324.994 268.001C325.166 267.786 325.412 267.644 325.684 267.603C325.956 267.562 326.234 267.625 326.461 267.779C326.689 267.933 326.85 268.168 326.912 268.436C326.975 268.703 326.934 268.985 326.798 269.224C326.003 270.399 325.58 271.787 325.583 273.205V274.925C325.583 275.215 325.468 275.493 325.263 275.698C325.058 275.902 324.78 276.018 324.49 276.018Z" fill="#263238"/>
<path d="M345.597 269.163C345.509 269.163 345.421 269.141 345.343 269.1C345.264 269.058 345.197 268.999 345.146 268.926C344.447 267.88 343.5 267.023 342.389 266.431C341.279 265.839 340.039 265.531 338.781 265.533H332.713C331.456 265.534 330.219 265.843 329.109 266.433C327.999 267.023 327.051 267.877 326.347 268.918C326.307 268.977 326.256 269.028 326.196 269.067C326.136 269.107 326.069 269.134 325.999 269.147C325.929 269.161 325.857 269.16 325.787 269.146C325.717 269.132 325.65 269.104 325.591 269.063C325.532 269.023 325.481 268.972 325.442 268.912C325.402 268.852 325.375 268.785 325.362 268.715C325.348 268.645 325.349 268.573 325.363 268.503C325.377 268.433 325.405 268.366 325.446 268.307C326.247 267.116 327.329 266.14 328.596 265.465C329.864 264.791 331.277 264.439 332.713 264.44H338.781C340.218 264.441 341.633 264.794 342.902 265.47C344.17 266.145 345.253 267.122 346.056 268.314C346.097 268.374 346.126 268.442 346.141 268.513C346.155 268.584 346.155 268.658 346.141 268.729C346.127 268.8 346.098 268.868 346.058 268.928C346.017 268.988 345.964 269.039 345.903 269.079C345.812 269.136 345.705 269.165 345.597 269.163Z" fill="#263238"/>
<path d="M347.003 276.018C346.713 276.018 346.435 275.902 346.23 275.698C346.025 275.493 345.91 275.215 345.91 274.925V273.205C345.912 271.789 345.488 270.405 344.695 269.232C344.611 269.113 344.552 268.979 344.522 268.837C344.491 268.695 344.488 268.548 344.515 268.405C344.541 268.263 344.595 268.127 344.675 268.005C344.755 267.884 344.857 267.779 344.978 267.698C345.098 267.617 345.233 267.56 345.376 267.532C345.518 267.504 345.665 267.504 345.807 267.533C345.949 267.562 346.084 267.619 346.204 267.701C346.324 267.782 346.427 267.887 346.506 268.009C347.542 269.544 348.093 271.354 348.088 273.205V274.925C348.088 275.213 347.974 275.49 347.77 275.695C347.567 275.9 347.291 276.016 347.003 276.018Z" fill="#263238"/>
<path d="M324.627 280.817C324.055 280.817 323.507 280.59 323.103 280.186C322.699 279.781 322.472 279.233 322.472 278.662V275.231C322.472 274.659 322.699 274.111 323.103 273.707C323.507 273.303 324.055 273.076 324.627 273.076C325.198 273.076 325.746 273.303 326.151 273.707C326.555 274.111 326.782 274.659 326.782 275.231V278.662C326.78 279.233 326.552 279.78 326.148 280.183C325.745 280.587 325.198 280.815 324.627 280.817Z" fill="white" stroke="#263238" stroke-width="1.26862" stroke-linecap="round" stroke-linejoin="round"/>
<path d="M324.848 273.076H324.405V280.809H324.848V273.076Z" fill="#146FB8" stroke="#263238" stroke-width="1.26862" stroke-linecap="round" stroke-linejoin="round"/>
<path d="M348.76 275.231C348.76 274.04 347.796 273.076 346.605 273.076C345.415 273.076 344.45 274.04 344.45 275.231V278.654C344.45 279.844 345.415 280.809 346.605 280.809C347.796 280.809 348.76 279.844 348.76 278.654V275.231Z" fill="white" stroke="#263238" stroke-width="1.26862" stroke-linecap="round" stroke-linejoin="round"/>
<path d="M346.827 273.076H346.384V280.809H346.827V273.076Z" fill="#146FB8" stroke="#263238" stroke-width="1.26862" stroke-linecap="round" stroke-linejoin="round"/>
<path d="M335.731 272.372C336.49 272.369 337.237 272.178 337.904 271.815C338.571 271.452 339.137 270.93 339.552 270.294L340.492 268.842C339.002 268.02 337.325 267.594 335.623 267.606C333.921 267.618 332.25 268.067 330.772 268.911L332.178 270.668C332.606 271.199 333.147 271.627 333.762 271.922C334.377 272.216 335.05 272.37 335.731 272.372Z" fill="#146FB8" stroke="#263238" stroke-width="1.26862" stroke-linecap="round" stroke-linejoin="round"/>
<path d="M335.807 281.78C335.896 281.78 335.968 281.708 335.968 281.619C335.968 281.53 335.896 281.459 335.807 281.459C335.719 281.459 335.647 281.53 335.647 281.619C335.647 281.708 335.719 281.78 335.807 281.78Z" fill="#263238"/>
<path d="M335.807 282.345C335.896 282.345 335.968 282.273 335.968 282.185C335.968 282.096 335.896 282.024 335.807 282.024C335.719 282.024 335.647 282.096 335.647 282.185C335.647 282.273 335.719 282.345 335.807 282.345Z" fill="#263238"/>
<path d="M335.333 282.093C335.374 282.081 335.408 282.053 335.428 282.016C335.448 281.978 335.452 281.935 335.44 281.894C335.425 281.854 335.395 281.822 335.357 281.802C335.32 281.782 335.276 281.777 335.234 281.787C335.195 281.801 335.162 281.829 335.142 281.866C335.123 281.903 335.117 281.946 335.127 281.986C335.133 282.007 335.143 282.026 335.157 282.043C335.171 282.06 335.188 282.074 335.207 282.084C335.227 282.094 335.248 282.1 335.269 282.101C335.291 282.103 335.313 282.1 335.333 282.093Z" fill="#263238"/>
<path d="M336.335 282.093C336.375 282.08 336.409 282.053 336.429 282.015C336.449 281.978 336.454 281.935 336.442 281.894C336.428 281.853 336.398 281.819 336.36 281.799C336.321 281.779 336.277 281.775 336.235 281.787C336.215 281.793 336.197 281.803 336.181 281.817C336.165 281.83 336.152 281.847 336.143 281.865C336.134 281.884 336.128 281.904 336.127 281.925C336.126 281.946 336.129 281.966 336.136 281.986C336.141 282.006 336.151 282.026 336.164 282.042C336.177 282.059 336.193 282.073 336.212 282.083C336.23 282.093 336.251 282.099 336.272 282.101C336.293 282.103 336.315 282.1 336.335 282.093Z" fill="#263238"/>
<path d="M254.711 314.716H315.518V276.048V268.865L308.327 276.048H254.711V314.716Z" fill="#146FB8" stroke="#263238" stroke-width="1.26862" stroke-linecap="round" stroke-linejoin="round"/>
<path d="M295.313 284.989H309.626" stroke="#263238" stroke-width="1.26862" stroke-linecap="round" stroke-linejoin="round"/>
<path d="M275.283 284.989H291.637" stroke="#263238" stroke-width="1.26862" stroke-linecap="round" stroke-linejoin="round"/>
<path d="M263.018 284.989H272.418" stroke="#263238" stroke-width="1.26862" stroke-linecap="round" stroke-linejoin="round"/>
<path d="M288.771 289.49H309.626" stroke="#263238" stroke-width="1.26862" stroke-linecap="round" stroke-linejoin="round"/>
<path d="M263.018 289.49H285.096" stroke="#263238" stroke-width="1.26862" stroke-linecap="round" stroke-linejoin="round"/>
<path d="M305.538 293.984H309.626" stroke="#263238" stroke-width="1.26862" stroke-linecap="round" stroke-linejoin="round"/>
<path d="M282.642 293.984H302.267" stroke="#263238" stroke-width="1.26862" stroke-linecap="round" stroke-linejoin="round"/>
<path d="M263.018 293.984H279.372" stroke="#263238" stroke-width="1.26862" stroke-linecap="round" stroke-linejoin="round"/>
<path d="M295.313 297.667H309.626" stroke="#263238" stroke-width="1.26862" stroke-linecap="round" stroke-linejoin="round"/>
<path d="M275.283 297.667H291.637" stroke="#263238" stroke-width="1.26862" stroke-linecap="round" stroke-linejoin="round"/>
<path d="M263.018 297.667H272.418" stroke="#263238" stroke-width="1.26862" stroke-linecap="round" stroke-linejoin="round"/>
<path d="M288.771 302.16H309.626" stroke="#263238" stroke-width="1.26862" stroke-linecap="round" stroke-linejoin="round"/>
<path d="M263.018 302.16H285.096" stroke="#263238" stroke-width="1.26862" stroke-linecap="round" stroke-linejoin="round"/>
<path d="M305.538 306.654H309.626" stroke="#263238" stroke-width="1.26862" stroke-linecap="round" stroke-linejoin="round"/>
<path d="M282.642 306.654H302.267" stroke="#263238" stroke-width="1.26862" stroke-linecap="round" stroke-linejoin="round"/>
<path d="M263.018 306.654H279.372" stroke="#263238" stroke-width="1.26862" stroke-linecap="round" stroke-linejoin="round"/>
<path d="M346.178 42.4736H314.632C314.301 44.2207 313.372 45.7977 312.003 46.9332C310.635 48.0686 308.913 48.6913 307.135 48.6941H261.972C260.194 48.6913 258.472 48.0686 257.104 46.9332C255.735 45.7977 254.806 44.2207 254.475 42.4736H222.967C220.333 42.4736 217.806 43.5202 215.943 45.3833C214.08 47.2464 213.033 49.7733 213.033 52.408V319.11C213.033 321.745 214.08 324.272 215.943 326.135C217.806 327.998 220.333 329.045 222.967 329.045H346.178C348.813 329.045 351.339 327.998 353.202 326.135C355.066 324.272 356.112 321.745 356.112 319.11V52.408C356.112 49.7733 355.066 47.2464 353.202 45.3833C351.339 43.5202 348.813 42.4736 346.178 42.4736Z" stroke="#263238" stroke-width="2.53723" stroke-linecap="round" stroke-linejoin="round"/>
<path d="M356.112 60.4702V52.4157C356.112 49.7809 355.066 47.254 353.202 45.391C351.339 43.5279 348.813 42.4812 346.178 42.4812H314.632C314.301 44.2283 313.372 45.8054 312.003 46.9408C310.635 48.0762 308.913 48.699 307.135 48.7017H261.972C260.193 48.6986 258.47 48.0748 257.102 46.9379C255.733 45.8009 254.804 44.2221 254.475 42.4736H222.967C220.333 42.4736 217.806 43.5202 215.943 45.3833C214.08 47.2464 213.033 49.7733 213.033 52.408V60.4702H356.112Z" stroke="#263238" stroke-width="2.53723" stroke-linecap="round" stroke-linejoin="round"/>
<path d="M226.139 49.6723C226.139 51.6286 223.938 52.3317 223.93 53.8219V53.9212H226.062V54.5861H223.22V54.0282C223.22 51.9649 225.436 51.5217 225.436 49.6723C225.436 48.9998 225.214 48.6483 224.672 48.6483C224.129 48.6483 223.907 49.0304 223.907 49.6035V50.1767H223.235V49.6723C223.235 48.6789 223.686 48.0217 224.687 48.0217C225.688 48.0217 226.139 48.6789 226.139 49.6723Z" fill="#263238"/>
<path d="M229.684 49.6724V49.8405C229.717 50.1149 229.66 50.3924 229.522 50.632C229.385 50.8716 229.173 51.0603 228.92 51.1702C229.176 51.2808 229.389 51.472 229.527 51.7147C229.665 51.9574 229.72 52.2384 229.684 52.5152V53.0119C229.684 54.0053 229.218 54.6549 228.224 54.6549C227.231 54.6549 226.765 54.0053 226.765 53.0119V52.5687H227.445V53.0577C227.445 53.6462 227.682 53.9977 228.209 53.9977C228.736 53.9977 228.973 53.6538 228.973 52.9966V52.4999C228.973 51.858 228.698 51.5523 228.156 51.5294H227.728V50.8874H228.156C228.268 50.8891 228.379 50.866 228.481 50.8197C228.584 50.7734 228.675 50.7052 228.748 50.6198C228.821 50.5345 228.874 50.4341 228.904 50.3258C228.933 50.2175 228.939 50.104 228.92 49.9933V49.6724C228.92 49.0075 228.683 48.6637 228.156 48.6637C227.628 48.6637 227.391 49.0228 227.391 49.6112V49.9475H226.711V49.6724C226.711 48.6789 227.177 48.037 228.171 48.037C229.164 48.037 229.684 48.6713 229.684 49.6724Z" fill="#263238"/>
<path d="M231.082 50.1537V51.0555H230.387V50.1537H231.082ZM231.082 53.6843V54.586H230.387V53.6843H231.082Z" fill="#263238"/>
<path d="M232.55 50.7346C232.645 50.5647 232.785 50.4247 232.955 50.3302C233.125 50.2357 233.319 50.1905 233.513 50.1996C234.346 50.1996 234.72 50.811 234.72 51.728V52.9966C234.72 53.99 234.247 54.6396 233.253 54.6396C232.26 54.6396 231.801 53.99 231.801 52.9966V52.561H232.474V53.0424C232.474 53.6308 232.718 53.9824 233.238 53.9824C233.757 53.9824 234.002 53.6308 234.002 53.0424V51.7968C234.002 51.2084 233.765 50.8568 233.238 50.8568C233.141 50.8472 233.043 50.858 232.95 50.8886C232.858 50.9193 232.773 50.9689 232.701 51.0345C232.629 51.1001 232.571 51.18 232.532 51.2692C232.493 51.3584 232.473 51.4548 232.474 51.5523V51.6974H231.793L231.969 48.0981H234.529V48.7477H232.619L232.55 50.7346Z" fill="#263238"/>
<path d="M238.32 49.6725V49.7871H237.662V49.619C237.662 49.0382 237.418 48.6943 236.898 48.6943C236.378 48.6943 236.134 49.0459 236.134 49.7413V51.2009C236.209 50.9866 236.351 50.8026 236.54 50.677C236.729 50.5514 236.954 50.4912 237.181 50.5055C238.014 50.5055 238.388 51.1015 238.388 52.0338V53.012C238.388 54.0055 237.899 54.655 236.906 54.655C235.912 54.655 235.37 53.9978 235.37 53.0044V49.6725C235.37 48.6408 235.828 47.9989 236.86 47.9989C237.892 47.9989 238.32 48.6638 238.32 49.6725ZM236.088 52.095V53.0655C236.088 53.6539 236.333 54.0055 236.852 54.0055C237.372 54.0055 237.616 53.6539 237.616 53.0655V52.0797C237.616 51.4989 237.364 51.1474 236.852 51.1474C236.34 51.1474 236.088 51.4989 236.088 52.0797V52.095Z" fill="#263238"/>
<path d="M318.415 49.9397H316.581V54.5172H318.415V49.9397Z" fill="#263238"/>
<path d="M320.86 49.0228H319.026V54.5173H320.86V49.0228Z" fill="#263238"/>
<path d="M323.297 48.3733H321.463V54.5173H323.297V48.3733Z" fill="#263238"/>
<path d="M325.744 47.2346H323.91V54.5173H325.744V47.2346Z" fill="#263238"/>
<path d="M348.402 54.3873H337.413V47.6777H348.402V54.3873ZM338.024 53.7836H347.79V48.2891H338.024V53.7836Z" fill="#263238"/>
<path d="M344.741 48.954H338.941V53.1188H344.741V48.954Z" fill="#263238"/>
<path d="M349.403 50.2453H348.019V51.8271H349.403V50.2453Z" fill="#263238"/>
<path d="M333.385 52.9278C333.312 52.9291 333.241 52.9106 333.178 52.8743C330.939 51.5446 329.464 52.775 329.403 52.8285C329.363 52.8689 329.316 52.9006 329.263 52.9218C329.21 52.9429 329.154 52.9529 329.097 52.9513C329.041 52.9496 328.985 52.9363 328.934 52.9121C328.882 52.888 328.836 52.8535 328.799 52.8108C328.762 52.7681 328.733 52.7182 328.716 52.6642C328.699 52.6102 328.693 52.5531 328.699 52.4967C328.705 52.4403 328.722 52.3856 328.75 52.3362C328.778 52.2868 328.815 52.2436 328.861 52.2095C328.937 52.1407 330.832 50.5206 333.599 52.1636C333.69 52.2219 333.756 52.3133 333.781 52.4187C333.807 52.5241 333.791 52.6353 333.736 52.7291C333.7 52.7901 333.649 52.8405 333.587 52.8754C333.525 52.9103 333.456 52.9283 333.385 52.9278Z" fill="#263238"/>
<path d="M334.21 51.5523C334.137 51.5509 334.066 51.5298 334.004 51.4911C330.771 49.573 328.593 51.43 328.57 51.4453C328.53 51.4804 328.484 51.5073 328.433 51.5244C328.383 51.5415 328.329 51.5484 328.276 51.5449C328.223 51.5413 328.171 51.5273 328.123 51.5037C328.075 51.4801 328.032 51.4472 327.997 51.4071C327.962 51.3669 327.935 51.3203 327.918 51.2697C327.901 51.2192 327.894 51.1658 327.898 51.1126C327.901 51.0594 327.915 51.0074 327.939 50.9596C327.963 50.9118 327.995 50.8691 328.036 50.8339C328.036 50.8339 330.68 48.5414 334.424 50.7881C334.517 50.845 334.584 50.9365 334.61 51.0425C334.635 51.1484 334.618 51.2603 334.562 51.3536C334.525 51.414 334.473 51.4641 334.412 51.4989C334.35 51.5337 334.281 51.5521 334.21 51.5523Z" fill="#263238"/>
<path d="M334.967 49.955C334.891 49.9535 334.817 49.9324 334.753 49.8938C330.657 47.4637 327.936 49.7563 327.821 49.8556C327.738 49.9184 327.634 49.9474 327.531 49.9368C327.427 49.9262 327.331 49.8767 327.262 49.7983C327.194 49.7199 327.157 49.6184 327.16 49.5143C327.163 49.4101 327.206 49.3109 327.279 49.2366C327.317 49.2366 330.55 46.4397 335.173 49.1908C335.22 49.2184 335.26 49.2549 335.293 49.2982C335.326 49.3416 335.349 49.3909 335.363 49.4434C335.376 49.496 335.379 49.5506 335.372 49.6043C335.364 49.658 335.346 49.7096 335.318 49.7563C335.281 49.8163 335.229 49.8659 335.168 49.9006C335.106 49.9353 335.037 49.954 334.967 49.955Z" fill="#263238"/>
<path d="M332.147 53.6157C332.149 53.8204 332.089 54.0209 331.976 54.1917C331.864 54.3626 331.703 54.496 331.514 54.575C331.325 54.654 331.117 54.6751 330.916 54.6355C330.715 54.596 330.531 54.4976 330.386 54.3528C330.241 54.2081 330.143 54.0236 330.103 53.8227C330.064 53.6219 330.085 53.4138 330.164 53.225C330.243 53.0362 330.376 52.8752 330.547 52.7624C330.718 52.6496 330.918 52.5902 331.123 52.5917C331.395 52.5917 331.655 52.6996 331.847 52.8916C332.039 53.0837 332.147 53.3441 332.147 53.6157Z" fill="#263238"/>
<path d="M344.649 341.219H360.697" stroke="#263238" stroke-width="1.26862" stroke-linecap="round" stroke-linejoin="round"/>
<path d="M42.0299 341.219H339.3" stroke="#263238" stroke-width="1.26862" stroke-linecap="round" stroke-linejoin="round"/>
<path d="M21.1293 341.218H32.0954" stroke="#263238" stroke-width="1.26862" stroke-linecap="round" stroke-linejoin="round"/>
<path d="M131.196 238.305H119.519V339.789H131.196V238.305Z" fill="#263238" stroke="#263238" stroke-width="1.26862" stroke-linecap="round" stroke-linejoin="round"/>
<path d="M38.6064 275.055V282.193H85.1456V275.055H38.6064Z" fill="#263238" stroke="#263238" stroke-width="1.26862" stroke-linecap="round" stroke-linejoin="round"/>
<path d="M43.3905 250.417H36.2529V278.975H43.3905V250.417Z" fill="#263238" stroke="#263238" stroke-width="1.26862" stroke-linecap="round" stroke-linejoin="round"/>
<path d="M46.363 279.097C46.363 279.956 46.1938 280.806 45.8649 281.599C45.5361 282.393 45.0541 283.113 44.4466 283.72C43.8391 284.327 43.1179 284.808 42.3243 285.136C41.5307 285.464 40.6802 285.632 39.8216 285.631C39.6076 285.631 39.3936 285.631 39.1873 285.631C37.997 285.513 36.8618 285.072 35.9051 284.354C34.9484 283.636 34.2068 282.67 33.7609 281.56C33.3151 280.45 33.182 279.239 33.3763 278.059C33.5705 276.879 34.0846 275.774 34.8626 274.866C35.6406 273.958 36.6528 273.28 37.7891 272.907C38.9254 272.533 40.1423 272.479 41.3075 272.749C42.4726 273.019 43.5415 273.603 44.3978 274.438C45.2541 275.273 45.8651 276.327 46.1643 277.485C46.2948 278.012 46.3615 278.554 46.363 279.097Z" fill="white" stroke="#263238" stroke-width="1.26862" stroke-linecap="round" stroke-linejoin="round"/>
<path d="M46.8443 254.819C46.8403 256.552 46.1496 258.213 44.9235 259.438C43.6974 260.662 42.0358 261.351 40.3029 261.353C40.0889 261.353 39.8749 261.353 39.661 261.353C38.4701 261.239 37.3334 260.8 36.3744 260.085C35.4155 259.37 34.671 258.406 34.2219 257.297C33.7729 256.188 33.6366 254.977 33.8277 253.796C34.0188 252.615 34.5301 251.51 35.306 250.599C36.0818 249.688 37.0926 249.008 38.2282 248.632C39.3638 248.256 40.5808 248.198 41.7468 248.465C42.9129 248.733 43.9833 249.315 44.8416 250.148C45.6999 250.981 46.3133 252.034 46.6151 253.192C46.7619 253.722 46.8389 254.269 46.8443 254.819Z" fill="white" stroke="#263238" stroke-width="1.26862" stroke-linecap="round" stroke-linejoin="round"/>
<path d="M58.5573 237.09L49.0432 242.212L51.0141 245.873L60.5282 240.75L58.5573 237.09Z" fill="#263238" stroke="#263238" stroke-width="1.26862" stroke-linecap="round" stroke-linejoin="round"/>
<path d="M62.1056 241.148L57.4212 243.67L54.4255 238.114L59.1177 235.584C59.4858 235.383 59.8906 235.256 60.3083 235.213C60.7259 235.17 61.148 235.211 61.5496 235.334C61.9512 235.456 62.3242 235.658 62.6467 235.927C62.9693 236.195 63.2348 236.526 63.4277 236.899C63.8112 237.639 63.8874 238.5 63.6399 239.295C63.3924 240.091 62.841 240.756 62.1056 241.148Z" fill="white" stroke="#263238" stroke-width="1.26862" stroke-linecap="round" stroke-linejoin="round"/>
<path d="M41.571 217.588L41.2348 236.967L37.0852 236.899L37.4138 217.519L41.571 217.588Z" fill="#263238" stroke="#263238" stroke-width="1.26862" stroke-linecap="round" stroke-linejoin="round"/>
<path d="M42.6952 216.419L42.6112 221.768L36.299 221.615L36.383 216.266C36.39 215.851 36.4785 215.442 36.6436 215.062C36.8087 214.682 37.0471 214.338 37.3451 214.05C37.6432 213.762 37.995 213.535 38.3807 213.383C38.7663 213.231 39.1781 213.156 39.5926 213.163C40.0114 213.169 40.4247 213.258 40.8085 213.426C41.1923 213.594 41.5388 213.836 41.8277 214.139C42.1167 214.442 42.3422 214.8 42.4912 215.192C42.6401 215.583 42.7095 216 42.6952 216.419Z" fill="white" stroke="#263238" stroke-width="1.26862" stroke-linecap="round" stroke-linejoin="round"/>
<path d="M57.0995 224.618L47.9827 241.721L44.3146 239.772L53.4237 222.67L57.0995 224.618Z" fill="#263238" stroke="#263238" stroke-width="1.26862" stroke-linecap="round" stroke-linejoin="round"/>
<path d="M58.6279 224.091L56.129 228.791L50.5581 225.834L53.0494 221.126C53.4435 220.389 54.1131 219.838 54.912 219.594C55.7109 219.349 56.5743 219.43 57.3135 219.819C58.0537 220.212 58.6077 220.883 58.8541 221.683C59.1006 222.484 59.0192 223.35 58.6279 224.091Z" fill="white" stroke="#263238" stroke-width="1.26862" stroke-linecap="round" stroke-linejoin="round"/>
<path d="M26.8377 224.542L35.8705 241.69L32.1947 243.632L23.162 226.483L26.8377 224.542Z" fill="#263238" stroke="#263238" stroke-width="1.26862" stroke-linecap="round" stroke-linejoin="round"/>
<path d="M35.3127 236.975C35.1788 236.182 34.8125 235.447 34.2604 234.862C33.7082 234.277 32.9949 233.869 32.2107 233.689C31.4266 233.51 30.6069 233.567 29.8553 233.854C29.1037 234.14 28.454 234.644 27.9885 235.3C27.523 235.956 27.2625 236.735 27.2401 237.539C27.2177 238.343 27.4343 239.136 27.8625 239.817C28.2908 240.498 28.9114 241.036 29.6459 241.364C30.3803 241.692 31.1956 241.795 31.9885 241.66C33.0501 241.478 33.9963 240.883 34.6195 240.005C35.2428 239.127 35.4921 238.037 35.3127 236.975Z" fill="white" stroke="#263238" stroke-width="1.26862" stroke-linecap="round" stroke-linejoin="round"/>
<path d="M39.2861 237.51C41.5314 237.51 43.3516 235.69 43.3516 233.444C43.3516 231.199 41.5314 229.379 39.2861 229.379C37.0408 229.379 35.2206 231.199 35.2206 233.444C35.2206 235.69 37.0408 237.51 39.2861 237.51Z" fill="white" stroke="#263238" stroke-width="1.26862" stroke-linecap="round" stroke-linejoin="round"/>
<path d="M52.5528 235.791C52.6751 234.996 52.5589 234.182 52.2189 233.454C51.8788 232.725 51.3302 232.113 50.6424 231.696C49.9546 231.279 49.1586 231.075 48.3551 231.111C47.5516 231.146 46.7766 231.419 46.1283 231.895C45.48 232.372 44.9875 233.029 44.7131 233.785C44.4386 234.541 44.3946 235.362 44.5867 236.143C44.7787 236.924 45.198 237.63 45.7917 238.173C46.3854 238.716 47.1267 239.07 47.9218 239.191C48.4492 239.273 48.9876 239.249 49.506 239.123C50.0243 238.996 50.5126 238.768 50.9428 238.452C51.3729 238.136 51.7366 237.738 52.0128 237.282C52.2891 236.825 52.4726 236.318 52.5528 235.791Z" fill="white" stroke="#263238" stroke-width="1.26862" stroke-linecap="round" stroke-linejoin="round"/>
<path d="M27.2584 222.975L29.7497 227.683L24.1711 230.64L21.6798 225.925C21.4853 225.559 21.3649 225.158 21.3257 224.745C21.2864 224.333 21.3291 223.916 21.4512 223.52C21.5733 223.124 21.7725 222.756 22.0373 222.437C22.3021 222.118 22.6273 221.854 22.9942 221.661C23.7345 221.272 24.5985 221.192 25.3975 221.438C26.1966 221.685 26.8656 222.237 27.2584 222.975Z" fill="white" stroke="#263238" stroke-width="1.26862" stroke-linecap="round" stroke-linejoin="round"/>
<path d="M51.773 244.824C51.773 247.864 50.5653 250.779 48.4156 252.929C46.2659 255.079 43.3503 256.286 40.3102 256.286C39.9281 256.286 39.546 256.286 39.1868 256.241C37.1016 256.034 35.113 255.26 33.4371 254.002C31.7611 252.744 30.462 251.051 29.6809 249.107C28.8998 247.162 28.6666 245.041 29.0067 242.973C29.3468 240.906 30.2471 238.971 31.6097 237.379C32.9724 235.787 34.7454 234.6 36.7358 233.945C38.7263 233.29 40.8582 233.193 42.8997 233.665C44.9413 234.137 46.8144 235.16 48.3154 236.622C49.8165 238.084 50.8881 239.93 51.4138 241.958C51.6508 242.895 51.7715 243.857 51.773 244.824Z" fill="white" stroke="#263238" stroke-width="1.26862" stroke-linecap="round" stroke-linejoin="round"/>
<path d="M51.773 244.823C51.773 247.863 50.5653 250.779 48.4156 252.929C46.2659 255.078 43.3503 256.286 40.3101 256.286C39.928 256.286 39.5459 256.286 39.1868 256.24C38.7476 254.544 38.7031 252.77 39.0565 251.054C39.41 249.338 40.1521 247.726 41.2258 246.342C42.2995 244.957 43.6763 243.838 45.2503 243.068C46.8243 242.299 48.5538 241.901 50.3057 241.904C50.6802 241.904 51.0699 241.904 51.4291 241.958C51.6609 242.895 51.7764 243.858 51.773 244.823Z" fill="white" stroke="#263238" stroke-width="1.26862" stroke-linecap="round" stroke-linejoin="round"/>
<path d="M109.493 279.304C111.439 270.986 106.274 262.666 97.9566 260.72C89.639 258.773 81.3185 263.938 79.3722 272.256C77.4259 280.574 82.5909 288.894 90.9085 290.84C99.2261 292.787 107.547 287.622 109.493 279.304Z" fill="white" stroke="#263238" stroke-width="1.26862" stroke-linecap="round" stroke-linejoin="round"/>
<path d="M97.3064 282.697C101.128 281.103 102.933 276.713 101.34 272.892C99.7459 269.071 95.3561 267.265 91.5349 268.859C87.7136 270.452 85.9079 274.842 87.5016 278.663C89.0954 282.485 93.4852 284.29 97.3064 282.697Z" fill="#263238" stroke="#263238" stroke-width="1.26862" stroke-linecap="round" stroke-linejoin="round"/>
<path d="M91.7715 341.218H160.396L161.381 336.572C161.777 334.716 161.422 332.779 160.394 331.184C159.366 329.589 157.748 328.466 155.895 328.059C146.166 325.874 125.105 325.086 125.105 325.086C120.031 325.247 105.909 325.851 96.1809 328.067C94.3402 328.487 92.739 329.615 91.7236 331.207C90.7082 332.798 90.3603 334.726 90.7551 336.572L91.7715 341.218Z" fill="white" stroke="#263238" stroke-width="1.26862" stroke-linecap="round" stroke-linejoin="round"/>
<path d="M142.598 326.217C133.81 325.407 125.128 325.086 125.128 325.086C121.934 325.186 115.148 325.469 108.133 326.217C110.181 333.21 117.12 338.36 125.365 338.36C133.611 338.36 140.55 333.187 142.598 326.217Z" fill="#146FB8" stroke="#263238" stroke-width="1.26862" stroke-linecap="round" stroke-linejoin="round"/>
<path d="M197.041 308.451L201.309 302.73L164.01 274.898L159.741 280.618L197.041 308.451Z" fill="#263238" stroke="#263238" stroke-width="1.26862" stroke-linecap="round" stroke-linejoin="round"/>
<path d="M178.478 325.338L184.199 329.607L201.278 306.719L195.557 302.45L178.478 325.338Z" fill="#263238" stroke="#263238" stroke-width="1.26862" stroke-linecap="round" stroke-linejoin="round"/>
<path d="M193.24 300.571C193.755 299.881 194.4 299.3 195.14 298.86C195.879 298.419 196.698 298.129 197.55 298.006C198.402 297.882 199.269 297.928 200.103 298.14C200.937 298.352 201.721 298.726 202.411 299.241L202.907 299.646C203.791 300.453 204.437 301.486 204.775 302.633C205.112 303.781 205.129 304.999 204.822 306.155C204.516 307.312 203.898 308.362 203.036 309.192C202.175 310.021 201.102 310.599 199.935 310.861C198.768 311.124 197.551 311.061 196.417 310.681C195.283 310.3 194.275 309.616 193.503 308.702C192.731 307.788 192.224 306.68 192.037 305.499C191.851 304.317 191.992 303.107 192.446 302C192.651 301.493 192.918 301.013 193.24 300.571Z" fill="white" stroke="#263238" stroke-width="1.26862" stroke-linecap="round" stroke-linejoin="round"/>
<path d="M178.316 318.858C179.285 317.419 180.786 316.424 182.488 316.092C184.191 315.759 185.955 316.117 187.394 317.085C187.57 317.2 187.738 317.33 187.906 317.46C188.829 318.221 189.525 319.221 189.919 320.351C190.313 321.481 190.39 322.697 190.141 323.867C189.891 325.037 189.326 326.116 188.506 326.987C187.687 327.859 186.644 328.488 185.491 328.808C184.338 329.128 183.12 329.125 181.968 328.801C180.817 328.476 179.776 327.842 178.96 326.968C178.144 326.093 177.583 325.011 177.339 323.84C177.094 322.669 177.176 321.454 177.575 320.326C177.76 319.808 178.009 319.315 178.316 318.858Z" fill="white" stroke="#263238" stroke-width="1.26862" stroke-linecap="round" stroke-linejoin="round"/>
<path d="M158.673 327.045L169.427 328.101L169.833 323.964L159.079 322.908L158.673 327.045Z" fill="#263238" stroke="#263238" stroke-width="1.26862" stroke-linecap="round" stroke-linejoin="round"/>
<path d="M158.018 321.724L163.322 322.244L162.703 328.525L157.399 328.006C156.566 327.924 155.8 327.516 155.268 326.869C154.736 326.223 154.483 325.392 154.564 324.559C154.647 323.725 155.057 322.959 155.705 322.427C156.352 321.896 157.184 321.643 158.018 321.724Z" fill="white" stroke="#263238" stroke-width="1.26862" stroke-linecap="round" stroke-linejoin="round"/>
<path d="M168.641 324.399C169.481 323.147 170.559 322.073 171.815 321.239C173.07 320.405 174.478 319.826 175.957 319.536C177.436 319.247 178.958 319.252 180.435 319.551C181.913 319.85 183.317 320.438 184.567 321.281C184.88 321.495 185.178 321.716 185.468 321.953C187.084 323.288 188.303 325.041 188.992 327.02C189.681 329 189.814 331.13 189.377 333.18C188.94 335.23 187.949 337.121 186.512 338.647C185.076 340.173 183.248 341.276 181.228 341.836C179.209 342.395 177.074 342.391 175.057 341.822C173.039 341.254 171.217 340.143 169.786 338.611C168.356 337.079 167.374 335.184 166.945 333.132C166.517 331.08 166.659 328.95 167.357 326.974C167.673 326.064 168.105 325.199 168.641 324.399Z" fill="white" stroke="#263238" stroke-width="1.26862" stroke-linecap="round" stroke-linejoin="round"/>
<path d="M156.292 336.305L170.506 325.675L172.79 328.724L158.577 339.346L156.292 336.305Z" fill="#263238" stroke="#263238" stroke-width="1.26862" stroke-linecap="round" stroke-linejoin="round"/>
<path d="M154.817 336.144L158.722 333.187L162.192 337.772L158.287 340.699C157.673 341.158 156.903 341.354 156.145 341.246C155.387 341.137 154.703 340.731 154.244 340.118C153.804 339.511 153.617 338.757 153.724 338.015C153.831 337.273 154.223 336.602 154.817 336.144Z" fill="white" stroke="#263238" stroke-width="1.26862" stroke-linecap="round" stroke-linejoin="round"/>
<path d="M174.648 328.953C174.828 328.168 174.772 327.347 174.485 326.595C174.199 325.842 173.695 325.192 173.038 324.726C172.382 324.26 171.601 323.999 170.796 323.977C169.991 323.956 169.198 324.173 168.517 324.603C167.835 325.033 167.297 325.655 166.97 326.391C166.643 327.127 166.543 327.944 166.68 328.737C166.818 329.53 167.188 330.265 167.744 330.848C168.3 331.43 169.017 331.835 169.803 332.01C170.85 332.243 171.948 332.052 172.855 331.48C173.763 330.907 174.407 329.999 174.648 328.953Z" fill="white" stroke="#263238" stroke-width="1.26862" stroke-linecap="round" stroke-linejoin="round"/>
<path d="M182.182 346.988L184.292 332.407L187.417 332.851L185.316 347.431L182.182 346.988Z" fill="#263238" stroke="#263238" stroke-width="1.26862" stroke-linecap="round" stroke-linejoin="round"/>
<path d="M181.227 347.76L181.8 343.748L186.546 344.428L185.973 348.432C185.928 348.745 185.823 349.045 185.663 349.316C185.503 349.588 185.291 349.825 185.039 350.015C184.787 350.204 184.5 350.342 184.195 350.421C183.89 350.499 183.572 350.517 183.26 350.473C182.631 350.382 182.063 350.045 181.682 349.537C181.301 349.028 181.137 348.389 181.227 347.76Z" fill="white" stroke="#263238" stroke-width="1.26862" stroke-linecap="round" stroke-linejoin="round"/>
<path d="M188.64 331.895C188.28 331.335 187.762 330.893 187.152 330.627C186.541 330.36 185.866 330.281 185.21 330.398C184.554 330.516 183.948 330.825 183.468 331.286C182.988 331.748 182.655 332.342 182.512 332.992C182.369 333.643 182.422 334.321 182.665 334.942C182.907 335.562 183.328 336.097 183.874 336.478C184.42 336.86 185.067 337.071 185.733 337.085C186.399 337.099 187.054 336.915 187.616 336.557C188.369 336.074 188.9 335.312 189.092 334.438C189.284 333.564 189.122 332.649 188.64 331.895Z" fill="white" stroke="#263238" stroke-width="1.26862" stroke-linecap="round" stroke-linejoin="round"/>
<path d="M168.114 345.047L177.59 330.038L180.807 332.056L171.339 347.072L168.114 345.047Z" fill="#263238" stroke="#263238" stroke-width="1.26862" stroke-linecap="round" stroke-linejoin="round"/>
<path d="M166.685 345.414L169.276 341.287L174.174 344.344L171.576 348.478C171.167 349.125 170.519 349.584 169.773 349.754C169.027 349.925 168.243 349.793 167.594 349.388C166.948 348.98 166.49 348.333 166.319 347.589C166.149 346.844 166.28 346.062 166.685 345.414Z" fill="white" stroke="#263238" stroke-width="1.26862" stroke-linecap="round" stroke-linejoin="round"/>
<path d="M182.641 331.612C182.528 330.817 182.181 330.072 181.644 329.474C181.107 328.876 180.404 328.451 179.626 328.252C178.847 328.054 178.026 328.091 177.269 328.36C176.511 328.628 175.85 329.116 175.37 329.76C174.89 330.405 174.612 331.178 174.571 331.98C174.531 332.783 174.73 333.58 175.143 334.269C175.556 334.959 176.164 335.511 176.891 335.854C177.618 336.197 178.43 336.317 179.225 336.198C180.285 336.041 181.24 335.47 181.88 334.611C182.521 333.751 182.794 332.673 182.641 331.612Z" fill="white" stroke="#263238" stroke-width="1.26862" stroke-linecap="round" stroke-linejoin="round"/>
<path d="M165.086 289.054C172.269 284.43 174.344 274.859 169.72 267.677C165.096 260.494 155.525 258.419 148.342 263.043C141.16 267.667 139.085 277.238 143.709 284.42C148.332 291.603 157.903 293.678 165.086 289.054Z" fill="white" stroke="#263238" stroke-width="1.26862" stroke-linecap="round" stroke-linejoin="round"/>
<path d="M163.535 279.18C165.261 275.416 163.609 270.966 159.846 269.24C156.083 267.514 151.633 269.165 149.906 272.929C148.18 276.692 149.832 281.142 153.595 282.868C157.358 284.594 161.808 282.943 163.535 279.18Z" fill="#263238" stroke="#263238" stroke-width="1.26862" stroke-linecap="round" stroke-linejoin="round"/>
<path d="M125.357 245.397C139.078 245.397 150.201 234.274 150.201 220.553C150.201 206.832 139.078 195.709 125.357 195.709C111.636 195.709 100.513 206.832 100.513 220.553C100.513 234.274 111.636 245.397 125.357 245.397Z" fill="#146FB8" stroke="#263238" stroke-width="1.26862" stroke-linecap="round" stroke-linejoin="round"/>
<path d="M160.877 237.097C166.213 230.408 169.552 222.349 170.51 213.846C171.469 205.344 170.008 196.743 166.296 189.034C162.584 181.325 156.771 174.82 149.526 170.268C142.281 165.715 133.899 163.3 125.342 163.3C116.786 163.3 108.403 165.715 101.159 170.268C93.9137 174.82 88.101 181.325 84.3889 189.034C80.6767 196.743 79.216 205.344 80.1745 213.846C81.1331 222.349 84.4721 230.408 89.8076 237.097H160.877Z" fill="white" stroke="#263238" stroke-width="1.26862" stroke-linecap="round" stroke-linejoin="round"/>
<path d="M153.158 191.598H96.4096C92.9573 191.598 90.1586 194.397 90.1586 197.849V217.963C90.1586 221.415 92.9573 224.214 96.4096 224.214H153.158C156.611 224.214 159.409 221.415 159.409 217.963V197.849C159.409 194.397 156.611 191.598 153.158 191.598Z" fill="#146FB8" stroke="#263238" stroke-width="1.26862" stroke-linecap="round" stroke-linejoin="round"/>
<path d="M97.6477 206.583C98.3982 204.482 99.7661 202.656 101.572 201.346C103.378 200.035 105.538 199.301 107.768 199.239C109.999 199.177 112.196 199.79 114.072 200.998C115.948 202.207 117.415 203.954 118.281 206.01" stroke="#263238" stroke-width="6.34309" stroke-linecap="round" stroke-linejoin="round"/>
<path d="M131.875 206.583C132.626 204.482 133.994 202.656 135.8 201.346C137.606 200.035 139.765 199.301 141.996 199.239C144.226 199.177 146.424 199.79 148.299 200.998C150.175 202.207 151.642 203.954 152.508 206.01" stroke="#263238" stroke-width="6.34309" stroke-linecap="round" stroke-linejoin="round"/>
<path d="M119.366 214.141C119.558 215.657 120.296 217.05 121.442 218.06C122.588 219.07 124.063 219.627 125.59 219.627C127.118 219.627 128.593 219.07 129.739 218.06C130.885 217.05 131.623 215.657 131.815 214.141H119.366Z" fill="white" stroke="#263238" stroke-width="1.26862" stroke-linecap="round" stroke-linejoin="round"/>
<path d="M184.169 216.724C182.908 216.724 181.699 216.224 180.808 215.332C179.917 214.441 179.416 213.232 179.416 211.971V201.158C179.415 200.533 179.537 199.914 179.775 199.336C180.014 198.759 180.364 198.234 180.805 197.792C181.247 197.35 181.771 196.999 182.348 196.759C182.925 196.52 183.544 196.397 184.169 196.397C184.794 196.396 185.413 196.518 185.99 196.756C186.568 196.995 187.093 197.345 187.535 197.786C187.977 198.228 188.328 198.752 188.567 199.329C188.807 199.907 188.93 200.525 188.93 201.15V211.963C188.931 212.589 188.808 213.208 188.57 213.787C188.331 214.365 187.98 214.89 187.538 215.332C187.095 215.774 186.57 216.125 185.992 216.364C185.414 216.603 184.794 216.725 184.169 216.724Z" fill="#263238" stroke="#263238" stroke-width="1.26862" stroke-linecap="round" stroke-linejoin="round"/>
<path d="M65.2464 216.724C64.6216 216.725 64.0027 216.603 63.4251 216.365C62.8475 216.126 62.3226 215.776 61.8804 215.335C61.4382 214.893 61.0874 214.369 60.8481 213.792C60.6087 213.215 60.4855 212.596 60.4855 211.971V201.158C60.4845 200.532 60.607 199.913 60.8459 199.335C61.0848 198.757 61.4354 198.231 61.8777 197.789C62.32 197.347 62.8453 196.996 63.4233 196.757C64.0014 196.518 64.6209 196.396 65.2464 196.397C65.8706 196.397 66.4887 196.52 67.0654 196.759C67.6421 196.998 68.1661 197.348 68.6075 197.789C69.0489 198.23 69.399 198.754 69.6379 199.331C69.8768 199.908 69.9997 200.526 69.9997 201.15V211.963C70.0007 212.588 69.8785 213.207 69.6401 213.785C69.4016 214.362 69.0517 214.887 68.6102 215.329C68.1687 215.772 67.6444 216.122 67.0672 216.362C66.49 216.601 65.8713 216.724 65.2464 216.724Z" fill="#263238" stroke="#263238" stroke-width="1.26862" stroke-linecap="round" stroke-linejoin="round"/>
<path d="M80.4835 167.931C76.279 174.143 74.0374 181.475 74.049 188.977V196.832" stroke="#263238" stroke-width="17.7606" stroke-linecap="round" stroke-linejoin="round"/>
<path d="M170.72 167.961C167.279 162.835 162.629 158.634 157.181 155.73C151.733 152.826 145.653 151.308 139.48 151.31H111.701C105.536 151.305 99.4641 152.817 94.0205 155.711C88.5768 158.606 83.9282 162.794 80.4841 167.908" stroke="#263238" stroke-width="8.88032" stroke-linecap="round" stroke-linejoin="round"/>
<path d="M177.124 196.833V188.977C177.135 181.489 174.905 174.17 170.72 167.961" stroke="#263238" stroke-width="17.7606" stroke-linecap="round" stroke-linejoin="round"/>
<path d="M77.8402 188.373H71.4669C67.7781 188.373 64.7878 191.363 64.7878 195.052V217.129C64.7878 220.818 67.7781 223.808 71.4669 223.808H77.8402C81.5289 223.808 84.5192 220.818 84.5192 217.129V195.052C84.5192 191.363 81.5289 188.373 77.8402 188.373Z" fill="white" stroke="#263238" stroke-width="1.26862" stroke-linecap="round" stroke-linejoin="round"/>
<path d="M75.6625 188.373H73.6527V223.808H75.6625V188.373Z" fill="#146FB8" stroke="#263238" stroke-width="1.26862" stroke-linecap="round" stroke-linejoin="round"/>
<path d="M178.499 188.373H172.126C168.437 188.373 165.447 191.363 165.447 195.052V217.129C165.447 220.818 168.437 223.808 172.126 223.808H178.499C182.188 223.808 185.178 220.818 185.178 217.129V195.052C185.178 191.363 182.188 188.373 178.499 188.373Z" fill="white" stroke="#263238" stroke-width="1.26862" stroke-linecap="round" stroke-linejoin="round"/>
<path d="M176.321 188.373H174.311V223.808H176.321V188.373Z" fill="#146FB8" stroke="#263238" stroke-width="1.26862" stroke-linecap="round" stroke-linejoin="round"/>
<path d="M125.518 185.156C128.999 185.156 132.425 184.285 135.483 182.622C138.541 180.959 141.134 178.556 143.025 175.634L147.335 168.962C140.506 165.191 132.82 163.241 125.018 163.301C117.216 163.361 109.561 165.43 102.791 169.306L109.279 177.361C111.231 179.792 113.703 181.754 116.513 183.103C119.323 184.452 122.4 185.153 125.518 185.156Z" fill="#146FB8" stroke="#263238" stroke-width="1.26862" stroke-linecap="round" stroke-linejoin="round"/>
<path d="M126.595 227.515C126.595 227.364 126.55 227.216 126.466 227.09C126.382 226.965 126.263 226.867 126.123 226.809C125.984 226.751 125.83 226.736 125.682 226.765C125.534 226.795 125.397 226.868 125.29 226.974C125.184 227.081 125.111 227.217 125.081 227.366C125.052 227.514 125.067 227.668 125.125 227.807C125.183 227.947 125.281 228.066 125.406 228.15C125.532 228.234 125.68 228.279 125.831 228.279C126.034 228.279 126.228 228.198 126.371 228.055C126.515 227.912 126.595 227.717 126.595 227.515Z" fill="#263238"/>
<path d="M126.595 230.082C126.595 229.931 126.55 229.783 126.466 229.658C126.382 229.532 126.263 229.434 126.123 229.376C125.984 229.319 125.83 229.303 125.682 229.333C125.534 229.362 125.397 229.435 125.29 229.542C125.184 229.649 125.111 229.785 125.081 229.933C125.052 230.082 125.067 230.235 125.125 230.375C125.183 230.514 125.281 230.634 125.406 230.718C125.532 230.802 125.68 230.847 125.831 230.847C126.034 230.847 126.228 230.766 126.371 230.623C126.515 230.479 126.595 230.285 126.595 230.082Z" fill="#263238"/>
<path d="M123.684 229.685C123.823 229.595 123.93 229.462 123.987 229.306C124.044 229.15 124.049 228.98 124 228.821C123.952 228.662 123.853 228.523 123.719 228.425C123.584 228.327 123.422 228.276 123.256 228.279C123.116 228.369 123.01 228.502 122.952 228.658C122.895 228.814 122.891 228.985 122.939 229.144C122.987 229.303 123.086 229.441 123.221 229.539C123.355 229.637 123.517 229.688 123.684 229.685Z" fill="#263238"/>
<path d="M128.276 229.685C128.395 229.683 128.511 229.653 128.616 229.599C128.721 229.544 128.811 229.466 128.881 229.37C128.951 229.275 128.997 229.164 129.017 229.048C129.036 228.931 129.029 228.812 128.994 228.698C128.96 228.585 128.899 228.482 128.818 228.396C128.737 228.31 128.637 228.244 128.526 228.203C128.415 228.163 128.296 228.148 128.178 228.161C128.061 228.175 127.948 228.215 127.849 228.279C127.73 228.281 127.614 228.31 127.509 228.365C127.404 228.42 127.314 228.498 127.244 228.593C127.174 228.689 127.128 228.8 127.108 228.916C127.089 229.033 127.097 229.152 127.131 229.265C127.165 229.379 127.226 229.482 127.307 229.568C127.388 229.654 127.488 229.72 127.599 229.761C127.71 229.801 127.829 229.816 127.947 229.802C128.064 229.789 128.177 229.749 128.276 229.685Z" fill="#263238"/>
<path d="M155.894 256.187C146.166 253.994 125.105 253.207 125.105 253.207C120.031 253.367 105.909 253.971 96.1806 256.195C94.3389 256.613 92.7364 257.741 91.7207 259.333C90.705 260.925 90.3579 262.854 90.7548 264.7L99.7646 306.853C100.207 308.897 101.335 310.728 102.961 312.043C104.588 313.357 106.614 314.077 108.706 314.082H143.438C145.529 314.077 147.556 313.357 149.182 312.043C150.808 310.728 151.936 308.897 152.379 306.853L161.381 264.7C161.777 262.844 161.421 260.907 160.393 259.312C159.365 257.717 157.748 256.593 155.894 256.187Z" fill="white" stroke="#263238" stroke-width="1.26862" stroke-linecap="round" stroke-linejoin="round"/>
<path d="M151.462 255.377C140.908 253.803 125.128 253.207 125.128 253.207C117.401 253.428 109.692 254.066 102.034 255.117L112.244 314.082H139.991L151.462 255.377Z" fill="#146FB8" stroke="#263238" stroke-width="1.26862" stroke-linecap="round" stroke-linejoin="round"/>
<path d="M134.237 266.022H117.333C113.881 266.022 111.082 268.821 111.082 272.273V280.527C111.082 283.979 113.881 286.778 117.333 286.778H134.237C137.689 286.778 140.488 283.979 140.488 280.527V272.273C140.488 268.821 137.689 266.022 134.237 266.022Z" fill="white" stroke="#263238" stroke-width="1.26862" stroke-linecap="round" stroke-linejoin="round"/>
<path d="M120.848 274.573H116.088V279.334H120.848V274.573Z" fill="white" stroke="#263238" stroke-width="1.26862" stroke-linecap="round" stroke-linejoin="round"/>
<path d="M128.162 274.573H123.401V279.334H128.162V274.573Z" fill="white" stroke="#263238" stroke-width="1.26862" stroke-linecap="round" stroke-linejoin="round"/>
<path d="M135.483 274.573H130.722V279.334H135.483V274.573Z" fill="white" stroke="#263238" stroke-width="1.26862" stroke-linecap="round" stroke-linejoin="round"/>
<path d="M58.8886 300.755H143.591C144.605 300.755 145.577 301.157 146.293 301.874C147.01 302.59 147.412 303.562 147.412 304.575V352.162H55.0676V304.575C55.0676 303.562 55.4702 302.59 56.1868 301.874C56.9033 301.157 57.8752 300.755 58.8886 300.755Z" fill="white" stroke="#263238" stroke-width="1.26862" stroke-linecap="round" stroke-linejoin="round"/>
<path d="M147.413 317.857C135.812 320.799 123.906 328.289 101.722 338.834C80.3243 349.013 62.8091 348.838 55.0679 348.05V352.162H147.413V317.857Z" fill="#263238" stroke="#263238" stroke-width="1.26862" stroke-linecap="round" stroke-linejoin="round"/>
<path d="M147.413 349.311H55.0679V352.169H147.413V349.311Z" fill="white" stroke="#263238" stroke-width="1.26862" stroke-linecap="round" stroke-linejoin="round"/>
<path d="M106.001 326.462C106.001 327.404 105.722 328.324 105.199 329.107C104.676 329.89 103.932 330.5 103.062 330.861C102.192 331.221 101.235 331.315 100.311 331.131C99.3879 330.948 98.5396 330.494 97.8738 329.829C97.208 329.163 96.7546 328.314 96.5709 327.391C96.3872 326.467 96.4814 325.51 96.8418 324.64C97.2021 323.77 97.8123 323.027 98.5953 322.504C99.3782 321.98 100.299 321.701 101.24 321.701C102.503 321.701 103.714 322.203 104.607 323.096C105.5 323.988 106.001 325.199 106.001 326.462Z" fill="white" stroke="#263238" stroke-width="1.26862" stroke-linecap="round" stroke-linejoin="round"/>
</svg>
