<svg width="692" height="880" viewBox="0 0 692 880" fill="none" xmlns="http://www.w3.org/2000/svg">
<g clip-path="url(#clip0_212_780)">
<path d="M348.622 419.985C350.356 420.986 352.61 422.177 355.325 423.473C363.111 427.189 374.538 431.691 388.089 434.976C414.992 441.498 449.917 443.147 481.409 424.792C481.458 424.612 481.514 424.407 481.576 424.176C481.854 423.142 482.258 421.609 482.756 419.623C483.752 415.652 485.124 409.872 486.625 402.661C489.626 388.237 493.136 368.1 495.17 345.26C499.247 299.473 497.35 243.269 473.992 200.334C454.716 164.906 426.011 143.569 395.804 133.647C393.55 138.952 389.324 147.603 383.057 155.165C375.876 163.83 365.64 171.488 352.32 170.322C344.498 169.65 339.296 166.533 336.163 161.948C333.109 157.478 332.259 151.957 332.342 146.853C332.425 141.718 333.457 136.723 334.447 133.053C334.944 131.208 335.437 129.675 335.807 128.599C335.847 128.483 335.885 128.373 335.922 128.268C328.982 129.565 319.595 132.914 310.845 136.769C305.941 138.93 301.311 141.217 297.523 143.326C293.677 145.467 290.875 147.329 289.487 148.621L289.364 148.736L348.622 419.985ZM348.622 419.985C407.327 406.214 439.904 380.698 457.843 358.147C467.053 346.57 472.366 335.822 475.381 327.935C476.889 323.992 477.822 320.763 478.38 318.503C478.66 317.372 478.846 316.483 478.963 315.868C478.999 315.679 479.029 315.516 479.053 315.379C479.068 315.293 479.08 315.218 479.091 315.153C479.105 315.069 479.115 315.004 479.122 314.956L479.131 314.9L479.133 314.882L479.134 314.876C479.135 314.873 479.135 314.871 476.691 314.529L479.135 314.871L479.227 314.211L478.975 313.594C466.298 282.621 442.558 272.057 422.147 269.304C411.984 267.933 402.635 268.489 395.839 269.38C392.436 269.826 389.66 270.359 387.726 270.782C386.758 270.993 386.001 271.178 385.479 271.311C385.218 271.378 385.017 271.432 384.877 271.47C384.857 271.475 384.838 271.48 384.821 271.485C384.777 271.497 384.742 271.507 384.715 271.514L384.67 271.527L384.657 271.531L384.652 271.532C384.651 271.533 384.649 271.533 385.333 273.904L384.649 271.533L382.908 272.036L382.867 273.848C381.928 315.106 357.019 336.873 332.007 348.453C319.478 354.254 306.979 357.459 297.594 359.212C292.906 360.087 289.01 360.598 286.294 360.889C285.466 360.978 284.747 361.046 284.15 361.098C281.271 347.403 279.85 325.899 279.162 307.281C278.801 297.533 278.643 288.642 278.576 282.188C278.542 278.961 278.53 276.345 278.527 274.536C278.526 273.632 278.527 272.93 278.528 272.454C278.528 272.216 278.529 272.035 278.529 271.914L278.53 271.777L278.53 271.743L278.53 271.735L278.53 271.733C278.53 271.733 278.53 271.732 276.063 271.719L278.53 271.732L278.537 270.438L277.477 269.696C262.01 258.883 252.348 255.5 246.305 255.045C244.691 254.924 243.323 255.011 242.168 255.227C247.279 215.494 258.848 189.053 269.212 172.485C274.587 163.892 279.648 157.939 283.335 154.156C285.179 152.263 286.68 150.913 287.706 150.045C288.219 149.612 288.613 149.299 288.872 149.099C289.001 148.999 289.097 148.928 289.157 148.884C289.186 148.862 289.207 148.847 289.219 148.838L289.226 148.833L289.228 148.831L289.23 148.831L348.622 419.985Z" fill="white" stroke="#00160A" stroke-width="4.935"/>
<path d="M490.543 389.725L648.41 494.189C679.023 514.443 675.086 560.543 641.512 575.312L456.766 656.62C421.824 671.994 381.395 668.039 350.097 646.184L279.148 596.582" stroke="#00160A" stroke-width="4.15527"/>
<path d="M490.543 423.414L485.233 419.893L648.438 527.858C679.052 548.113 675.115 594.212 641.542 608.983L456.795 690.291C421.854 705.664 381.424 701.709 350.125 679.854L259.918 615.608" stroke="#00160A" stroke-width="4.15527"/>
<path d="M627.922 569.547L458.12 644.288C426.007 658.413 388.853 654.775 360.088 634.692L295.02 588.98C303.979 582.114 314.018 576.786 324.725 573.214C351.547 564.103 377.723 553.19 403.073 540.549C442.036 521.274 470.365 485.62 480.338 443.311C483.742 428.85 486.731 414.225 489.179 399.522L638.62 498.308C666.748 516.919 658.768 555.987 627.922 569.547Z" fill="#B8D4EA"/>
<path d="M190.382 786.156C190.382 786.156 220.155 773.813 225.862 764.508C225.862 764.508 226.935 785.633 221.364 792.849C215.793 800.065 182.499 819.139 180.71 816.75C178.92 814.36 190.382 786.156 190.382 786.156Z" fill="#1E3227"/>
<path d="M98.7343 836.492C98.7343 836.492 104.151 843.843 123.371 836.492C142.59 829.141 184.405 802.066 184.405 802.066C184.405 802.066 172.74 833.387 168.512 836.83C164.286 840.273 84.4287 879.39 84.4287 879.39C84.4287 879.39 48.727 884.468 62.1818 859.077L98.7343 836.492Z" fill="#1E3227"/>
<path d="M213.664 427.264C169.653 444.394 123.08 484.641 136.476 596.099L140.2 625.059" stroke="#00160A" stroke-width="4.15527"/>
<path d="M213.596 354.478C220.793 344.205 227.293 333.101 231.278 321.146C235.263 309.19 235.466 296.239 236.579 283.664C239.538 249.945 244.123 222.06 257.133 190.652C268.402 163.472 302.439 128.458 336.303 125.14L339.35 124.879" stroke="#00160A" stroke-width="4.15527"/>
<path d="M298.715 424.798C298.551 424.323 298.386 423.879 298.212 423.414" stroke="#00160A" stroke-width="4.15527"/>
<path d="M282.204 361.626C280.541 351.846 279.302 342.367 278.335 333.372C278.338 333.202 278.318 333.033 278.278 332.868C273.208 282.639 278.335 246.095 278.335 246.095" stroke="#00160A" stroke-width="4.15527"/>
<path d="M400.51 56.7639L392.772 59.7822C392.772 60.024 392.772 63.0413 392.443 67.2686C392.083 72.3171 391.28 77.3241 390.043 82.2325C390.73 78.8856 391.726 70.9343 387.355 65.4022C387.287 65.2887 387.21 65.1821 387.123 65.0824C384.221 61.5904 380.642 62.9741 377.769 65.3725C375.785 67.0514 374.052 69.0057 372.623 71.1761C373.124 64.7142 371.966 58.2316 369.257 52.3442C367.491 48.327 365.148 44.5895 362.303 41.2492C366.684 56.3385 361.064 66.2145 361.064 66.2145C346.217 69.7065 335.915 68.9613 328.236 67.6357C321.765 61.6002 324.009 39.866 324.009 39.866C317.499 45.1859 319.066 65.7693 319.066 65.7693C318.235 60.3981 318.336 54.9242 319.366 49.587C316.133 54.1602 314.265 59.5571 313.978 65.1505L313.862 65.0922C313.414 64.9768 312.972 64.8386 312.537 64.6767C311.74 64.2572 310.968 63.7924 310.226 63.2831L305.94 60.3813C312.411 27.369 335.036 6.6116 369.993 12.7053C372.275 13.0987 374.52 13.681 376.705 14.4464C399.736 26.4501 400.51 56.7639 400.51 56.7639Z" fill="white"/>
<path d="M201.022 378.281L192.21 351.76C191.814 350.503 190.797 349.542 189.522 349.215C189.444 349.215 189.357 349.215 189.27 349.157C189.183 349.1 189.163 349.157 189.105 349.157C188.903 349.144 188.699 349.144 188.496 349.157C187.519 349.161 186.578 349.534 185.865 350.202C184.419 351.538 183.595 353.417 183.592 355.387C183.593 356.149 183.713 356.906 183.95 357.63C185.885 363.23 189.328 373.338 190.963 377.943" fill="#BEC6DF"/>
<path d="M199.029 378.281L189.53 349.215C189.454 349.215 189.367 349.215 189.28 349.157C189.192 349.1 189.173 349.157 189.115 349.157L184.134 348.19C181.474 347.697 178.814 347.165 176.154 346.672C172.962 346.033 169.75 345.501 166.568 344.737C165.817 344.525 165.045 344.395 164.266 344.35C163.285 344.347 162.343 344.725 161.635 345.404C160.175 346.74 159.35 348.63 159.362 350.608C159.357 351.361 159.478 352.11 159.72 352.824C161.858 359.091 165.929 370.95 167.226 374.547L199.029 378.281Z" fill="#B8D4EA"/>
<path d="M386.833 246.086C385.865 256.852 385.363 269.881 385.025 286.256C385.025 321.078 346.528 349.912 312.315 356.508L249.579 370.678C241.29 372.284 233.947 367.109 228.183 363.676C222.253 360.145 216.179 355.937 211.904 352.814C205.752 348.316 193.903 351.933 196.331 362.66C197.392 366.794 200.321 370.197 204.253 371.859C205.345 372.348 206.469 372.762 207.619 373.096C208.499 373.318 209.121 374.102 209.134 375.009C209.148 375.916 208.55 376.719 207.677 376.965C202.241 378.843 192.288 379.955 176.232 374.064C155.658 366.49 154.062 413.441 182.19 421.614H182.296C208.209 429.449 236.095 428.443 262.878 427.321C293.293 426.169 323.557 422.477 353.356 416.285C368.513 413.074 384.086 409.737 397.956 402.879C421.848 391.069 439.065 377.527 455.441 356.451C473.819 332.82 481.663 301.819 486.093 272.753C491.162 239.499 484.159 211.419 466.332 182.798L465.674 181.754" stroke="#00160A" stroke-width="4.15527"/>
<path d="M201.022 378.281L192.21 351.76C191.814 350.503 190.797 349.542 189.522 349.215C189.444 349.215 189.357 349.215 189.27 349.157C189.183 349.1 189.163 349.157 189.105 349.157C188.903 349.144 188.699 349.144 188.496 349.157C187.519 349.161 186.578 349.534 185.865 350.202C184.419 351.538 183.595 353.417 183.592 355.387C183.593 356.149 183.713 356.906 183.95 357.63C185.885 363.23 189.328 373.338 190.963 377.943" stroke="#00160A" stroke-width="4.15527"/>
<path d="M189.531 349.215C189.453 349.215 189.367 349.215 189.28 349.157C189.193 349.1 189.173 349.157 189.115 349.157L184.134 348.19C181.474 347.697 178.814 347.165 176.154 346.672C172.962 346.033 169.751 345.501 166.569 344.737C165.818 344.525 165.046 344.395 164.266 344.35C163.286 344.347 162.343 344.725 161.636 345.404C160.176 346.74 159.35 348.63 159.363 350.608C159.358 351.361 159.478 352.11 159.72 352.824C161.858 359.091 165.93 370.95 167.226 374.547" stroke="#00160A" stroke-width="4.15527"/>
<path d="M310.971 64.2021C310.971 76.7765 313.418 88.8002 319.454 99.9039C324.29 108.822 331.39 117.808 341.546 120.758C343.797 121.408 346.129 121.733 348.472 121.725C365.708 121.649 368.398 101.229 368.398 101.229" stroke="#00160A" stroke-width="4.15527"/>
<path d="M391.862 71.4958V71.5531C391.064 77.7929 389.691 83.9449 387.762 89.931C385.457 97.073 384.912 104.665 386.175 112.063L388.855 127.645C389.104 129.062 390.141 130.211 391.524 130.604C425.533 140.48 455.721 162.273 473.287 193.738C495.195 233.028 499.19 280.346 497.42 324.453C495.863 362.689 489.682 400.703 480.909 437.913C470.051 483.958 439.218 522.76 396.815 543.741C369.256 557.502 340.795 569.378 311.628 579.288C280.361 589.642 255.418 613.527 243.718 644.316L175.177 826.568C172.659 833.296 167.69 838.823 161.268 842.044L95.5907 875.037C87.297 879.189 77.8366 880.389 68.769 878.441C63.9574 877.403 60.2719 873.527 59.4774 868.67C58.6829 863.812 60.9411 858.963 65.1704 856.446L98.7156 836.492L144.844 601.331C151.413 558.874 176.225 521.415 212.756 498.802C215.162 497.335 217.67 496.042 220.262 494.933L320.257 451.513" stroke="#00160A" stroke-width="4.15527"/>
<path d="M364.374 10.4325C359.028 9.15834 353.494 8.87636 348.046 9.60062C347.823 9.60555 347.6 9.6249 347.378 9.65865" stroke="#00160A" stroke-width="4.15527"/>
<path d="M340.153 125.449C340.153 125.449 322.462 166.006 354.101 168.009C382.49 169.827 392.908 131.253 392.908 131.253" stroke="#00160A" stroke-width="4.15527"/>
<path fill-rule="evenodd" clip-rule="evenodd" d="M389.638 83.7119C389.841 82.9677 392.888 71.9696 387.065 65.0438C381.242 58.118 373.349 69.9966 372.556 71.1859C374.103 54.1335 362.254 41.201 362.254 41.201C366.627 56.3 360.997 66.166 360.997 66.166C339.36 71.2343 327.453 67.3751 319.008 65.711C318.178 60.3427 318.283 54.8718 319.318 49.5387C316.076 54.1 314.206 59.4939 313.93 65.0823H313.795C310.58 64.2286 307.533 62.8389 304.78 60.9715L300.495 58.0697C306.976 25.0671 329.591 4.29033 364.547 10.3841C399.504 16.4778 400.481 56.677 400.481 56.677L392.694 59.7051C392.694 59.7051 392.762 72.9754 389.638 83.7119Z" stroke="#00160A" stroke-width="4.15527"/>
<path d="M324.531 81.9907V98.0374C324.534 98.4332 324.726 98.8043 325.046 99.0372C325.366 99.2701 325.779 99.3373 326.157 99.2168C327.418 98.7993 328.579 98.1203 329.561 97.2251" stroke="#00160A" stroke-width="4.15527"/>
<path d="M314.935 94.1728C319.997 92.1993 321.876 84.8943 319.132 77.8567C316.388 70.819 310.061 66.7137 304.999 68.6872C299.937 70.6607 298.058 77.9656 300.802 85.0033C303.546 92.0409 309.874 96.1463 314.935 94.1728Z" stroke="#00160A" stroke-width="4.15527"/>
<path d="M345.395 98.7616C350.457 96.7882 352.336 89.4832 349.592 82.4455C346.848 75.4079 340.521 71.3026 335.459 73.276C330.397 75.2495 328.518 82.5545 331.262 89.5922C334.006 96.6298 340.333 100.735 345.395 98.7616Z" stroke="#00160A" stroke-width="4.15527"/>
<path d="M320.275 82.8218C320.275 82.8218 323.274 79.3979 329.561 83.412" stroke="#00160A" stroke-width="4.15527"/>
<path d="M338.731 119.742C338.731 119.742 340.908 127.113 347.311 151.005" stroke="#00160A" stroke-width="4.15527"/>
<path d="M178.418 817.959L216.141 797.598C220.53 795.218 223.46 790.822 223.966 785.856C230.233 724.29 228.319 685.367 228.319 685.367" stroke="#00160A" stroke-width="4.15527"/>
<path d="M144.177 502.227L-1 400.77" stroke="#00160A" stroke-width="4.15527"/>
<path d="M135.955 530.18L-1 434.46" stroke="#00160A" stroke-width="4.15527"/>
<path d="M691.288 337.338V420.397C691.288 428.178 686.699 435.227 679.584 438.378L576.571 483.994L545.076 531.854C543.413 534.289 540.366 535.368 537.541 534.521C534.716 533.675 532.764 531.098 532.714 528.149V503.426L522.152 508.098C517.38 510.184 511.878 509.731 507.512 506.89C503.146 504.05 500.502 499.204 500.476 493.995V424.633C500.479 406.953 510.979 390.961 527.201 383.931L668.769 322.558C673.749 320.397 679.481 320.888 684.019 323.867C688.558 326.846 691.29 331.909 691.288 337.338Z" fill="#D7E8F0"/>
<path d="M564.922 445.898C569.996 436.109 568.623 425.33 561.855 421.822C555.087 418.314 545.487 423.405 540.413 433.194C535.339 442.983 536.712 453.763 543.48 457.271C550.248 460.779 559.848 455.687 564.922 445.898Z" fill="white"/>
<path d="M608.916 427.067C613.991 417.278 612.617 406.499 605.85 402.991C599.082 399.483 589.482 404.574 584.408 414.363C579.334 424.152 580.707 434.932 587.475 438.44C594.242 441.948 603.842 436.856 608.916 427.067Z" fill="white"/>
<path d="M651.431 406.733C656.506 396.944 655.132 386.165 648.365 382.657C641.597 379.148 631.997 384.24 626.923 394.029C621.849 403.818 623.222 414.598 629.989 418.106C636.757 421.614 646.357 416.522 651.431 406.733Z" fill="white"/>
<path d="M569.24 303.769L571.655 304.414L577.072 284.146C577.303 283.283 577.056 282.362 576.424 281.731C575.791 281.1 574.87 280.854 574.008 281.086L553.756 286.533H553.757L533.495 291.976C532.632 292.207 531.959 292.882 531.728 293.745C531.498 294.608 531.745 295.528 532.377 296.159L547.22 310.977L547.219 310.976L562.059 325.802C562.691 326.433 563.612 326.68 564.474 326.448C565.337 326.216 566.011 325.542 566.241 324.679L571.655 304.414L569.24 303.769L566.825 303.124L562.529 319.204L550.753 307.439L550.752 307.438L538.975 295.681L555.054 291.362H555.055L571.123 287.04L566.825 303.124L569.24 303.769Z" fill="#264296"/>
<path d="M574.971 189.413H572.471C572.47 193.126 570.974 196.463 568.542 198.898C566.107 201.329 562.77 202.825 559.058 202.827C555.346 202.825 552.009 201.329 549.573 198.898C547.142 196.463 545.645 193.125 545.644 189.413C545.645 185.701 547.142 182.364 549.573 179.929C552.009 177.498 555.346 176.002 559.058 176C562.77 176.002 566.107 177.498 568.542 179.929C570.974 182.364 572.47 185.701 572.471 189.413H574.971H577.471C577.469 179.243 569.228 171.002 559.058 171C548.888 171.002 540.646 179.243 540.644 189.413C540.646 199.585 548.888 207.825 559.058 207.827C569.228 207.825 577.469 199.584 577.471 189.413H574.971Z" fill="#00160A"/>
<path d="M156.392 299.377C156.707 299.759 156.83 300.045 156.909 300.374C156.973 300.661 156.989 301.003 156.935 301.439C156.848 302.201 156.517 303.225 156.06 304.39C155.39 306.149 154.438 308.2 154.098 310.62C153.932 311.829 153.942 313.148 154.291 314.491C154.635 315.833 155.32 317.167 156.349 318.388C157.237 319.446 158.814 319.584 159.872 318.696C160.929 317.809 161.067 316.232 160.18 315.174C159.657 314.55 159.372 314.001 159.2 313.474C159.052 313.012 158.989 312.554 158.994 312.05C159.002 311.174 159.244 310.144 159.643 309.005C160.227 307.289 161.161 305.413 161.678 303.269C161.929 302.195 162.069 301.018 161.88 299.768C161.696 298.523 161.138 297.242 160.222 296.163C159.335 295.105 157.758 294.967 156.7 295.855C155.643 296.742 155.505 298.319 156.392 299.377Z" fill="#264296"/>
<path d="M137.705 277.106C138.02 277.488 138.143 277.774 138.221 278.103C138.286 278.391 138.301 278.731 138.248 279.169C138.161 279.93 137.83 280.954 137.373 282.12C136.703 283.879 135.75 285.929 135.41 288.35C135.245 289.559 135.255 290.878 135.603 292.219C135.947 293.562 136.632 294.896 137.662 296.117C138.549 297.174 140.126 297.313 141.184 296.425C142.241 295.538 142.379 293.96 141.492 292.903C140.969 292.279 140.684 291.73 140.512 291.203C140.364 290.741 140.302 290.284 140.307 289.78C140.314 288.902 140.557 287.873 140.956 286.735C141.54 285.018 142.473 283.142 142.991 280.998C143.241 279.924 143.382 278.747 143.193 277.498C143.008 276.251 142.451 274.971 141.535 273.892C140.648 272.834 139.071 272.696 138.013 273.583C136.956 274.471 136.817 276.048 137.705 277.106Z" fill="#264296"/>
<path d="M160.223 296.163C159.434 295.216 158.453 294.503 157.42 294.079C156.517 293.702 155.596 293.536 154.72 293.49C153.185 293.414 151.766 293.666 150.425 293.927C148.423 294.335 146.568 294.758 145.12 294.688C144.394 294.657 143.782 294.528 143.216 294.271C142.649 294.009 142.095 293.617 141.492 292.903C140.604 291.845 139.027 291.708 137.97 292.595C136.912 293.483 136.774 295.059 137.662 296.117C138.554 297.183 139.572 298.01 140.657 298.582C141.604 299.084 142.591 299.389 143.551 299.546C145.235 299.82 146.822 299.67 148.27 299.439C150.434 299.079 152.367 298.551 153.757 298.488C154.451 298.448 154.975 298.51 155.355 298.64C155.738 298.779 156.022 298.946 156.392 299.377C157.279 300.434 158.857 300.572 159.914 299.685C160.972 298.797 161.11 297.22 160.223 296.163Z" fill="#264296"/>
<path d="M141.535 273.892C140.747 272.945 139.766 272.233 138.733 271.808C137.83 271.432 136.908 271.267 136.033 271.22C134.498 271.144 133.08 271.397 131.739 271.658C129.736 272.066 127.881 272.488 126.433 272.417C125.706 272.387 125.096 272.258 124.529 272.001C123.962 271.74 123.408 271.347 122.805 270.633C121.918 269.575 120.34 269.437 119.283 270.324C118.225 271.212 118.088 272.789 118.975 273.846C119.867 274.913 120.886 275.74 121.97 276.312C122.918 276.814 123.905 277.119 124.864 277.276C126.548 277.55 128.135 277.401 129.583 277.169C131.748 276.809 133.68 276.282 135.07 276.217C135.764 276.178 136.289 276.24 136.669 276.371C137.051 276.508 137.334 276.675 137.705 277.106C138.592 278.164 140.169 278.301 141.227 277.414C142.285 276.526 142.422 274.95 141.535 273.892Z" fill="#264296"/>
<path d="M473.668 755.535C473.984 755.917 474.106 756.203 474.185 756.532C474.249 756.82 474.265 757.161 474.211 757.598C474.124 758.359 473.793 759.383 473.336 760.549C472.666 762.308 471.714 764.359 471.374 766.779C471.208 767.988 471.219 769.307 471.567 770.649C471.911 771.992 472.596 773.326 473.626 774.547C474.513 775.605 476.09 775.742 477.148 774.855C478.205 773.968 478.344 772.391 477.456 771.333C476.933 770.709 476.648 770.16 476.476 769.633C476.328 769.171 476.265 768.713 476.271 768.209C476.278 767.332 476.52 766.302 476.919 765.164C477.503 763.447 478.437 761.571 478.954 759.428C479.205 758.354 479.345 757.176 479.156 755.927C478.972 754.681 478.414 753.4 477.499 752.321C476.611 751.264 475.034 751.126 473.977 752.013C472.919 752.9 472.781 754.477 473.668 755.535Z" fill="#264296"/>
<path d="M454.981 733.264C455.296 733.647 455.419 733.933 455.498 734.261C455.562 734.549 455.577 734.89 455.524 735.328C455.437 736.089 455.106 737.113 454.649 738.278C453.979 740.038 453.026 742.088 452.687 744.508C452.521 745.718 452.531 747.037 452.879 748.378C453.224 749.721 453.908 751.055 454.938 752.276C455.825 753.333 457.402 753.471 458.46 752.584C459.517 751.697 459.655 750.119 458.768 749.062C458.246 748.437 457.96 747.889 457.788 747.362C457.641 746.9 457.578 746.443 457.583 745.938C457.59 745.061 457.833 744.032 458.232 742.893C458.816 741.177 459.749 739.3 460.267 737.157C460.518 736.082 460.658 734.906 460.469 733.656C460.285 732.41 459.727 731.13 458.811 730.05C457.924 728.993 456.347 728.854 455.289 729.742C454.232 730.629 454.094 732.207 454.981 733.264Z" fill="#264296"/>
<path d="M477.499 752.322C476.711 751.375 475.729 750.662 474.696 750.237C473.793 749.861 472.872 749.695 471.997 749.649C470.461 749.572 469.043 749.825 467.702 750.086C465.699 750.494 463.844 750.917 462.396 750.846C461.67 750.816 461.059 750.687 460.492 750.43C459.925 750.168 459.371 749.776 458.768 749.062C457.881 748.004 456.303 747.867 455.246 748.754C454.188 749.641 454.05 751.218 454.938 752.276C455.83 753.342 456.849 754.168 457.933 754.74C458.88 755.243 459.867 755.548 460.827 755.705C462.511 755.979 464.098 755.829 465.546 755.598C467.71 755.238 469.643 754.71 471.033 754.646C471.727 754.606 472.252 754.668 472.631 754.799C473.014 754.937 473.298 755.105 473.669 755.536C474.556 756.593 476.133 756.731 477.191 755.844C478.248 754.956 478.386 753.379 477.499 752.322Z" fill="#264296"/>
<path d="M458.811 730.05C458.023 729.103 457.042 728.392 456.009 727.967C455.106 727.59 454.184 727.425 453.309 727.379C451.774 727.303 450.356 727.555 449.015 727.816C447.012 728.225 445.157 728.646 443.709 728.576C442.983 728.546 442.372 728.417 441.805 728.159C441.238 727.898 440.684 727.506 440.081 726.791C439.194 725.734 437.616 725.596 436.559 726.483C435.501 727.371 435.364 728.948 436.251 730.005C437.143 731.072 438.162 731.899 439.246 732.471C440.194 732.973 441.181 733.278 442.14 733.435C443.824 733.709 445.412 733.559 446.859 733.328C449.024 732.968 450.957 732.44 452.346 732.376C453.04 732.337 453.565 732.399 453.945 732.529C454.327 732.667 454.61 732.834 454.981 733.264C455.868 734.322 457.446 734.46 458.503 733.572C459.561 732.685 459.699 731.108 458.811 730.05Z" fill="#264296"/>
<path d="M499.668 38.5355C499.984 38.9172 500.106 39.2034 500.185 39.5325C500.249 39.8199 500.265 40.1613 500.211 40.5981C500.124 41.3592 499.793 42.3836 499.336 43.5489C498.666 45.3081 497.714 47.3592 497.374 49.7789C497.208 50.9882 497.219 52.3072 497.567 53.6494C497.911 54.992 498.596 56.326 499.626 57.5468C500.513 58.6047 502.09 58.7426 503.148 57.8549C504.205 56.9679 504.344 55.3907 503.456 54.3328C502.933 53.7086 502.648 53.1598 502.476 52.633C502.328 52.1708 502.265 51.7131 502.271 51.2089C502.278 50.3322 502.52 49.3022 502.919 48.1637C503.503 46.4475 504.437 44.5715 504.954 42.4277C505.205 41.3537 505.345 40.1763 505.156 38.9268C504.972 37.6814 504.414 36.4004 503.499 35.3215C502.611 34.2636 501.034 34.1257 499.977 35.0134C498.919 35.9004 498.781 37.4776 499.668 38.5355Z" fill="#264296"/>
<path d="M480.981 16.2642C481.296 16.6468 481.419 16.9329 481.498 17.2613C481.562 17.5494 481.577 17.8901 481.524 18.3276C481.437 19.0887 481.106 20.1131 480.649 21.2784C479.979 23.0376 479.026 25.0879 478.687 27.5085C478.521 28.7177 478.531 30.0367 478.879 31.3781C479.224 32.7207 479.908 34.0547 480.938 35.2755C481.825 36.3327 483.402 36.4714 484.46 35.5837C485.517 34.6966 485.655 33.1187 484.768 32.0616C484.246 31.4374 483.96 30.8886 483.788 30.3618C483.641 29.8995 483.578 29.4427 483.583 28.9384C483.59 28.061 483.833 27.0317 484.232 25.8933C484.816 24.177 485.749 22.3002 486.267 20.1572C486.518 19.0825 486.658 17.9059 486.469 16.6563C486.285 15.4101 485.727 14.1299 484.811 13.0503C483.924 11.9932 482.347 11.8545 481.289 12.7422C480.232 13.6292 480.094 15.2071 480.981 16.2642Z" fill="#264296"/>
<path d="M503.499 35.3217C502.711 34.3747 501.729 33.662 500.696 33.2374C499.793 32.8609 498.872 32.6952 497.997 32.6491C496.461 32.5723 495.043 32.8251 493.702 33.0861C491.699 33.4937 489.844 33.917 488.396 33.8463C487.67 33.8162 487.059 33.6867 486.492 33.4299C485.925 33.168 485.371 32.7761 484.768 32.0618C483.881 31.0039 482.303 30.8666 481.246 31.7536C480.188 32.6413 480.05 34.2178 480.938 35.2757C481.83 36.3418 482.849 37.1684 483.933 37.7402C484.88 38.2427 485.867 38.5476 486.827 38.7047C488.511 38.9791 490.098 38.829 491.546 38.598C493.71 38.2379 495.643 37.71 497.033 37.6464C497.727 37.6062 498.252 37.6685 498.631 37.7989C499.014 37.9375 499.298 38.105 499.669 38.5356C500.556 39.5928 502.133 39.7308 503.191 38.8438C504.248 37.9561 504.386 36.3788 503.499 35.3217Z" fill="#264296"/>
<path d="M484.811 13.0504C484.023 12.1034 483.042 11.3915 482.009 10.9669C481.106 10.5904 480.184 10.4253 479.309 10.3786C477.774 10.3025 476.356 10.5554 475.015 10.8164C473.012 11.2246 471.157 11.6465 469.709 11.5758C468.983 11.5456 468.372 11.417 467.805 11.1594C467.238 10.8983 466.684 10.5056 466.081 9.79125C465.194 8.73411 463.616 8.59606 462.559 9.48311C461.501 10.3708 461.364 11.948 462.251 13.0052C463.143 14.072 464.162 14.8987 465.246 15.4705C466.194 15.9729 467.181 16.2779 468.14 16.4349C469.824 16.7086 471.412 16.5593 472.859 16.3275C475.024 15.9682 476.957 15.4402 478.346 15.3759C479.04 15.3365 479.565 15.3987 479.945 15.5292C480.327 15.667 480.61 15.8337 480.981 16.2644C481.868 17.3223 483.446 17.4595 484.503 16.5725C485.561 15.6848 485.699 14.1083 484.811 13.0504Z" fill="#264296"/>
<path d="M107.057 385.682C103.341 385.68 100.002 384.189 97.5678 381.77C95.1378 379.346 93.6448 376.028 93.6438 372.34C93.6448 368.652 95.1378 365.334 97.5678 362.911C100.002 360.492 103.341 359.001 107.057 359C108.437 359 109.557 357.881 109.557 356.5C109.557 355.119 108.437 354 107.057 354C101.983 353.999 97.3658 356.054 94.0408 359.368C90.7108 362.677 88.6418 367.28 88.6438 372.34C88.6418 377.4 90.7108 382.003 94.0398 385.313C97.3658 388.627 101.983 390.683 107.057 390.682C108.437 390.682 109.557 389.562 109.557 388.182C109.557 386.801 108.437 385.682 107.057 385.682Z" fill="#00160A"/>
<path d="M650.364 654.937L631.139 646.712C629.87 646.169 628.401 646.757 627.858 648.026C627.315 649.297 627.904 650.766 629.173 651.308L648.398 659.534C649.667 660.077 651.136 659.489 651.679 658.22C652.223 656.95 651.633 655.48 650.364 654.937Z" fill="#264296"/>
<path d="M637.953 663.722L646.181 644.497C646.724 643.227 646.136 641.758 644.866 641.215C643.597 640.672 642.128 641.261 641.584 642.53L633.357 661.756C632.814 663.025 633.402 664.494 634.671 665.037C635.941 665.58 637.41 664.991 637.953 663.722Z" fill="#264296"/>
<path d="M590.294 686.208L602.561 652.502C603.034 651.204 602.364 649.77 601.067 649.298C599.77 648.826 598.335 649.494 597.863 650.792L585.595 684.498C585.123 685.796 585.792 687.23 587.089 687.702C588.386 688.174 589.821 687.506 590.294 686.208Z" fill="#00160A"/>
<path d="M320.971 703.412H318.471C318.47 707.124 316.974 710.462 314.542 712.897C312.107 715.328 308.77 716.825 305.058 716.826C301.347 716.825 298.009 715.328 295.573 712.897C293.142 710.461 291.646 707.124 291.644 703.412C291.646 699.7 293.142 696.363 295.573 693.928C298.009 691.497 301.347 690.001 305.058 690C308.77 690.001 312.108 691.497 314.543 693.928C316.974 696.363 318.47 699.7 318.471 703.412H320.971H323.471C323.47 693.241 315.228 685.001 305.058 685C299.982 684.998 295.363 687.064 292.038 690.392C288.709 693.716 286.643 698.335 286.644 703.412C286.646 713.583 294.889 721.824 305.058 721.826C315.228 721.824 323.47 713.583 323.471 703.412H320.971Z" fill="#00160A"/>
<path d="M62.1438 544.5V547H91.2978V573.655H64.6438V544.5H62.1438V547V544.5H59.6438V576.155C59.6438 576.813 59.9108 577.457 60.3768 577.922C60.8418 578.388 61.4858 578.655 62.1438 578.655H93.7978C94.4558 578.655 95.0998 578.388 95.5648 577.922C96.0308 577.457 96.2978 576.813 96.2978 576.155V544.5C96.2978 543.842 96.0308 543.198 95.5648 542.732C95.0998 542.267 94.4558 542 93.7978 542H62.1438C61.4858 542 60.8418 542.267 60.3768 542.732C59.9108 543.198 59.6438 543.842 59.6438 544.5H62.1438Z" fill="#BEC6DF"/>
<path d="M203.749 67.071L202.419 64.954C201.787 65.35 201.104 65.532 200.417 65.533C199.79 65.534 199.167 65.376 198.616 65.079C198.065 64.78 197.588 64.348 197.226 63.772L197.224 63.77C196.828 63.138 196.645 62.455 196.644 61.768C196.644 61.143 196.801 60.52 197.098 59.97C197.397 59.419 197.829 58.941 198.405 58.578C199.034 58.184 199.715 58.002 200.402 58C201.029 58 201.654 58.157 202.205 58.455C202.757 58.755 203.234 59.186 203.596 59.761L203.598 59.763C203.993 60.393 204.175 61.074 204.176 61.761C204.177 62.387 204.019 63.012 203.721 63.563C203.422 64.115 202.991 64.593 202.417 64.955L202.419 64.954L203.749 67.071L205.081 69.186C206.398 68.358 207.43 67.222 208.122 65.938C208.815 64.652 209.176 63.217 209.176 61.761C209.178 60.168 208.738 58.541 207.829 57.099L207.83 57.101C207.002 55.782 205.866 54.749 204.58 54.056C203.295 53.362 201.859 53.001 200.402 53C198.809 52.999 197.184 53.438 195.742 54.346C194.425 55.173 193.392 56.308 192.7 57.593C192.006 58.878 191.644 60.313 191.644 61.768C191.643 63.363 192.083 64.99 192.993 66.434L192.991 66.431C193.819 67.75 194.954 68.784 196.239 69.477C197.525 70.172 198.96 70.533 200.417 70.533C202.01 70.535 203.636 70.095 205.079 69.188L205.081 69.186L203.749 67.071Z" fill="#00160A"/>
<path d="M185.015 146.346L187.281 147.4L196.135 128.381C196.512 127.571 196.429 126.621 195.916 125.89C195.402 125.159 194.538 124.757 193.649 124.835L172.759 126.683L172.76 126.683L151.86 128.525C150.97 128.603 150.19 129.15 149.813 129.96C149.437 130.77 149.52 131.719 150.033 132.45L162.077 149.621L162.077 149.619L174.117 166.797C174.629 167.528 175.494 167.931 176.383 167.853C177.273 167.774 178.054 167.227 178.43 166.417L187.281 147.4L185.015 146.346L182.748 145.291L175.725 160.381L166.171 146.75L166.17 146.749L156.614 133.125L173.199 131.664L173.2 131.664L189.774 130.198L182.748 145.291L185.015 146.346Z" fill="#00160A"/>
</g>
<defs>
<clipPath id="clip0_212_780">
<rect width="692.288" height="879.804" fill="white" transform="translate(-1)"/>
</clipPath>
</defs>
</svg>
