<svg width="718" height="876" viewBox="0 0 718 876" fill="none" xmlns="http://www.w3.org/2000/svg">
<path d="M694.597 22.7688L697.012 23.4138L702.429 3.14583C702.66 2.28283 702.413 1.36183 701.781 0.730828C701.148 0.0998276 700.227 -0.146169 699.365 0.085831L679.113 5.53283H679.114L658.852 10.9758C657.989 11.2068 657.316 11.8818 657.085 12.7448C656.855 13.6078 657.102 14.5278 657.734 15.1588L672.577 29.9768L672.576 29.9758L687.416 44.8018C688.048 45.4328 688.969 45.6798 689.831 45.4478C690.694 45.2158 691.368 44.5418 691.598 43.6788L697.012 23.4138L694.597 22.7688L692.182 22.1238L687.886 38.2038L676.11 26.4388L676.109 26.4378L664.332 14.6808L680.411 10.3618H680.412L696.48 6.03983L692.182 22.1238L694.597 22.7688Z" fill="#264296"/>
<path d="M403.349 130.723L405.302 132.283L418.397 115.892C418.954 115.194 419.098 114.252 418.772 113.42C418.445 112.588 417.701 111.993 416.818 111.86L396.082 108.723L396.083 108.723L375.34 105.578C374.457 105.443 373.569 105.792 373.011 106.489C372.454 107.188 372.312 108.129 372.637 108.961L380.287 128.49L380.286 128.488L387.93 148.023C388.256 148.855 389 149.451 389.883 149.584C390.766 149.718 391.654 149.371 392.211 148.673L405.302 132.283L403.349 130.723L401.395 129.164L391.008 142.168L384.943 126.667L384.942 126.665L378.873 111.171L395.333 113.667L395.334 113.667L411.786 116.156L401.395 129.164L403.349 130.723Z" fill="#264296"/>
<path d="M20.6411 719.667L18.593 716.407C17.6197 717.018 16.5679 717.299 15.51 717.3C14.546 717.3 13.5851 717.058 12.7381 716.6C11.888 716.139 11.1535 715.475 10.5945 714.588V714.585C9.98311 713.612 9.70131 712.56 9.69977 711.502C9.69977 710.54 9.94152 709.58 10.4004 708.732C10.8593 707.883 11.5246 707.149 12.4101 706.59C13.3802 705.983 14.429 705.701 15.4885 705.7C16.4525 705.7 17.4149 705.942 18.2634 706.4C19.1135 706.861 19.8496 707.526 20.4086 708.412L20.4101 708.415C21.0184 709.383 21.2987 710.434 21.3002 711.492C21.3018 712.456 21.0585 713.416 20.5996 714.267C20.1391 715.117 19.4738 715.853 18.5899 716.41L18.593 716.407L20.6411 719.667L22.6923 722.926C24.7204 721.651 26.3097 719.901 27.3754 717.924C28.4441 715.944 29 713.734 29 711.492C29.0031 709.037 28.3255 706.533 26.9241 704.312L26.9256 704.314C25.6506 702.284 23.9012 700.692 21.9224 699.626C19.942 698.557 17.7306 698 15.4885 698C13.0353 697.998 10.5313 698.674 8.31227 700.073C6.28261 701.346 4.69184 703.094 3.62619 705.073C2.55747 707.052 2 709.26 2 711.502C1.99846 713.959 2.67603 716.464 4.07585 718.686V718.685C5.34939 720.714 7.09879 722.307 9.07609 723.374C11.0565 724.443 13.2663 725 15.51 725C17.9631 725.002 20.4671 724.326 22.6893 722.927L22.6923 722.926L20.6411 719.667Z" fill="#264296"/>
<path d="M531.463 175.452L516.211 161.147C515.203 160.203 513.621 160.253 512.677 161.26C511.732 162.267 511.783 163.85 512.79 164.794L528.042 179.099C529.049 180.043 530.631 179.993 531.576 178.985C532.52 177.978 532.47 176.396 531.463 175.452Z" fill="#264296"/>
<path d="M516.795 179.462L531.102 164.21C532.047 163.203 531.996 161.621 530.989 160.677C529.982 159.732 528.4 159.782 527.455 160.79L513.149 176.041C512.204 177.048 512.255 178.631 513.262 179.575C514.269 180.52 515.851 180.469 516.795 179.462Z" fill="#264296"/>
<path d="M244.302 844.588L226.618 833.429C225.45 832.693 223.906 833.042 223.169 834.209C222.432 835.377 222.782 836.922 223.949 837.658L241.633 848.817C242.801 849.553 244.345 849.205 245.082 848.036C245.818 846.869 245.47 845.325 244.302 844.588Z" fill="#00160A"/>
<path d="M230.658 851.303L241.82 833.618C242.557 832.45 242.207 830.907 241.04 830.17C239.872 829.433 238.328 829.782 237.591 830.95L226.431 848.634C225.693 849.801 226.043 851.346 227.211 852.082C228.378 852.82 229.922 852.47 230.658 851.303Z" fill="#00160A"/>
<path d="M39.5827 186.08C39.2407 186.439 38.9724 186.596 38.6553 186.713C38.3772 186.812 38.041 186.869 37.6002 186.87C36.8341 186.876 35.777 186.672 34.5648 186.361C32.737 185.91 30.5844 185.214 28.1405 185.171C26.9208 185.155 25.6122 185.326 24.3225 185.836C23.0319 186.34 21.7913 187.183 20.705 188.353C19.7632 189.363 19.8184 190.944 20.8284 191.886C21.8384 192.828 23.4199 192.773 24.3618 191.763C24.9184 191.169 25.4269 190.818 25.9303 190.584C26.3703 190.38 26.8162 190.263 27.318 190.205C28.1897 190.106 29.2416 190.222 30.4201 190.478C32.1949 190.85 34.1713 191.547 36.3622 191.8C37.4595 191.918 38.6445 191.914 39.8616 191.574C41.0768 191.24 42.2796 190.531 43.2394 189.49C44.1806 188.48 44.1253 186.897 43.116 185.956C42.1061 185.014 40.5238 185.07 39.5827 186.08Z" fill="#264296"/>
<path d="M59.4095 164.818C59.0683 165.176 58.7993 165.334 58.4822 165.452C58.2047 165.55 57.8678 165.608 57.4271 165.608C56.661 165.614 55.6053 165.411 54.3923 165.1C52.5653 164.649 50.4135 163.953 47.9695 163.91C46.7499 163.894 45.4419 164.065 44.1514 164.573C42.8615 165.078 41.621 165.922 40.5347 167.091C39.5929 168.101 39.6481 169.682 40.6581 170.624C41.6681 171.566 43.2497 171.511 44.1915 170.501C44.7481 169.907 45.2566 169.557 45.7585 169.322C46.1993 169.119 46.6459 169.001 47.147 168.944C48.018 168.845 49.0699 168.96 50.2484 169.217C52.0232 169.588 53.9989 170.286 56.1898 170.538C57.2863 170.656 58.472 170.652 59.6891 170.311C60.9037 169.978 62.1064 169.269 63.0663 168.228C64.0081 167.218 63.9522 165.636 62.9429 164.694C61.9329 163.753 60.3514 163.808 59.4095 164.818Z" fill="#264296"/>
<path d="M43.2394 189.49C44.0826 188.591 44.6703 187.531 44.9659 186.453C45.2295 185.511 45.2817 184.577 45.2201 183.703C45.1092 182.169 44.6855 180.792 44.263 179.493C43.6144 177.555 42.9682 175.766 42.8618 174.32C42.8033 173.595 42.8572 172.973 43.0438 172.378C43.2339 171.784 43.5555 171.187 44.1916 170.501C45.1335 169.491 45.0783 167.909 44.0683 166.967C43.0583 166.026 41.4767 166.081 40.5349 167.091C39.5848 168.107 38.8884 169.219 38.4529 170.364C38.0698 171.366 37.8874 172.383 37.8484 173.354C37.7821 175.06 38.1244 176.617 38.5295 178.026C39.1506 180.129 39.9101 181.984 40.1434 183.355C40.2678 184.04 40.2693 184.568 40.186 184.961C40.0966 185.357 39.9642 185.659 39.5826 186.08C38.6408 187.09 38.696 188.671 39.706 189.613C40.7153 190.554 42.2976 190.5 43.2394 189.49Z" fill="#264296"/>
<path d="M63.0671 168.227C63.9103 167.329 64.4973 166.268 64.7922 165.191C65.0551 164.249 65.1074 163.315 65.0464 162.44C64.9349 160.907 64.5111 159.53 64.0893 158.232C63.44 156.293 62.7946 154.505 62.6882 153.059C62.6296 152.334 62.6829 151.712 62.8688 151.119C63.0595 150.524 63.3805 149.928 64.0159 149.242L64.0166 149.241L62.1934 147.541L63.7245 149.507C63.8705 149.393 63.9689 149.292 64.0166 149.241L62.1934 147.541L63.7245 149.507C64.8135 148.659 65.0091 147.089 64.1616 145.999C63.3127 144.909 61.7416 144.714 60.6526 145.563C60.5066 145.677 60.4083 145.779 60.3599 145.831L60.3592 145.832C59.4097 146.847 58.7134 147.959 58.2779 149.105C57.8948 150.106 57.7131 151.122 57.6741 152.094C57.6077 153.799 57.95 155.355 58.3551 156.764C58.9762 158.868 59.7357 160.722 59.9697 162.094C60.0934 162.778 60.0949 163.306 60.0124 163.699C59.9222 164.095 59.7905 164.398 59.409 164.818C58.4672 165.828 58.5238 167.41 59.5331 168.351C60.5431 169.293 62.1253 169.237 63.0671 168.227Z" fill="#264296"/>
<path d="M38.1483 221.516L36.2028 223.086L54.5132 245.774L33.7714 262.513L17.0311 241.771L39.7184 223.461L38.1483 221.516L36.2028 223.086L38.1483 221.516L36.5782 219.57L11.9455 239.45C11.4327 239.864 11.0992 240.476 11.0294 241.13C10.9594 241.785 11.1569 242.453 11.5701 242.965L31.4506 267.599C31.8638 268.111 32.4752 268.445 33.1299 268.514C33.7844 268.585 34.4533 268.388 34.9661 267.974L59.5988 248.095C60.1109 247.681 60.4443 247.069 60.5143 246.414C60.5841 245.76 60.3874 245.091 59.9742 244.579L40.0938 219.945C39.6805 219.433 39.0683 219.1 38.4138 219.029C37.7591 218.96 37.0903 219.157 36.5782 219.57L38.1483 221.516Z" fill="#00160A"/>
<path d="M650.652 795.608L649.148 797.605L672.436 815.145L656.4 836.436L635.109 820.399L652.649 797.112L650.652 795.608L649.148 797.605L650.652 795.608L648.655 794.104L629.611 819.388C629.214 819.914 629.04 820.589 629.132 821.24C629.223 821.893 629.578 822.493 630.103 822.889L655.389 841.934C655.914 842.33 656.589 842.504 657.24 842.412C657.892 842.321 658.493 841.967 658.89 841.441L677.934 816.157C678.33 815.631 678.504 814.956 678.412 814.303C678.32 813.652 677.967 813.051 677.441 812.656L652.156 793.611C651.63 793.215 650.955 793.041 650.303 793.132C649.651 793.224 649.051 793.578 648.655 794.104L650.652 795.608Z" fill="#264296"/>
<path d="M263.528 166.057C264.679 162.525 267.132 159.811 270.185 158.245C273.243 156.684 276.86 156.292 280.367 157.432C283.874 158.575 286.566 161.021 288.118 164.083C289.665 167.147 290.049 170.783 288.901 174.317C288.473 175.631 289.191 177.041 290.503 177.468C291.816 177.896 293.226 177.178 293.654 175.865C295.227 171.041 294.702 166.014 292.579 161.826C290.463 157.636 286.727 154.242 281.915 152.678C277.104 151.11 272.087 151.653 267.909 153.794C263.727 155.93 260.344 159.684 258.774 164.51C258.346 165.823 259.064 167.233 260.377 167.661C261.69 168.088 263.101 167.371 263.528 166.057Z" fill="#00160A"/>
<path d="M538.714 863.522C538.268 863.738 537.961 863.792 537.623 863.79C537.328 863.785 536.993 863.721 536.58 863.567C535.86 863.304 534.942 862.742 533.916 862.025C532.362 860.962 530.591 859.556 528.317 858.658C527.181 858.215 525.895 857.917 524.508 857.941C523.123 857.961 521.665 858.316 520.238 859.03C519.002 859.645 518.499 861.146 519.114 862.382C519.73 863.618 521.23 864.121 522.466 863.506C523.196 863.145 523.795 862.995 524.349 862.952C524.832 862.915 525.291 862.962 525.781 863.084C526.632 863.297 527.577 863.774 528.59 864.428C530.122 865.398 531.729 866.744 533.692 867.749C534.678 868.245 535.789 868.657 537.048 868.765C538.303 868.878 539.678 868.636 540.942 867.998C542.178 867.383 542.681 865.881 542.066 864.645C541.45 863.409 539.949 862.907 538.714 863.522Z" fill="#00160A"/>
<path d="M564.738 850.564C564.293 850.78 563.986 850.834 563.647 850.833C563.353 850.827 563.017 850.763 562.604 850.609C561.885 850.346 560.968 849.785 559.941 849.069C558.388 848.005 556.617 846.6 554.343 845.702C553.207 845.259 551.922 844.96 550.535 844.984C549.15 845.004 547.692 845.359 546.265 846.073C545.029 846.689 544.526 848.189 545.141 849.425C545.757 850.662 547.257 851.165 548.494 850.549C549.223 850.188 549.822 850.038 550.375 849.995C550.859 849.959 551.318 850.005 551.807 850.128C552.658 850.34 553.603 850.817 554.616 851.471C556.148 852.441 557.754 853.787 559.717 854.791C560.702 855.287 561.814 855.699 563.073 855.807C564.328 855.921 565.703 855.679 566.967 855.04C568.203 854.425 568.705 852.923 568.09 851.688C567.475 850.452 565.974 849.949 564.738 850.564Z" fill="#00160A"/>
<path d="M540.942 867.998C542.047 867.452 542.969 866.666 543.624 865.76C544.201 864.97 544.578 864.113 544.827 863.273C545.261 861.798 545.347 860.36 545.407 858.995C545.479 856.953 545.501 855.051 545.909 853.659C546.108 852.96 546.377 852.396 546.76 851.905C547.147 851.415 547.657 850.969 548.494 850.549C549.73 849.934 550.233 848.433 549.617 847.197C549.002 845.961 547.501 845.458 546.265 846.073C545.019 846.691 543.977 847.488 543.167 848.409C542.457 849.212 541.93 850.101 541.553 850.997C540.892 852.571 540.667 854.149 540.552 855.61C540.396 857.798 540.457 859.801 540.194 861.167C540.071 861.852 539.887 862.347 539.671 862.685C539.448 863.025 539.219 863.262 538.714 863.522C537.477 864.137 536.974 865.638 537.59 866.874C538.205 868.109 539.706 868.613 540.942 867.998Z" fill="#00160A"/>
<path d="M566.968 855.04C568.072 854.494 568.994 853.707 569.648 852.801C570.225 852.012 570.601 851.155 570.851 850.315C571.284 848.84 571.37 847.402 571.431 846.038C571.502 843.995 571.525 842.093 571.933 840.702C572.132 840.003 572.4 839.439 572.782 838.948C573.169 838.458 573.679 838.013 574.515 837.593L574.516 837.593L573.405 835.361L574.149 837.74C574.326 837.684 574.453 837.624 574.516 837.593L573.405 835.361L574.149 837.74C575.466 837.327 576.2 835.925 575.789 834.607C575.376 833.289 573.973 832.556 572.655 832.968C572.479 833.024 572.351 833.085 572.287 833.117L572.286 833.117C571.041 833.735 569.999 834.532 569.189 835.452C568.479 836.256 567.953 837.144 567.576 838.04C566.915 839.613 566.69 841.191 566.575 842.652C566.419 844.84 566.48 846.843 566.218 848.21C566.094 848.894 565.91 849.389 565.695 849.728C565.472 850.067 565.242 850.304 564.737 850.565C563.501 851.18 563 852.681 563.615 853.916C564.23 855.153 565.732 855.655 566.968 855.04Z" fill="#00160A"/>
<path d="M59.327 766.412H56.827C56.826 770.124 55.33 773.462 52.898 775.897C50.463 778.328 47.126 779.825 43.414 779.826C39.703 779.825 36.365 778.328 33.929 775.897C31.498 773.461 30.002 770.124 30 766.412C30.002 762.7 31.498 759.363 33.929 756.928C36.365 754.497 39.703 753.001 43.414 753C47.126 753.001 50.464 754.497 52.899 756.928C55.33 759.363 56.826 762.7 56.827 766.412H59.327H61.827C61.826 756.241 53.584 748.001 43.414 748C38.338 747.998 33.719 750.064 30.394 753.392C27.065 756.716 24.999 761.335 25 766.412C25.002 776.583 33.245 784.824 43.414 784.826C53.584 784.824 61.826 776.583 61.827 766.412H59.327Z" fill="#00160A"/>
<path d="M701.641 482.667L699.593 479.407C698.62 480.018 697.568 480.299 696.51 480.3C695.546 480.3 694.585 480.058 693.738 479.6C692.888 479.139 692.153 478.475 691.594 477.588V477.585C690.983 476.612 690.701 475.56 690.7 474.502C690.7 473.54 690.942 472.58 691.4 471.732C691.859 470.883 692.525 470.149 693.41 469.59C694.38 468.983 695.429 468.701 696.488 468.7C697.452 468.7 698.415 468.942 699.263 469.4C700.113 469.861 700.85 470.526 701.409 471.412L701.41 471.415C702.018 472.383 702.299 473.434 702.3 474.492C702.302 475.456 702.058 476.416 701.6 477.267C701.139 478.117 700.474 478.853 699.59 479.41L699.593 479.407L701.641 482.667L703.692 485.926C705.72 484.651 707.31 482.901 708.375 480.924C709.444 478.944 710 476.734 710 474.492C710.003 472.037 709.326 469.533 707.924 467.312L707.926 467.314C706.651 465.284 704.901 463.692 702.922 462.626C700.942 461.557 698.731 461 696.488 461C694.035 460.998 691.531 461.674 689.312 463.073C687.283 464.346 685.692 466.094 684.626 468.073C683.557 470.052 683 472.26 683 474.502C682.998 476.959 683.676 479.464 685.076 481.686V481.685C686.349 483.714 688.099 485.307 690.076 486.374C692.056 487.443 694.266 488 696.51 488C698.963 488.002 701.467 487.326 703.689 485.927L703.692 485.926L701.641 482.667Z" fill="#264296"/>
<path d="M691.956 508.408L717.018 487.088C717.983 486.268 718.1 484.82 717.278 483.856C716.458 482.89 715.011 482.774 714.046 483.595L688.984 504.915C688.019 505.735 687.902 507.183 688.724 508.147C689.544 509.112 690.991 509.229 691.956 508.408Z" fill="#00160A"/>
<path d="M630.99 632.371C668.877 556.625 671.431 455.707 645.276 374.785C622.796 305.13 572.644 251.987 514.762 220.342C447.607 183.644 367.559 172.718 295.487 195.881C276.53 201.973 258.078 207.559 240.2 217.57C166.926 258.612 181.061 359.748 155.357 394.916C133.737 424.513 92.3677 415.785 66.295 438.471C-4.09733 499.672 -4.24757 654.374 76.9481 702.722C163.074 754.035 537.148 819.988 630.99 632.371Z" fill="#264296"/>
<path opacity="0.8" d="M630.99 632.371C668.877 556.625 671.431 455.707 645.276 374.785C622.796 305.13 572.644 251.988 514.762 220.342C447.607 183.644 367.559 172.718 295.487 195.881C276.529 201.973 258.078 207.559 240.2 217.57C166.926 258.612 181.061 359.748 155.357 394.916C133.737 424.513 92.3677 415.786 66.295 438.471C-4.09733 499.672 -4.24757 654.374 76.9481 702.722C163.074 754.035 537.148 819.988 630.99 632.371Z" fill="#B8D4EA"/>
<path d="M384.972 708.923C386.293 710.59 387.011 712.655 387.011 714.782C387.011 716.909 386.293 718.974 384.972 720.641H468.982L471.467 714.249L468.271 708.568L384.972 708.923Z" fill="white"/>
<path d="M468.982 721.324H384.973C384.848 721.326 384.725 721.293 384.618 721.227C384.512 721.162 384.426 721.068 384.372 720.955C384.305 720.849 384.27 720.726 384.27 720.6C384.27 720.475 384.305 720.352 384.372 720.245C385.625 718.7 386.309 716.771 386.309 714.782C386.309 712.793 385.625 710.864 384.372 709.319C384.29 709.216 384.239 709.093 384.222 708.963C384.205 708.834 384.224 708.702 384.276 708.581C384.33 708.464 384.417 708.364 384.526 708.294C384.635 708.224 384.761 708.186 384.891 708.185L468.203 707.83C468.323 707.825 468.443 707.854 468.547 707.915C468.651 707.975 468.736 708.065 468.79 708.172L471.986 713.867C472.033 713.955 472.057 714.054 472.057 714.154C472.057 714.254 472.033 714.352 471.986 714.441L469.501 720.846C469.467 720.966 469.401 721.075 469.309 721.159C469.218 721.244 469.104 721.301 468.982 721.324ZM386.229 719.958H468.463L470.662 714.304L467.821 709.251L386.202 709.606C387.155 711.163 387.662 712.952 387.667 714.778C387.672 716.604 387.174 718.396 386.229 719.958Z" fill="#263238"/>
<path d="M468.982 720.354V709.701H390.108V706.97H495.041C496.124 706.925 497.205 707.1 498.219 707.484C499.234 707.868 500.16 708.452 500.942 709.203C501.724 709.954 502.347 710.855 502.772 711.853C503.197 712.85 503.417 713.923 503.417 715.007C503.417 716.092 503.197 717.165 502.772 718.162C502.347 719.16 501.724 720.061 500.942 720.812C500.16 721.562 499.234 722.147 498.219 722.531C497.205 722.915 496.124 723.09 495.041 723.045H390.108V720.313L468.982 720.354Z" fill="#264296"/>
<path d="M495.041 723.714H390.108C389.927 723.714 389.753 723.642 389.625 723.514C389.497 723.386 389.425 723.212 389.425 723.031V720.3C389.425 720.119 389.497 719.945 389.625 719.817C389.753 719.689 389.927 719.617 390.108 719.617H468.299V710.261H390.108C389.927 710.261 389.753 710.189 389.625 710.061C389.497 709.933 389.425 709.76 389.425 709.578V706.847C389.425 706.666 389.497 706.492 389.625 706.364C389.753 706.236 389.927 706.164 390.108 706.164H495.041C496.215 706.118 497.386 706.309 498.485 706.726C499.584 707.143 500.587 707.778 501.434 708.592C502.281 709.407 502.955 710.384 503.415 711.465C503.876 712.546 504.113 713.709 504.113 714.885C504.113 716.06 503.876 717.223 503.415 718.304C502.955 719.385 502.281 720.362 501.434 721.176C500.587 721.991 499.584 722.626 498.485 723.043C497.386 723.46 496.215 723.651 495.041 723.605V723.714ZM390.791 722.348H495.041C496.033 722.391 497.024 722.233 497.954 721.882C498.883 721.532 499.732 720.997 500.45 720.31C501.167 719.623 501.738 718.798 502.128 717.884C502.518 716.97 502.719 715.987 502.719 714.994C502.719 714 502.518 713.017 502.128 712.104C501.738 711.19 501.167 710.365 500.45 709.677C499.732 708.99 498.883 708.455 497.954 708.105C497.024 707.755 496.033 707.596 495.041 707.639H390.791V709.005H468.982C469.163 709.005 469.336 709.077 469.464 709.205C469.593 709.333 469.665 709.507 469.665 709.688V720.409C469.665 720.59 469.593 720.764 469.464 720.892C469.336 721.02 469.163 721.092 468.982 721.092H390.791V722.348Z" fill="#263238"/>
<path d="M468.982 715.001C468.982 713.577 468.416 712.212 467.41 711.205C466.403 710.199 465.038 709.633 463.614 709.633H381.777V706.902H465.089C466.102 706.902 467.105 707.101 468.04 707.489C468.976 707.877 469.825 708.446 470.541 709.162C471.256 709.879 471.823 710.73 472.21 711.666C472.596 712.602 472.794 713.605 472.792 714.618C472.792 716.835 471.912 718.961 470.344 720.529C468.776 722.096 466.65 722.977 464.434 722.977H381.777V720.245H463.614C465.018 720.249 466.367 719.702 467.371 718.721C468.374 717.74 468.953 716.404 468.982 715.001Z" fill="#264296"/>
<path d="M464.474 723.714H381.777C381.595 723.714 381.422 723.642 381.294 723.514C381.166 723.386 381.094 723.213 381.094 723.031V720.3C381.094 720.119 381.166 719.945 381.294 719.817C381.422 719.689 381.595 719.617 381.777 719.617H463.614C464.25 719.651 464.886 719.556 465.483 719.336C466.08 719.117 466.627 718.778 467.089 718.34C467.551 717.902 467.919 717.375 468.17 716.79C468.422 716.205 468.552 715.576 468.552 714.939C468.552 714.303 468.422 713.673 468.17 713.088C467.919 712.503 467.551 711.976 467.089 711.538C466.627 711.101 466.08 710.762 465.483 710.542C464.886 710.322 464.25 710.227 463.614 710.261H381.777C381.595 710.261 381.422 710.189 381.294 710.061C381.166 709.933 381.094 709.76 381.094 709.578V706.847C381.094 706.666 381.166 706.492 381.294 706.364C381.422 706.236 381.595 706.164 381.777 706.164H465.089C467.316 706.168 469.45 707.054 471.024 708.628C472.599 710.203 473.485 712.337 473.489 714.564C473.499 715.757 473.275 716.94 472.827 718.047C472.38 719.153 471.718 720.16 470.881 721.01C470.043 721.86 469.047 722.536 467.947 723.001C466.848 723.465 465.668 723.707 464.474 723.714ZM382.459 722.349H464.474C466.511 722.349 468.465 721.54 469.907 720.101C471.348 718.662 472.16 716.71 472.164 714.673C472.16 712.808 471.418 711.021 470.1 709.703C468.781 708.385 466.994 707.643 465.13 707.639H382.418V709.005H463.573C464.391 708.966 465.208 709.093 465.975 709.38C466.742 709.666 467.443 710.105 468.036 710.67C468.628 711.235 469.1 711.914 469.422 712.667C469.745 713.419 469.911 714.23 469.911 715.048C469.911 715.867 469.745 716.677 469.422 717.43C469.1 718.183 468.628 718.862 468.036 719.427C467.443 719.992 466.742 720.431 465.975 720.717C465.208 721.003 464.391 721.131 463.573 721.092H382.418L382.459 722.349Z" fill="#263238"/>
<path d="M383.934 675.898C385.255 677.566 385.974 679.63 385.974 681.758C385.974 683.885 385.255 685.949 383.934 687.617H467.93L470.429 681.225L467.22 675.557L383.934 675.898Z" fill="white"/>
<path d="M467.944 688.3H383.934C383.808 688.301 383.683 688.267 383.575 688.202C383.466 688.137 383.378 688.043 383.32 687.931C383.256 687.823 383.223 687.701 383.223 687.576C383.223 687.451 383.256 687.328 383.32 687.221C384.554 685.667 385.226 683.742 385.226 681.758C385.226 679.773 384.554 677.848 383.32 676.294C383.234 676.194 383.178 676.072 383.158 675.941C383.139 675.811 383.157 675.678 383.211 675.557C383.266 675.437 383.355 675.336 383.466 675.266C383.578 675.196 383.707 675.159 383.839 675.161L467.152 674.806C467.271 674.814 467.387 674.85 467.49 674.909C467.594 674.968 467.684 675.049 467.752 675.147L470.948 680.842C470.992 680.932 471.014 681.03 471.014 681.129C471.014 681.229 470.992 681.327 470.948 681.416L468.572 687.849C468.528 687.981 468.444 688.096 468.331 688.177C468.218 688.258 468.083 688.301 467.944 688.3ZM385.191 686.934H467.466L469.665 681.279L466.824 676.226L385.218 676.581C386.151 678.149 386.638 679.942 386.626 681.767C386.614 683.592 386.104 685.378 385.15 686.934H385.191Z" fill="#263238"/>
<path d="M467.93 687.33V676.609H389.056V673.877H494.003C495.086 673.832 496.167 674.007 497.181 674.391C498.196 674.775 499.122 675.36 499.904 676.11C500.686 676.861 501.309 677.762 501.734 678.76C502.159 679.757 502.379 680.83 502.379 681.915C502.379 682.999 502.159 684.072 501.734 685.069C501.309 686.067 500.686 686.968 499.904 687.719C499.122 688.47 498.196 689.054 497.181 689.438C496.167 689.822 495.086 689.997 494.003 689.952H389.056V687.221L467.93 687.33Z" fill="#264296"/>
<path d="M494.003 690.69H389.056C388.875 690.69 388.701 690.618 388.573 690.49C388.445 690.362 388.373 690.188 388.373 690.007V687.275C388.377 687.095 388.45 686.924 388.577 686.796C388.705 686.669 388.876 686.596 389.056 686.592H467.261V677.237H389.056C388.875 677.237 388.701 677.165 388.573 677.037C388.445 676.909 388.373 676.735 388.373 676.554V673.822C388.373 673.641 388.445 673.468 388.573 673.339C388.701 673.211 388.875 673.139 389.056 673.139H494.003C495.177 673.093 496.348 673.284 497.447 673.701C498.546 674.119 499.549 674.754 500.396 675.568C501.243 676.382 501.917 677.359 502.377 678.441C502.838 679.522 503.075 680.685 503.075 681.86C503.075 683.035 502.838 684.198 502.377 685.279C501.917 686.361 501.243 687.338 500.396 688.152C499.549 688.966 498.546 689.601 497.447 690.018C496.348 690.436 495.177 690.627 494.003 690.58V690.69ZM389.739 689.324H494.003C494.995 689.367 495.986 689.208 496.916 688.858C497.845 688.508 498.694 687.973 499.412 687.286C500.129 686.598 500.7 685.773 501.09 684.859C501.48 683.946 501.681 682.963 501.681 681.969C501.681 680.976 501.48 679.993 501.09 679.079C500.7 678.165 500.129 677.34 499.412 676.653C498.694 675.966 497.845 675.431 496.916 675.081C495.986 674.73 494.995 674.572 494.003 674.614H389.739V675.98H467.944C468.125 675.98 468.298 676.052 468.427 676.18C468.555 676.308 468.627 676.482 468.627 676.663V687.385C468.627 687.566 468.555 687.739 468.427 687.867C468.298 687.995 468.125 688.067 467.944 688.067H389.739V689.324Z" fill="#263238"/>
<path d="M467.93 681.976C467.932 681.272 467.795 680.574 467.526 679.923C467.258 679.272 466.864 678.68 466.367 678.181C465.869 677.683 465.279 677.287 464.628 677.017C463.978 676.747 463.28 676.609 462.576 676.609H380.739V673.877H464.051C466.093 673.881 468.05 674.693 469.494 676.137C470.938 677.581 471.751 679.538 471.754 681.58C471.756 682.679 471.541 683.767 471.122 684.783C470.703 685.799 470.087 686.722 469.311 687.499C468.534 688.277 467.612 688.894 466.597 689.315C465.582 689.736 464.494 689.952 463.396 689.952H380.739V687.221H462.576C463.977 687.221 465.323 686.672 466.324 685.691C467.325 684.711 467.901 683.377 467.93 681.976Z" fill="#264296"/>
<path d="M463.437 690.69H380.739C380.557 690.69 380.384 690.618 380.256 690.49C380.128 690.362 380.056 690.188 380.056 690.007V687.275C380.056 687.094 380.128 686.92 380.256 686.792C380.384 686.664 380.557 686.592 380.739 686.592H462.576C463.212 686.627 463.848 686.531 464.445 686.312C465.042 686.092 465.589 685.753 466.051 685.315C466.513 684.878 466.881 684.35 467.132 683.766C467.384 683.181 467.514 682.551 467.514 681.915C467.514 681.278 467.384 680.648 467.132 680.064C466.881 679.479 466.513 678.952 466.051 678.514C465.589 678.076 465.042 677.737 464.445 677.518C463.848 677.298 463.212 677.202 462.576 677.237H380.739C380.557 677.237 380.384 677.165 380.256 677.037C380.128 676.909 380.056 676.735 380.056 676.554V673.822C380.056 673.641 380.128 673.468 380.256 673.339C380.384 673.211 380.557 673.139 380.739 673.139H464.051C466.276 673.143 468.409 674.03 469.982 675.604C471.554 677.179 472.437 679.314 472.437 681.539C472.45 682.732 472.227 683.915 471.781 685.021C471.335 686.127 470.674 687.134 469.838 687.984C469.002 688.835 468.006 689.511 466.907 689.976C465.809 690.44 464.629 690.683 463.437 690.69ZM381.421 689.324H463.437C465.472 689.324 467.425 688.515 468.864 687.076C470.304 685.636 471.112 683.684 471.112 681.648C471.112 679.785 470.373 677.998 469.057 676.679C467.741 675.361 465.955 674.618 464.092 674.614H381.421V675.98H462.576C463.394 675.941 464.211 676.069 464.978 676.355C465.745 676.641 466.446 677.08 467.039 677.645C467.631 678.21 468.103 678.89 468.425 679.642C468.748 680.395 468.914 681.205 468.914 682.024C468.914 682.843 468.748 683.653 468.425 684.405C468.103 685.158 467.631 685.838 467.039 686.403C466.446 686.968 465.745 687.406 464.978 687.693C464.211 687.979 463.394 688.106 462.576 688.067H381.421V689.324Z" fill="#263238"/>
<path d="M390.613 692.93C391.935 694.599 392.654 696.666 392.654 698.796C392.654 700.925 391.935 702.992 390.613 704.662H474.622L477.108 698.256L473.926 692.574L390.613 692.93Z" fill="white"/>
<path d="M474.663 705.345H390.613C390.489 705.345 390.366 705.311 390.26 705.246C390.154 705.181 390.068 705.087 390.012 704.976C389.946 704.867 389.911 704.741 389.911 704.614C389.911 704.486 389.946 704.361 390.012 704.252C391.244 702.697 391.915 700.772 391.915 698.789C391.915 696.805 391.244 694.88 390.012 693.326C389.925 693.229 389.869 693.108 389.851 692.979C389.834 692.849 389.857 692.718 389.917 692.602C389.968 692.481 390.053 692.377 390.162 692.304C390.272 692.232 390.4 692.192 390.531 692.192L473.844 691.837C473.965 691.838 474.083 691.871 474.186 691.934C474.29 691.996 474.374 692.085 474.431 692.192L477.627 697.874C477.674 697.965 477.698 698.065 477.698 698.167C477.698 698.269 477.674 698.37 477.627 698.461L475.292 704.907C475.242 705.035 475.156 705.144 475.044 705.222C474.932 705.3 474.8 705.343 474.663 705.345ZM391.911 703.979H474.199L476.398 698.311L473.543 693.257L391.938 693.612C392.895 695.171 393.404 696.962 393.412 698.79C393.419 700.618 392.923 702.413 391.979 703.979H391.911Z" fill="#263238"/>
<path d="M474.663 704.375V693.64H395.789V690.908H500.722C502.856 690.908 504.902 691.756 506.411 693.264C507.919 694.773 508.767 696.819 508.767 698.953C508.767 701.086 507.919 703.132 506.411 704.641C504.902 706.15 502.856 706.997 500.722 706.997H395.789V704.266L474.663 704.375Z" fill="#263238"/>
<path d="M500.722 707.735H395.789C395.608 707.735 395.435 707.663 395.307 707.535C395.178 707.407 395.107 707.233 395.107 707.052V704.32C395.107 704.139 395.178 703.965 395.307 703.837C395.435 703.709 395.608 703.637 395.789 703.637H473.926V694.268H395.789C395.608 694.268 395.435 694.196 395.307 694.068C395.178 693.94 395.107 693.766 395.107 693.585V690.854C395.107 690.673 395.178 690.499 395.307 690.371C395.435 690.243 395.608 690.171 395.789 690.171H500.722C503.037 690.171 505.257 691.09 506.893 692.727C508.53 694.364 509.45 696.583 509.45 698.898C509.45 701.213 508.53 703.433 506.893 705.069C505.257 706.706 503.037 707.625 500.722 707.625V707.735ZM396.472 706.369H500.722C502.675 706.369 504.547 705.593 505.928 704.213C507.308 702.832 508.084 700.96 508.084 699.007C508.084 697.055 507.308 695.182 505.928 693.802C504.547 692.421 502.675 691.646 500.722 691.646H396.472V693.012H474.663C474.843 693.015 475.015 693.088 475.142 693.215C475.27 693.343 475.343 693.514 475.346 693.694V704.429C475.343 704.61 475.27 704.781 475.142 704.908C475.015 705.036 474.843 705.109 474.663 705.112H396.472V706.369Z" fill="#263238"/>
<path d="M474.663 699.007C474.663 697.584 474.098 696.219 473.091 695.212C472.085 694.205 470.719 693.64 469.296 693.64H387.458V690.908H470.771C471.784 690.908 472.786 691.108 473.722 691.496C474.657 691.884 475.507 692.452 476.222 693.169C476.938 693.886 477.505 694.737 477.891 695.673C478.278 696.609 478.476 697.612 478.474 698.625C478.474 700.843 477.594 702.97 476.027 704.54C474.459 706.11 472.333 706.994 470.115 706.997H387.458V704.266H469.296C470.701 704.266 472.05 703.715 473.053 702.732C474.057 701.749 474.635 700.412 474.663 699.007Z" fill="#264296"/>
<path d="M470.156 707.735H387.458C387.277 707.735 387.103 707.663 386.975 707.535C386.847 707.407 386.775 707.233 386.775 707.052V704.32C386.775 704.139 386.847 703.965 386.975 703.837C387.103 703.709 387.277 703.637 387.458 703.637H469.296C470.538 703.637 471.73 703.144 472.608 702.265C473.487 701.387 473.98 700.195 473.98 698.953C473.98 697.71 473.487 696.519 472.608 695.64C471.73 694.762 470.538 694.268 469.296 694.268H387.458C387.277 694.268 387.103 694.196 386.975 694.068C386.847 693.94 386.775 693.766 386.775 693.585V690.854C386.775 690.673 386.847 690.499 386.975 690.371C387.103 690.243 387.277 690.171 387.458 690.171H470.771C472.996 690.174 475.129 691.061 476.701 692.636C478.274 694.211 479.157 696.345 479.157 698.57C479.169 699.764 478.946 700.948 478.5 702.054C478.055 703.161 477.395 704.169 476.559 705.021C475.722 705.872 474.726 706.55 473.628 707.016C472.529 707.481 471.349 707.726 470.156 707.735ZM388.141 706.369H470.156C472.193 706.365 474.145 705.554 475.584 704.112C477.024 702.67 477.832 700.717 477.832 698.68C477.832 696.816 477.093 695.029 475.776 693.711C474.46 692.392 472.675 691.649 470.812 691.646H388.141V693.012H469.296C470.9 693.012 472.439 693.649 473.574 694.784C474.709 695.918 475.346 697.457 475.346 699.062C475.346 700.667 474.709 702.206 473.574 703.34C472.439 704.475 470.9 705.112 469.296 705.112H388.141V706.369Z" fill="#263238"/>
<path d="M657.022 722.349H34.5405V723.714H657.022V722.349Z" fill="#263238"/>
<path d="M536.943 645.51C536.943 645.51 536.642 637.82 533.392 632.48C530.141 627.14 518.286 623.302 512.072 625.979C508.926 627.273 505.861 628.756 502.894 630.418C509.071 632.35 514.95 635.131 520.362 638.681C525.362 642.07 531.006 644.395 536.943 645.51Z" fill="#64FCD9"/>
<path d="M536.943 646.138H536.847C530.805 645.025 525.061 642.667 519.98 639.213C514.627 635.697 508.813 632.939 502.703 631.019C502.575 630.982 502.461 630.907 502.376 630.805C502.291 630.703 502.238 630.577 502.225 630.445C502.207 630.314 502.228 630.18 502.287 630.061C502.345 629.942 502.438 629.842 502.552 629.776C505.543 628.092 508.636 626.595 511.812 625.296C518.204 622.565 530.428 626.28 533.979 632.125C537.284 637.588 537.612 645.168 537.626 645.482C537.629 645.583 537.611 645.683 537.57 645.775C537.53 645.867 537.47 645.949 537.393 646.015C537.265 646.112 537.103 646.156 536.943 646.138ZM504.601 630.199C510.295 632.129 515.72 634.777 520.745 638.08C525.437 641.22 530.684 643.44 536.205 644.622C535.907 640.481 534.749 636.449 532.804 632.781C529.608 627.563 518.15 624.053 512.318 626.553C508.603 628.151 506.035 629.435 504.601 630.199Z" fill="#263238"/>
<path d="M549.371 649.307C549.371 649.307 542.269 642.478 541.081 633.026C539.893 623.575 549.972 608.743 549.972 608.743C553.301 615.07 555.978 621.719 557.962 628.588C560.926 639.241 549.371 649.307 549.371 649.307Z" fill="#64FCD9"/>
<path d="M549.371 649.989C549.198 649.986 549.033 649.918 548.907 649.798C548.607 649.511 541.614 642.71 540.412 633.108C539.21 623.507 548.989 608.975 549.399 608.36C549.462 608.262 549.548 608.181 549.651 608.124C549.754 608.068 549.869 608.038 549.986 608.038C550.103 608.038 550.218 608.068 550.321 608.124C550.424 608.181 550.51 608.262 550.573 608.36C553.911 614.755 556.602 621.467 558.604 628.396C561.65 639.323 550.3 649.402 549.808 649.826C549.687 649.93 549.532 649.988 549.371 649.989ZM549.904 610.095C547.746 613.509 540.794 625.201 541.709 632.945C542.624 640.688 547.787 646.684 549.344 648.35C551.447 646.329 559.724 637.656 557.252 628.765C555.401 622.323 552.94 616.071 549.904 610.095Z" fill="#263238"/>
<path d="M562.988 646.343C562.988 646.343 561.213 637.465 564.477 631.251C567.741 625.037 576.318 625.624 584.895 628.287C593.472 630.951 596.149 630.95 596.149 630.95C590.235 634.92 583.999 638.387 577.506 641.317C572.785 643.314 567.934 644.993 562.988 646.343Z" fill="#64FCD9"/>
<path d="M562.988 647.026C562.881 647 562.783 646.949 562.701 646.875C562.543 646.77 562.431 646.609 562.387 646.425C562.319 646.056 560.612 637.233 563.931 630.882C566.853 625.31 574.188 624.176 585.168 627.577C593.472 630.158 596.19 630.213 596.218 630.213C596.365 630.213 596.509 630.261 596.627 630.35C596.746 630.438 596.832 630.563 596.873 630.705C596.914 630.843 596.91 630.99 596.861 631.126C596.812 631.261 596.72 631.377 596.6 631.456C590.613 635.475 584.299 638.984 577.725 641.945C572.973 643.947 568.096 645.64 563.125 647.012L562.988 647.026ZM574.283 627.072C570.309 627.072 566.826 628.219 565.078 631.565C562.496 636.496 563.22 643.283 563.548 645.496C568.192 644.161 572.753 642.551 577.206 640.675C583.11 638.046 588.792 634.945 594.196 631.401C590.961 630.783 587.768 629.962 584.636 628.943C581.293 627.825 577.806 627.195 574.283 627.072Z" fill="#263238"/>
<path d="M549.453 678.288C549.25 678.288 549.056 678.208 548.913 678.064C548.769 677.921 548.688 677.726 548.688 677.524V635.184C548.688 634.982 548.769 634.787 548.913 634.644C549.056 634.5 549.25 634.42 549.453 634.42C549.656 634.42 549.851 634.5 549.994 634.644C550.138 634.787 550.218 634.982 550.218 635.184V677.524C550.218 677.726 550.138 677.921 549.994 678.064C549.851 678.208 549.656 678.288 549.453 678.288Z" fill="#263238"/>
<path d="M553.004 678.288H552.909C552.808 678.277 552.712 678.245 552.624 678.195C552.536 678.145 552.459 678.078 552.398 677.998C552.337 677.917 552.292 677.825 552.268 677.728C552.243 677.63 552.238 677.528 552.253 677.428C552.39 676.376 555.968 651.287 568.123 637.37C568.185 637.281 568.264 637.206 568.356 637.15C568.448 637.094 568.55 637.058 568.657 637.044C568.764 637.031 568.873 637.04 568.976 637.071C569.079 637.103 569.174 637.155 569.255 637.226C569.337 637.297 569.402 637.384 569.447 637.481C569.493 637.579 569.517 637.685 569.518 637.793C569.52 637.901 569.499 638.007 569.456 638.106C569.413 638.205 569.35 638.294 569.271 638.367C557.429 651.943 553.796 677.387 553.769 677.647C553.74 677.827 553.646 677.992 553.506 678.11C553.366 678.227 553.188 678.291 553.004 678.288Z" fill="#263238"/>
<path d="M545.902 677.66C545.701 677.653 545.51 677.568 545.369 677.423C545.229 677.278 545.151 677.084 545.151 676.882C545.151 676.636 545.26 652.543 530.933 641.071C530.776 640.943 530.676 640.758 530.653 640.556C530.63 640.355 530.686 640.152 530.81 639.992C530.874 639.914 530.952 639.849 531.041 639.801C531.13 639.753 531.227 639.723 531.327 639.713C531.427 639.703 531.529 639.713 531.625 639.742C531.722 639.771 531.811 639.819 531.889 639.883C546.817 651.82 546.694 675.885 546.681 676.895C546.681 676.997 546.661 677.098 546.621 677.191C546.582 677.285 546.524 677.37 546.452 677.441C546.379 677.512 546.294 677.568 546.199 677.606C546.105 677.644 546.004 677.662 545.902 677.66Z" fill="#263238"/>
<path d="M557.744 677.36H557.552C557.356 677.305 557.189 677.176 557.087 677C556.985 676.824 556.956 676.615 557.006 676.417C558.499 671.23 560.839 666.324 563.931 661.899C563.986 661.811 564.059 661.736 564.145 661.677C564.231 661.618 564.328 661.578 564.43 661.558C564.532 661.538 564.637 661.539 564.739 661.561C564.84 661.583 564.936 661.626 565.021 661.686C565.106 661.747 565.177 661.824 565.231 661.913C565.285 662.002 565.32 662.101 565.334 662.204C565.348 662.307 565.341 662.412 565.314 662.512C565.286 662.612 565.238 662.706 565.173 662.787C562.218 667.056 559.959 671.768 558.481 676.745C558.447 676.916 558.355 677.071 558.221 677.183C558.087 677.294 557.918 677.357 557.744 677.36Z" fill="#263238"/>
<path d="M562.401 665.587C562.401 665.587 562.1 657.296 565.665 656.108C569.23 654.92 572.494 657.897 575.13 659.673C577.766 661.448 580.757 663.224 580.757 668.55C580.452 673.627 579.758 678.672 578.681 683.642C578.681 683.642 575.731 674.464 570.691 670.326C565.651 666.188 562.401 665.587 562.401 665.587Z" fill="#64FCD9"/>
<path d="M578.681 684.325C578.539 684.324 578.401 684.279 578.286 684.196C578.171 684.112 578.085 683.995 578.039 683.861C578.039 683.765 575.075 674.819 570.254 670.845C565.433 666.871 562.305 666.27 562.278 666.256C562.126 666.228 561.987 666.15 561.886 666.033C561.784 665.916 561.725 665.769 561.718 665.614C561.718 664.713 561.513 656.777 565.447 655.466C568.793 654.36 571.838 656.518 574.297 658.198C574.72 658.498 575.116 658.785 575.512 659.045L575.786 659.222C578.435 660.984 581.44 662.978 581.44 668.496C581.139 673.627 580.441 678.728 579.35 683.752C579.318 683.897 579.239 684.027 579.125 684.123C579.012 684.219 578.87 684.276 578.722 684.284L578.681 684.325ZM563.07 665.054C566.038 666.097 568.775 667.707 571.128 669.793C574.72 672.757 577.247 678.084 578.49 681.143C579.337 676.992 579.866 672.782 580.074 668.55C580.074 663.77 577.629 662.145 575.034 660.424L574.748 660.233C574.351 659.973 573.928 659.673 573.505 659.372C571.197 657.733 568.574 655.862 565.87 656.764C563.535 657.542 563.07 662.609 563.07 665.054Z" fill="#263238"/>
<path d="M540.576 677.66C540.412 677.66 540.253 677.608 540.121 677.513C539.989 677.417 539.89 677.282 539.838 677.128C538.304 672.695 535.64 668.741 532.108 665.655C532.029 665.592 531.963 665.515 531.913 665.427C531.864 665.338 531.833 665.241 531.822 665.141C531.81 665.041 531.819 664.939 531.847 664.842C531.875 664.745 531.922 664.655 531.985 664.576C532.046 664.497 532.123 664.431 532.21 664.382C532.297 664.333 532.393 664.302 532.492 664.291C532.591 664.279 532.691 664.288 532.787 664.316C532.883 664.344 532.973 664.39 533.05 664.453C536.819 667.722 539.648 671.937 541.245 676.663C541.277 676.758 541.289 676.859 541.281 676.958C541.274 677.058 541.246 677.156 541.2 677.245C541.155 677.334 541.092 677.413 541.015 677.477C540.938 677.541 540.849 677.59 540.753 677.619C540.696 677.641 540.636 677.654 540.576 677.66Z" fill="#263238"/>
<path d="M536.943 668.25C536.943 668.25 538.131 662.923 535.167 659.072C532.204 655.22 525.101 656.108 521.509 660.26C517.917 664.412 512.919 676.841 512.919 676.841C512.919 676.841 520.021 671.214 528.311 671.214C536.601 671.214 536.943 668.25 536.943 668.25Z" fill="#64FCD9"/>
<path d="M512.96 677.524C512.813 677.518 512.671 677.47 512.55 677.387C512.429 677.296 512.343 677.167 512.303 677.021C512.264 676.876 512.273 676.721 512.331 676.581C512.536 676.076 517.453 664.002 521.031 659.809C522.139 658.574 523.498 657.589 525.017 656.923C526.537 656.256 528.181 655.922 529.841 655.944C530.962 655.927 532.073 656.163 533.09 656.636C534.107 657.109 535.004 657.807 535.713 658.676C538.746 662.623 537.721 667.895 537.612 668.387C537.503 668.878 536.711 671.91 528.352 671.91C520.417 671.91 513.451 677.373 513.328 677.373C513.223 677.458 513.094 677.51 512.96 677.524ZM529.567 657.296C528.15 657.311 526.751 657.621 525.46 658.207C524.169 658.792 523.014 659.641 522.069 660.697C519.515 663.688 516.101 671.227 514.503 674.942C518.636 672.248 523.422 670.724 528.352 670.531C535.727 670.531 536.26 668.182 536.26 668.154C536.26 668.154 537.339 663.087 534.607 659.55C534.02 658.846 533.282 658.283 532.447 657.905C531.612 657.526 530.702 657.342 529.786 657.365L529.567 657.296Z" fill="#263238"/>
<path d="M560.53 723.031H536.902L525.088 683.956H572.344L560.53 723.031Z" fill="white"/>
<path d="M560.53 723.714H536.902C536.756 723.715 536.613 723.669 536.495 723.583C536.377 723.497 536.29 723.376 536.246 723.236L524.46 684.161C524.433 684.057 524.428 683.948 524.447 683.842C524.466 683.736 524.508 683.635 524.569 683.547C524.634 683.463 524.717 683.396 524.811 683.348C524.906 683.301 525.009 683.276 525.115 683.274H572.371C572.477 683.275 572.581 683.3 572.676 683.347C572.77 683.394 572.853 683.463 572.917 683.547C572.984 683.633 573.029 683.733 573.048 683.84C573.067 683.948 573.06 684.058 573.027 684.161L561.213 723.236C561.168 723.38 561.076 723.505 560.953 723.592C560.829 723.678 560.68 723.721 560.53 723.714ZM537.407 722.349H559.97L571.374 684.639H526.017L537.407 722.349Z" fill="#263238"/>
<path d="M572.48 677.483H524.965V683.956H572.48V677.483Z" fill="white"/>
<path d="M572.48 684.639H524.965C524.784 684.639 524.61 684.567 524.482 684.439C524.354 684.311 524.282 684.138 524.282 683.956V677.483C524.282 677.302 524.354 677.128 524.482 677C524.61 676.872 524.784 676.8 524.965 676.8H572.48C572.661 676.8 572.835 676.872 572.963 677C573.091 677.128 573.163 677.302 573.163 677.483V683.956C573.163 684.138 573.091 684.311 572.963 684.439C572.835 684.567 572.661 684.639 572.48 684.639ZM525.648 683.274H571.797V678.166H525.648V683.274Z" fill="#263238"/>
<path d="M609.957 582.056H170.9V572.345H609.957V582.056ZM172.266 580.69H608.592V573.711H172.266V580.69Z" fill="#263238"/>
<path d="M609.957 577.726H170.9V311.59H609.957V577.726ZM172.266 576.36H608.592V312.956H172.266V576.36Z" fill="#263238"/>
<path d="M600.233 321.588H180.624V567.729H600.233V321.588Z" fill="#808080"/>
<path d="M600.943 568.411H179.942V320.905H600.943V568.411ZM181.335 567.046H599.577V322.271H181.307L181.335 567.046Z" fill="#263238"/>
<path d="M356.086 509.546C355.309 509.561 354.55 509.316 353.928 508.85C353.299 508.376 352.792 507.758 352.453 507.047C352.09 506.327 351.903 505.531 351.907 504.725C351.872 503.597 352.096 502.475 352.563 501.447C352.98 500.573 353.586 499.804 354.338 499.194C355.139 498.549 356.02 498.012 356.96 497.596C357.957 497.145 359.009 496.694 360.115 496.23V494.755C360.127 494.056 360.081 493.357 359.979 492.665C359.918 492.197 359.707 491.761 359.378 491.422C358.99 491.119 358.503 490.972 358.012 491.013C357.559 490.991 357.112 491.12 356.742 491.381C356.4 491.637 356.151 491.996 356.032 492.406C355.88 492.911 355.807 493.436 355.813 493.963V495.014L352.003 494.864C351.912 493.043 352.479 491.249 353.6 489.811C354.222 489.223 354.961 488.774 355.768 488.491C356.575 488.209 357.433 488.1 358.285 488.172C359.097 488.09 359.918 488.201 360.679 488.495C361.441 488.79 362.123 489.259 362.669 489.865C363.63 491.312 364.086 493.036 363.967 494.769V504.329C363.967 504.971 363.967 505.599 363.967 506.2C363.967 506.801 364.049 507.347 364.117 507.866C364.185 508.385 364.226 508.877 364.281 509.328H360.744C360.675 508.945 360.58 508.454 360.47 507.866C360.361 507.279 360.293 506.746 360.238 506.268C359.982 507.131 359.512 507.916 358.872 508.549C358.5 508.896 358.061 509.163 357.582 509.335C357.103 509.506 356.594 509.578 356.086 509.546ZM357.602 506.241C357.986 506.24 358.362 506.126 358.681 505.913C359.005 505.698 359.307 505.451 359.583 505.176C359.784 504.973 359.962 504.748 360.115 504.507V498.606C359.514 498.934 358.954 499.276 358.422 499.617C357.935 499.925 357.478 500.277 357.056 500.669C356.668 501.032 356.349 501.463 356.113 501.939C355.876 502.437 355.759 502.985 355.772 503.537C355.74 504.227 355.901 504.913 356.236 505.517C356.386 505.739 356.591 505.918 356.83 506.038C357.069 506.157 357.335 506.213 357.602 506.2V506.241Z" fill="#E0E0E0"/>
<path d="M366.029 509.259L370.714 498.333L366.166 488.445H369.84L372.899 495.042L375.63 488.445H379.4L374.647 498.784L379.482 509.259H375.808L372.53 502.198L369.717 509.259H366.029Z" fill="#E0E0E0"/>
<path d="M382.514 493.676V491.477L386.98 486.615C387.69 485.85 388.264 485.249 388.687 484.648C389.054 484.205 389.358 483.714 389.589 483.187C389.764 482.781 389.857 482.345 389.862 481.903C389.896 481.301 389.717 480.706 389.356 480.223C389.157 480.014 388.915 479.852 388.645 479.748C388.376 479.644 388.087 479.601 387.799 479.622C387.428 479.585 387.054 479.647 386.716 479.804C386.377 479.96 386.086 480.203 385.874 480.51C385.454 481.303 385.26 482.196 385.314 483.091H382.418V482.586C382.4 481.602 382.586 480.626 382.965 479.718C383.312 478.88 383.908 478.17 384.672 477.683C385.602 477.141 386.669 476.88 387.745 476.931C389.089 476.853 390.41 477.309 391.419 478.202C391.878 478.659 392.237 479.208 392.472 479.812C392.708 480.417 392.814 481.064 392.785 481.712C392.807 482.822 392.513 483.917 391.938 484.867C391.167 486.016 390.279 487.082 389.288 488.049L386.324 491.177H392.989V493.703L382.514 493.676Z" fill="#E0E0E0"/>
<path d="M430.221 509.546C429.516 509.554 428.824 509.36 428.227 508.986C427.663 508.643 427.149 508.225 426.697 507.743V509.259H422.845V480.1H426.697V490.111C427.168 489.573 427.721 489.112 428.336 488.745C429.028 488.347 429.818 488.148 430.617 488.172C431.548 488.123 432.465 488.425 433.184 489.019C433.834 489.597 434.328 490.33 434.618 491.149C434.918 491.989 435.124 492.859 435.233 493.744C435.315 494.618 435.37 495.37 435.37 495.984V501.024C435.382 502.424 435.235 503.822 434.933 505.189C434.71 506.364 434.177 507.458 433.389 508.358C432.976 508.77 432.48 509.09 431.933 509.295C431.387 509.5 430.803 509.585 430.221 509.546ZM429.429 506.528C429.713 506.551 429.997 506.494 430.251 506.363C430.504 506.233 430.716 506.035 430.863 505.79C431.197 505.172 431.384 504.485 431.409 503.783C431.477 502.95 431.518 502.021 431.518 501.051V496.011C431.52 495.212 431.469 494.414 431.368 493.621C431.309 492.999 431.103 492.4 430.767 491.873C430.592 491.654 430.366 491.481 430.109 491.369C429.852 491.257 429.571 491.21 429.292 491.231C428.797 491.231 428.308 491.338 427.858 491.545C427.447 491.747 427.058 491.989 426.697 492.269V505.627C427.058 505.914 427.464 506.14 427.899 506.296C428.39 506.465 428.909 506.544 429.429 506.528Z" fill="#E0E0E0"/>
<path d="M437.05 509.259L441.721 498.333L437.2 488.445H440.874L443.933 495.042L446.665 488.445H450.448L445.695 498.784L450.516 509.259H446.842L443.564 502.198L440.764 509.259H437.05Z" fill="#E0E0E0"/>
<path d="M485.712 509.546C484.346 509.642 482.987 509.282 481.847 508.522C480.943 507.789 480.321 506.766 480.085 505.627C479.766 504.197 479.615 502.735 479.635 501.27V496.476C479.606 494.969 479.762 493.465 480.099 491.996C480.341 490.868 480.975 489.861 481.888 489.155C483.02 488.415 484.363 488.065 485.712 488.158C486.927 488.087 488.139 488.342 489.222 488.896C490.053 489.386 490.667 490.171 490.943 491.095C491.276 492.272 491.432 493.491 491.408 494.714V495.943H487.911V494.673C487.929 493.949 487.87 493.226 487.734 492.515C487.657 492.067 487.425 491.661 487.078 491.368C486.681 491.088 486.197 490.957 485.712 490.999C485.193 490.968 484.68 491.123 484.265 491.436C483.885 491.834 483.654 492.35 483.609 492.897C483.487 493.803 483.432 494.716 483.445 495.629V502.185C483.347 503.396 483.52 504.613 483.95 505.749C484.134 506.056 484.401 506.304 484.72 506.464C485.04 506.623 485.398 506.688 485.753 506.651C486.249 506.68 486.738 506.519 487.119 506.2C487.446 505.847 487.647 505.396 487.693 504.916C487.779 504.296 487.821 503.671 487.816 503.045V501.352H491.312V502.799C491.338 504.015 491.172 505.227 490.82 506.391C490.537 507.34 489.928 508.157 489.099 508.7C488.07 509.288 486.898 509.581 485.712 509.546Z" fill="#E0E0E0"/>
<path d="M503.071 492.843V489.893H514.121V492.843H503.071ZM503.071 499.221V496.298H514.121V499.221H503.071Z" fill="#E0E0E0"/>
<path d="M533.638 509.587C532.189 509.645 530.758 509.254 529.54 508.467C528.453 507.716 527.623 506.648 527.164 505.408C526.624 503.996 526.36 502.494 526.385 500.983V488.445C526.352 486.918 526.607 485.398 527.136 483.965C527.596 482.741 528.421 481.687 529.499 480.947C530.729 480.19 532.154 479.815 533.597 479.868C535.04 479.807 536.468 480.183 537.694 480.947C538.769 481.688 539.589 482.742 540.043 483.965C540.591 485.395 540.864 486.914 540.849 488.445V501.01C540.877 502.535 540.612 504.051 540.07 505.476C539.615 506.703 538.796 507.761 537.721 508.508C536.504 509.281 535.078 509.658 533.638 509.587ZM533.638 506.419C534.018 506.445 534.4 506.387 534.756 506.25C535.112 506.114 535.434 505.901 535.7 505.627C536.195 505.043 536.534 504.342 536.683 503.592C536.861 502.743 536.948 501.877 536.943 501.01V488.445C536.97 487.53 536.906 486.615 536.752 485.713C536.622 484.974 536.291 484.284 535.795 483.719C535.518 483.453 535.187 483.249 534.824 483.119C534.462 482.99 534.076 482.938 533.692 482.968C533.304 482.934 532.913 482.984 532.546 483.113C532.178 483.243 531.843 483.449 531.562 483.719C531.056 484.279 530.719 484.97 530.592 485.713C530.424 486.587 530.342 487.474 530.346 488.363V500.997C530.341 501.864 530.428 502.729 530.606 503.578C530.759 504.333 531.107 505.034 531.616 505.613C531.88 505.879 532.195 506.087 532.543 506.226C532.891 506.364 533.263 506.43 533.638 506.419Z" fill="#E0E0E0"/>
<path d="M405.91 501.625V495.752H400.87V492.843H405.91V486.97H408.792V492.843H414.023V495.752H408.792V501.625H405.91Z" fill="#E0E0E0"/>
<path d="M464.884 501.625V495.752H459.844V492.843H464.884V486.97H467.766V492.843H472.983V495.752H467.766V501.625H464.884Z" fill="#E0E0E0"/>
<path d="M258.132 397.771L262.817 386.845L258.132 376.956H261.806L264.961 383.553L267.693 376.956H271.462L266.71 387.295L271.544 397.771H267.87L264.593 390.71L261.779 397.771H258.132Z" fill="#E0E0E0"/>
<path d="M281.938 381.354V378.404H292.987V381.354H281.938ZM281.938 387.732V384.81H292.987V387.732H281.938Z" fill="#E0E0E0"/>
<path d="M303.463 390.423V387.514H320.712V390.423H303.463Z" fill="#E0E0E0"/>
<path d="M330.355 398.058C329.649 398.072 328.956 397.877 328.361 397.498C327.797 397.154 327.283 396.736 326.831 396.255V397.771H322.98V368.611H326.831V378.623C327.303 378.084 327.856 377.623 328.47 377.257C329.163 376.858 329.952 376.66 330.751 376.683C331.686 376.637 332.606 376.939 333.332 377.53C333.954 378.119 334.422 378.85 334.698 379.661C335.01 380.497 335.217 381.368 335.313 382.256C335.398 382.999 335.444 383.747 335.449 384.495V389.535C335.459 390.935 335.317 392.332 335.026 393.701C334.799 394.877 334.261 395.971 333.469 396.869C333.062 397.275 332.575 397.59 332.038 397.794C331.502 397.999 330.928 398.089 330.355 398.058ZM329.563 395.039C329.849 395.063 330.136 395.007 330.391 394.876C330.647 394.746 330.862 394.547 331.01 394.302C331.333 393.68 331.515 392.994 331.543 392.294C331.611 391.461 331.652 390.532 331.652 389.563V384.523C331.658 383.724 331.612 382.926 331.516 382.133C331.453 381.509 331.242 380.91 330.901 380.384C330.726 380.165 330.5 379.992 330.243 379.881C329.986 379.769 329.706 379.721 329.426 379.743C328.954 379.749 328.488 379.856 328.06 380.057C327.644 380.255 327.25 380.498 326.886 380.781V394.138C327.247 394.425 327.653 394.651 328.088 394.807C328.562 394.97 329.061 395.049 329.563 395.039Z" fill="#E0E0E0"/>
<path d="M413.654 398.058C412.948 398.072 412.255 397.877 411.66 397.498C411.099 397.151 410.585 396.733 410.13 396.255V397.771H406.279V368.611H410.13V378.623C410.601 378.084 411.154 377.623 411.769 377.257C412.462 376.858 413.251 376.66 414.05 376.683C414.985 376.637 415.905 376.939 416.631 377.53C417.253 378.119 417.721 378.85 417.997 379.661C418.309 380.497 418.515 381.368 418.612 382.256C418.697 382.999 418.743 383.747 418.748 384.495V389.535C418.758 390.935 418.616 392.332 418.325 393.701C418.103 394.879 417.565 395.974 416.768 396.869C416.361 397.275 415.873 397.59 415.337 397.794C414.801 397.999 414.227 398.089 413.654 398.058ZM412.862 395.039C413.148 395.063 413.435 395.007 413.69 394.876C413.946 394.746 414.16 394.547 414.309 394.302C414.632 393.68 414.814 392.994 414.842 392.294C414.924 391.461 414.951 390.532 414.951 389.563V384.523C414.957 383.724 414.911 382.926 414.815 382.133C414.758 381.508 414.547 380.907 414.2 380.384C414.025 380.165 413.799 379.992 413.542 379.881C413.285 379.769 413.005 379.721 412.725 379.743C412.253 379.749 411.787 379.856 411.359 380.057C410.944 380.258 410.551 380.5 410.185 380.781V394.138C410.548 394.422 410.954 394.648 411.387 394.807C411.861 394.969 412.36 395.048 412.862 395.039Z" fill="#E0E0E0"/>
<path d="M423.132 382.187V379.988L427.598 375.126C428.309 374.361 428.882 373.76 429.306 373.16C429.663 372.71 429.966 372.219 430.207 371.698C430.378 371.292 430.466 370.855 430.467 370.414C430.507 369.812 430.327 369.215 429.961 368.734C429.766 368.524 429.526 368.361 429.258 368.257C428.991 368.153 428.704 368.111 428.418 368.133C428.047 368.096 427.673 368.159 427.334 368.315C426.995 368.471 426.705 368.715 426.492 369.021C426.072 369.814 425.878 370.707 425.932 371.603H423.091V371.097C423.075 370.115 423.257 369.14 423.624 368.229C423.981 367.394 424.58 366.685 425.345 366.194C426.275 365.652 427.342 365.391 428.418 365.443C429.762 365.366 431.082 365.822 432.092 366.713C432.551 367.171 432.91 367.719 433.145 368.324C433.381 368.928 433.487 369.575 433.458 370.223C433.48 371.334 433.186 372.428 432.611 373.378C431.84 374.527 430.952 375.594 429.961 376.56L426.97 379.661H433.635V382.187H423.132Z" fill="#E0E0E0"/>
<path d="M478.952 397.771V389.959H470.484V385.93L478.023 368.611H482.571V386.544H485.835V389.959H482.571V397.771H478.952ZM474.199 386.544H478.952V373.282L474.199 386.544Z" fill="#E0E0E0"/>
<path d="M492.118 398.058C491.342 398.068 490.584 397.823 489.96 397.361C489.337 396.88 488.833 396.264 488.485 395.558C488.132 394.835 487.95 394.041 487.952 393.236C487.913 392.109 488.133 390.988 488.594 389.959C489.016 389.084 489.627 388.315 490.383 387.705C491.184 387.06 492.065 386.523 493.006 386.107C494.003 385.656 495.054 385.206 496.161 384.741V383.28C496.168 382.58 496.118 381.882 496.01 381.19C495.954 380.723 495.748 380.287 495.423 379.947C495.036 379.644 494.548 379.497 494.057 379.538C493.6 379.516 493.149 379.645 492.773 379.906C492.432 380.159 492.186 380.52 492.077 380.931C491.919 381.434 491.845 381.96 491.858 382.488V383.539L488.048 383.389C487.94 381.557 488.498 379.748 489.618 378.295C490.241 377.709 490.98 377.26 491.787 376.978C492.594 376.696 493.451 376.586 494.303 376.656C495.118 376.574 495.94 376.685 496.703 376.979C497.467 377.274 498.151 377.743 498.701 378.349C499.679 379.791 500.159 381.513 500.067 383.253V392.813C500.067 393.455 500.067 394.083 500.067 394.684C500.067 395.285 500.149 395.831 500.203 396.35C500.258 396.869 500.326 397.361 500.367 397.812H496.843C496.761 397.429 496.68 396.938 496.57 396.35C496.461 395.763 496.379 395.231 496.338 394.752C496.078 395.614 495.608 396.397 494.972 397.033C494.594 397.394 494.145 397.671 493.653 397.848C493.162 398.024 492.639 398.096 492.118 398.058ZM493.634 394.752C494.018 394.753 494.394 394.639 494.713 394.425C495.042 394.216 495.345 393.969 495.614 393.687C495.819 393.484 496.002 393.259 496.161 393.018V387.118C495.56 387.446 494.986 387.787 494.467 388.128C493.979 388.434 493.521 388.786 493.101 389.18C492.714 389.541 492.399 389.972 492.172 390.45C491.935 390.949 491.818 391.496 491.831 392.048C491.793 392.739 491.954 393.427 492.295 394.029C492.436 394.256 492.633 394.442 492.868 394.569C493.103 394.696 493.367 394.759 493.634 394.752Z" fill="#E0E0E0"/>
<path d="M509.436 398.058C508.066 398.151 506.703 397.791 505.557 397.033C504.653 396.301 504.031 395.277 503.795 394.138C503.476 392.708 503.325 391.246 503.345 389.781V384.987C503.32 383.48 503.481 381.975 503.823 380.507C504.06 379.38 504.689 378.374 505.598 377.667C506.735 376.926 508.082 376.576 509.436 376.67C510.65 376.604 511.861 376.858 512.946 377.407C513.768 377.903 514.377 378.686 514.653 379.606C514.992 380.782 515.149 382.002 515.118 383.225V384.454H511.635V383.184C511.65 382.46 511.586 381.737 511.444 381.026C511.377 380.579 511.148 380.171 510.802 379.879C510.4 379.608 509.918 379.483 509.436 379.524C508.923 379.49 508.414 379.64 508.002 379.947C507.612 380.339 507.375 380.858 507.333 381.409C507.211 382.314 507.156 383.227 507.169 384.14V390.696C507.079 391.907 507.252 393.123 507.674 394.261C507.86 394.565 508.127 394.811 508.446 394.971C508.765 395.13 509.122 395.196 509.477 395.162C509.973 395.191 510.461 395.03 510.843 394.711C511.169 394.358 511.371 393.907 511.416 393.428C511.508 392.808 511.554 392.183 511.553 391.557V389.863H515.036V391.311C515.058 392.525 514.897 393.736 514.558 394.903C514.279 395.857 513.662 396.677 512.823 397.211C511.795 397.803 510.622 398.097 509.436 398.058Z" fill="#E0E0E0"/>
<path d="M370.359 443.839V441.107L377.775 429.553L379.304 427.135C379.768 426.394 380.153 425.607 380.452 424.786C380.767 423.863 380.919 422.893 380.902 421.918C380.957 420.823 380.731 419.733 380.247 418.749C380.016 418.363 379.681 418.05 379.279 417.847C378.878 417.644 378.427 417.559 377.98 417.602C377.594 417.578 377.208 417.633 376.844 417.762C376.481 417.891 376.147 418.092 375.863 418.353C375.331 418.9 374.966 419.587 374.811 420.334C374.614 421.198 374.518 422.083 374.524 422.97V423.939H370.673V422.888C370.635 421.35 370.876 419.819 371.383 418.367C371.799 417.167 372.595 416.136 373.65 415.43C374.885 414.691 376.309 414.33 377.747 414.392C378.717 414.317 379.691 414.456 380.6 414.801C381.509 415.146 382.33 415.687 383.006 416.386C384.223 417.939 384.838 419.879 384.74 421.85C384.759 422.959 384.607 424.064 384.289 425.127C383.993 426.041 383.6 426.92 383.115 427.75C382.637 428.569 382.104 429.402 381.531 430.276L374.838 440.492H384.044V443.729L370.359 443.839Z" fill="#E0E0E0"/>
<path d="M391.774 444.139C390.996 444.147 390.237 443.897 389.616 443.429C388.983 442.959 388.476 442.339 388.141 441.626C387.776 440.907 387.589 440.111 387.595 439.304C387.559 438.176 387.784 437.054 388.25 436.026C388.664 435.154 389.271 434.388 390.026 433.787C390.836 433.145 391.721 432.604 392.662 432.175C393.659 431.724 394.697 431.273 395.803 430.809V429.334C395.816 428.635 395.77 427.936 395.666 427.244C395.613 426.774 395.401 426.336 395.065 426.002C394.678 425.698 394.19 425.551 393.7 425.592C393.249 425.566 392.802 425.691 392.429 425.947C392.093 426.208 391.846 426.565 391.719 426.971C391.575 427.482 391.506 428.011 391.514 428.542V429.58L387.69 429.443C387.586 427.627 388.138 425.833 389.247 424.39C389.869 423.803 390.607 423.353 391.415 423.071C392.222 422.788 393.08 422.679 393.932 422.751C394.745 422.666 395.566 422.776 396.328 423.07C397.09 423.364 397.771 423.836 398.316 424.445C399.277 425.886 399.733 427.606 399.614 429.334V438.895C399.614 439.55 399.614 440.165 399.614 440.766C399.614 441.367 399.695 441.927 399.764 442.446C399.832 442.965 399.873 443.443 399.928 443.893H396.486C396.418 443.511 396.336 443.033 396.226 442.446C396.117 441.858 396.035 441.326 395.981 440.834C395.722 441.7 395.253 442.488 394.615 443.128C394.237 443.485 393.79 443.759 393.301 443.933C392.812 444.107 392.292 444.177 391.774 444.139ZM393.29 440.82C393.674 440.819 394.049 440.705 394.369 440.492C394.696 440.281 394.998 440.034 395.27 439.755C395.471 439.556 395.649 439.336 395.803 439.099V433.186C395.202 433.527 394.642 433.855 394.109 434.196C393.626 434.513 393.169 434.869 392.744 435.262C392.357 435.62 392.037 436.046 391.801 436.518C391.57 437.019 391.454 437.565 391.46 438.116C391.423 438.809 391.589 439.497 391.938 440.096C392.083 440.335 392.291 440.529 392.539 440.656C392.787 440.784 393.066 440.841 393.345 440.82H393.29Z" fill="#E0E0E0"/>
<path d="M351.005 380.685V374.812H345.966V371.889H351.005V366.03H353.887V371.889H359.104V374.812H353.887V380.685H351.005Z" fill="#E0E0E0"/>
<path d="M343.944 390V387.077H361.194V390H343.944Z" fill="#E0E0E0"/>
<path d="M444.589 389.385V386.462H461.838V389.385H444.589Z" fill="#E0E0E0"/>
<path d="M381.203 397.785L369.43 372.641L371.902 371.493L381.148 391.229L395.721 358.778H514.653V361.509H397.497L381.203 397.785Z" fill="#E0E0E0"/>
<path d="M518.218 406.403H300.089V409.134H518.218V406.403Z" fill="#E0E0E0"/>
<path d="M276.311 437.816C276.311 437.816 291.963 441.339 292.468 452.197C292.973 463.055 281.87 469.625 281.87 469.625C281.87 469.625 278.086 453.467 275.3 449.671C272.514 445.874 270.001 441.599 270.001 441.599C270.001 441.599 272.282 436.545 276.311 437.816Z" fill="#263238"/>
<path d="M281.419 470.69L281.2 469.775C281.2 469.611 277.417 453.713 274.754 450.08C272.091 446.447 269.441 441.981 269.414 441.886L269.236 441.585L269.386 441.257C270.247 439.332 272.856 435.972 276.488 437.092C277.458 437.324 292.632 440.984 293.151 452.115C293.67 463.246 282.689 469.87 282.225 470.157L281.419 470.69ZM270.78 441.571C271.421 442.623 273.511 446.147 275.86 449.274C278.319 452.634 281.433 464.954 282.307 468.518C284.779 466.797 292.195 460.884 291.785 452.238C291.321 442.008 276.311 438.512 276.161 438.471C273.156 437.556 271.312 440.561 270.78 441.571Z" fill="#263238"/>
<path d="M202.135 723.031H236.826L225.422 672.976C225.422 672.976 214.946 676.622 210.835 687.111C206.724 697.601 202.135 723.031 202.135 723.031Z" fill="#264296"/>
<path d="M237.646 723.714H201.316L201.466 722.908C201.466 722.663 206.096 697.286 210.18 686.852C214.345 676.199 224.739 672.484 225.203 672.334L225.927 672.074L237.646 723.714ZM202.955 722.349H235.938L224.917 673.904C222.526 674.942 214.769 678.862 211.45 687.357C207.858 696.617 203.802 717.896 202.982 722.349H202.955Z" fill="#263238"/>
<path d="M233.316 707.612L203.583 715.602C202.709 719.999 202.217 723.031 202.217 723.031H202.299L234.887 714.277L233.316 707.612Z" fill="#263238"/>
<path d="M208.623 693.968C207.954 696.303 207.257 698.857 206.683 701.438L230.626 695.798L229.11 689.133L208.623 693.968Z" fill="#263238"/>
<path d="M196.099 529.814C196.099 529.814 177.825 534.963 160.097 552.705C142.369 570.446 120.489 622.81 111.434 645.086C102.379 667.362 98.2269 678.084 98.2269 678.084L67.7153 723.031H202.135C202.135 723.031 217.801 683.861 223.168 680.146C228.536 676.431 245.444 661.585 247.916 653.336C250.388 645.086 250.388 584.05 246.673 572.495C242.959 560.941 221.926 532.888 213.267 529.61C207.69 527.706 201.628 527.778 196.099 529.814Z" fill="#264296"/>
<path d="M202.627 723.714H66.4178L97.6259 677.769C98.0083 676.772 102.215 665.901 110.792 644.827C130.773 595.795 147.204 564.628 159.605 552.227C176.882 534.95 194.91 529.459 195.866 529.173C201.555 527.056 207.803 526.983 213.54 528.968C222.431 532.355 243.587 560.654 247.356 572.29C251.126 583.927 251.29 644.526 248.599 653.527C246.032 662.09 228.536 677.278 223.578 680.706C219.331 683.656 207.189 712.447 202.791 723.291L202.627 723.714ZM68.9992 722.348H201.698C203.501 717.896 217.582 683.192 222.8 679.654C227.675 676.281 244.816 661.462 247.288 653.213C249.869 644.608 249.569 583.708 246.059 572.782C242.467 561.637 221.475 533.529 213.048 530.32C204.621 527.11 196.44 530.484 196.358 530.511H196.276C196.099 530.511 177.961 535.838 160.575 553.224C148.283 565.516 131.975 596.519 112.062 645.387C103.089 667.362 98.9098 678.288 98.8688 678.288V678.425L68.9992 722.348Z" fill="#263238"/>
<path d="M148.87 567.292C147.682 569.149 146.494 571.102 145.292 573.11C149.811 575.987 154.623 578.376 159.646 580.239L162.063 573.847C157.446 572.135 153.024 569.937 148.87 567.292Z" fill="#263238"/>
<path d="M182.933 640.292C201.941 649.669 221.893 656.994 242.453 662.145C244.048 660.284 245.47 658.282 246.701 656.163C225.793 651.118 205.503 643.79 186.197 634.31C166.693 624.772 148.337 613.047 131.484 599.36C130.459 601.491 129.449 603.635 128.452 605.752C145.285 619.235 163.556 630.819 182.933 640.292Z" fill="#263238"/>
<path d="M147.504 648.856C173.311 661.577 200.819 670.506 229.178 675.366C231.186 673.631 233.398 671.623 235.597 669.479C206.126 664.99 177.517 656.008 150.768 642.846C140.079 637.589 129.717 631.692 119.738 625.187C118.782 627.399 117.871 629.535 117.006 631.592C126.836 637.922 137.018 643.686 147.504 648.856Z" fill="#263238"/>
<path d="M206.52 712.501C207.421 710.384 208.418 708.076 209.47 705.672C145.975 704.006 109.973 694.364 91.9033 687.371L87.8879 693.312C105.985 700.633 142.041 710.63 206.52 712.501Z" fill="#263238"/>
<path d="M108.265 652.871C107.355 655.175 106.49 657.319 105.67 659.304C117.875 665.296 130.485 670.426 143.407 674.655C167.106 682.411 191.463 687.988 216.176 691.318C217.391 688.901 218.566 686.702 219.645 684.885C165 677.483 127.96 662.65 108.265 652.871Z" fill="#263238"/>
<path d="M242.931 581.4C242.931 581.4 244.078 578.819 245.799 579.392C247.52 579.966 252.109 590.319 252.109 590.319C252.109 590.319 251.822 572.263 244.652 559.356C237.482 546.45 235.201 542.967 235.201 542.967C235.201 542.967 231.759 544.401 233.193 550.424C234.627 556.447 242.931 581.4 242.931 581.4Z" fill="white"/>
<path d="M252.847 593.61L251.481 590.551C249.364 585.784 246.496 580.403 245.581 580.034C244.666 579.665 243.573 581.646 243.559 581.673L242.836 583.257L242.289 581.605C241.948 580.581 233.944 556.57 232.524 550.588C230.981 544.087 234.778 542.393 234.941 542.393L235.46 542.175L235.761 542.639C235.856 542.789 238.151 546.258 245.253 559.029C252.355 571.799 252.792 590.127 252.792 590.305L252.847 593.61ZM245.294 578.587C245.54 578.589 245.785 578.63 246.018 578.709C247.384 579.146 249.624 583.394 251.222 586.713C250.743 580.84 249.173 568.821 244.065 559.629C238.52 549.646 235.87 545.316 234.982 543.896C234.231 544.524 232.906 546.245 233.849 550.247C235.078 555.355 241.374 574.475 243.136 579.775C243.388 579.432 243.712 579.149 244.084 578.943C244.457 578.738 244.87 578.616 245.294 578.587Z" fill="#263238"/>
<path d="M207.394 499.467C207.394 499.467 204.922 508.29 202.449 516.758C201.186 521.476 199.03 525.908 196.099 529.814C196.099 529.814 192.916 537.927 206.328 555.573C219.74 573.219 242.317 596.861 242.317 596.861C242.317 596.861 244.092 585.224 241.975 576.046C239.858 566.868 235.624 553.101 235.624 553.101L245.84 530.88L207.394 499.467Z" fill="white"/>
<path d="M242.795 598.336L241.825 597.339C241.606 597.093 219.057 573.465 205.782 555.997C192.302 538.241 195.32 529.91 195.457 529.569L195.566 529.377C198.429 525.537 200.542 521.191 201.794 516.566C204.225 508.194 206.711 499.371 206.724 499.289L207.011 498.279L246.701 530.675L236.348 553.156C236.936 555.068 240.691 567.469 242.631 575.896C244.761 585.088 243.068 596.492 243 596.97L242.795 598.336ZM196.672 530.156C196.413 531.057 194.624 539.088 206.847 555.163C218.484 570.487 237.291 590.578 241.798 595.345C242.18 591.985 242.918 583.285 241.279 576.224C239.189 567.182 234.982 553.47 234.941 553.333L234.86 553.087L244.98 531.098L207.735 500.682C207.011 503.236 205.004 510.243 203.078 516.976C201.785 521.731 199.613 526.202 196.672 530.156Z" fill="#263238"/>
<path d="M222.95 523.368L237.004 548.908L244.42 534.103L218.88 518.178L222.95 523.368Z" fill="#263238"/>
<path d="M237.045 550.37L222.376 523.737L215.93 515.542L245.308 533.844L237.045 550.37ZM221.816 520.814L223.551 523.04L236.976 547.433L243.519 534.349L221.816 520.814Z" fill="#263238"/>
<path d="M275.054 440.083C275.054 440.083 283.891 461.034 284.137 465.336C284.383 469.638 282.375 474.418 283.386 482.504C284.396 490.589 286.664 502.444 284.902 507.744C283.14 513.043 278.264 517.7 274.74 521.77C268.089 529.432 260.782 539.266 249.378 538.255C242.057 537.599 235.174 532.314 229.601 527.943C215.465 516.84 208.65 509.765 206.383 504.971C204.116 500.177 191.728 487.544 196.536 478.202C201.343 468.86 242.235 445.136 242.235 445.136C242.235 445.136 268.485 430.987 275.054 440.083Z" fill="white"/>
<path d="M251.017 538.979C250.457 538.979 249.897 538.979 249.309 538.897C241.606 538.214 234.423 532.573 229.178 528.462C215.684 517.85 208.24 510.475 205.755 505.244C204.9 503.69 203.937 502.198 202.873 500.778C198.571 494.646 192.07 485.372 195.921 477.888C200.756 468.464 240.213 445.505 241.893 444.522C243 443.934 268.772 430.208 275.601 439.673L275.683 439.81C276.038 440.656 284.574 460.911 284.82 465.281C284.862 467.112 284.72 468.942 284.396 470.744C283.732 474.579 283.622 478.488 284.069 482.354C284.26 483.883 284.492 485.55 284.738 487.27C285.817 494.864 287.032 503.455 285.544 507.907C284.055 512.36 280.422 516.402 277.199 519.967L275.246 522.166L273.593 524.105C267.611 531.139 260.864 538.979 251.017 538.979ZM267.406 437.665C257.613 437.665 242.726 445.6 242.522 445.71C242.317 445.819 201.767 469.433 197.109 478.488C193.64 485.317 199.841 494.113 203.938 499.972C205.051 501.459 206.056 503.025 206.943 504.657C209.292 509.615 216.831 517.058 229.97 527.383C235.078 531.399 242.071 536.944 249.378 537.545C259.498 538.446 266.395 530.361 272.5 523.245L274.167 521.292C274.781 520.582 275.451 519.844 276.133 519.093C279.261 515.624 282.798 511.691 284.192 507.498C285.585 503.305 284.328 494.564 283.331 487.489C283.085 485.754 282.839 484.088 282.648 482.558C282.194 478.57 282.309 474.537 282.99 470.581C283.296 468.85 283.433 467.093 283.399 465.336C283.167 461.334 274.973 441.763 274.399 440.397C272.992 438.444 270.424 437.693 267.433 437.693L267.406 437.665Z" fill="#263238"/>
<path d="M239.763 474.787L238.643 473.995C244.925 465.09 255.032 468.669 255.032 468.696L254.568 469.98C254.24 469.87 245.431 466.77 239.763 474.787Z" fill="#263238"/>
<path d="M270.069 470.007L268.936 469.242C268.936 469.242 272.364 464.257 280.367 467.726L279.835 468.983C272.91 465.992 270.179 469.843 270.069 470.007Z" fill="#263238"/>
<path d="M262.476 503.878L262.38 502.513C265.603 502.253 273.156 499.781 274.508 497.978C274.918 497.446 274.167 496.489 272.801 494.851C270.676 492.47 268.997 489.726 267.843 486.751C266.299 482.114 266.209 477.115 267.584 472.424L268.949 472.848C267.702 477.258 267.787 481.939 269.195 486.301C270.3 489.124 271.906 491.724 273.935 493.976C275.505 495.875 276.666 497.377 275.669 498.798C273.866 501.133 265.74 503.632 262.476 503.878Z" fill="#263238"/>
<path d="M259.116 515.761C248.312 515.255 241.948 506.76 241.675 506.391L242.781 505.586C242.781 505.668 249.036 513.917 259.17 514.409L259.116 515.761Z" fill="#263238"/>
<path d="M247.657 485.154C247.657 487.735 246.578 489.824 245.253 489.824C243.928 489.824 242.863 487.735 242.863 485.154C242.863 482.572 243.928 480.483 245.253 480.483C246.578 480.483 247.657 482.572 247.657 485.154Z" fill="#263238"/>
<path d="M273.415 482.75C273.415 485.331 272.336 487.421 271.012 487.421C269.687 487.421 268.608 485.331 268.608 482.75C268.608 480.168 269.687 478.079 271.012 478.079C272.336 478.079 273.415 480.168 273.415 482.75Z" fill="#263238"/>
<path d="M272.282 408.014C265.712 403.22 256.111 406.498 256.111 406.498C257.957 405.186 260.052 404.267 262.267 403.797C264.483 403.327 266.771 403.317 268.99 403.767C268.99 403.767 262.68 399.219 258.132 401.499C254.666 403.25 251.51 405.557 248.79 408.328C247.029 410.09 247.274 412.617 234.914 409.339C222.554 406.061 199.814 408.328 187.699 424.991C175.585 441.653 174.56 465.896 172.293 471.427C170.026 476.959 160.179 488.349 167.499 501.475C168.272 502.971 169.445 504.224 170.886 505.094C173.536 507.825 177.62 509.492 182.4 513.07C190.786 519.366 198.229 522.398 202.45 516.799C206.67 511.199 202.955 504.67 202.532 499.644C202.108 494.618 207.134 487.585 207.134 487.585C207.134 487.585 213.198 489.101 217.487 485.317C221.775 481.534 222.54 475.975 220.765 468.655C218.989 461.334 228.345 463.096 241.729 463.861C255.114 464.626 259.403 451.733 260.85 447.95C262.298 444.166 269.933 448.455 277.513 439.864C285.093 431.273 278.838 412.808 272.282 408.014Z" fill="#263238"/>
<path d="M196.672 520.363C192.889 520.363 188.013 518.11 181.976 513.534C179.914 511.991 177.975 510.803 176.254 509.738C174.164 508.574 172.216 507.172 170.449 505.558C168.939 504.621 167.708 503.295 166.885 501.72C160.793 490.794 166.161 481.234 169.712 474.842C170.423 473.624 171.07 472.371 171.651 471.086C172.447 468.472 173.041 465.801 173.427 463.096C175.216 453.235 178.207 436.75 187.084 424.486C199.8 407.004 223.237 405.447 235.023 408.574C245.335 411.306 246.428 409.94 247.575 408.574C247.793 408.315 248.012 408.055 248.258 407.796C251.044 404.976 254.274 402.632 257.818 400.858C262.68 398.426 269.113 402.988 269.373 403.179L271.94 405.023L268.84 404.409C266.237 403.89 263.546 404.035 261.014 404.832C265.09 404.271 269.232 405.212 272.664 407.482C276.898 410.568 280.709 418.613 281.528 426.179C281.979 430.276 281.747 436.136 278.073 440.301C276.495 442.141 274.564 443.645 272.394 444.725C270.223 445.804 267.858 446.436 265.439 446.584C263.186 446.857 261.984 447.062 261.533 448.182L261.287 448.81C259.525 453.304 254.868 465.199 241.675 464.517L236.512 464.175C229.232 463.67 223.483 463.274 221.775 465.281C221.465 465.744 221.27 466.275 221.209 466.829C221.147 467.383 221.219 467.944 221.42 468.464C223.36 476.481 222.24 481.999 217.924 485.795C214.072 489.196 208.992 488.609 207.421 488.322C206.438 489.797 202.859 495.465 203.201 499.549C203.371 501.021 203.654 502.477 204.047 503.906C205.072 508.099 206.233 512.865 202.982 517.181C202.27 518.187 201.323 519.003 200.223 519.557C199.123 520.112 197.904 520.389 196.672 520.363ZM224.083 408.683C212.324 408.683 197.396 412.781 188.232 425.332C179.491 437.351 176.541 453.645 174.765 463.383C174.371 466.161 173.75 468.901 172.908 471.578C172.31 472.915 171.64 474.219 170.9 475.484C167.499 481.561 162.35 490.767 168.073 501.038C168.801 502.418 169.885 503.578 171.214 504.397L171.364 504.507C173.06 506.092 174.94 507.468 176.964 508.604C178.712 509.669 180.693 510.898 182.782 512.469C192.343 519.667 198.448 520.896 201.903 516.334C204.771 512.537 203.733 508.29 202.736 504.192C202.322 502.703 202.03 501.182 201.862 499.644C201.425 494.414 206.369 487.434 206.574 487.134L206.847 486.765L207.298 486.874C207.298 486.874 213.075 488.24 217.036 484.744C220.997 481.247 221.912 476.235 220.109 468.764C219.848 468.037 219.771 467.256 219.883 466.492C219.994 465.727 220.293 465.002 220.751 464.38C222.895 461.826 228.645 462.236 236.621 462.782C238.247 462.905 239.967 463.014 241.77 463.123C253.967 463.806 258.365 452.539 260.031 448.291L260.277 447.636C261.041 445.723 263.008 445.478 265.275 445.191C267.534 445.075 269.745 444.497 271.772 443.494C273.799 442.491 275.6 441.084 277.062 439.359C280.408 435.576 280.613 430.167 280.19 426.302C279.411 419.186 275.765 411.401 271.872 408.547C265.685 404.013 256.425 407.086 256.343 407.181L252.71 408.41L255.688 405.993C258.604 403.871 262.12 402.733 265.726 402.742H265.808C263.705 401.773 260.782 400.926 258.446 402.087C255.046 403.802 251.951 406.062 249.282 408.779C249.064 408.998 248.886 409.23 248.695 409.448C247.015 411.552 245.13 412.726 234.737 409.967C231.259 409.09 227.684 408.659 224.097 408.683H224.083Z" fill="#263238"/>
<path d="M209.907 490.07C209.907 490.07 201.575 478.202 196.536 478.202C191.496 478.202 189.215 489.06 192.739 496.64C196.262 504.22 205.372 506.733 206.888 506.733C208.034 506.575 209.096 506.042 209.907 505.217" fill="white"/>
<path d="M206.888 507.416C204.881 507.416 195.743 504.684 192.124 496.927C189.393 491.013 190.089 483.76 192.384 480.168C192.778 479.409 193.363 478.766 194.082 478.301C194.8 477.837 195.627 477.567 196.481 477.519C201.821 477.519 210.071 489.183 210.412 489.688L209.292 490.466C207.039 487.243 200.319 478.885 196.481 478.885C195.851 478.945 195.247 479.161 194.722 479.514C194.197 479.867 193.769 480.345 193.476 480.906C191.428 484.116 190.745 490.931 193.312 496.353C196.85 503.947 205.905 506.05 206.834 506.05C207.807 505.886 208.7 505.406 209.374 504.684L210.344 505.654C209.421 506.611 208.205 507.232 206.888 507.416Z" fill="#263238"/>
<path d="M198.229 522.357C198.229 522.357 201.084 532.683 211.409 549.017C221.734 565.352 237.495 580.253 237.495 580.253C237.495 580.253 234.627 594.88 234.627 595.727C234.627 596.574 222.581 591.725 208.541 569.941C194.501 548.157 189.051 535.537 190.199 531.822C191.346 528.107 198.229 522.357 198.229 522.357Z" fill="white"/>
<path d="M234.573 596.492C232.538 596.492 220.915 590.441 207.967 570.31C195.02 550.178 188.204 535.974 189.543 531.617C190.731 527.738 197.505 522.057 197.738 521.838L198.543 521.155L198.83 522.18C198.83 522.275 201.794 532.601 211.928 548.649C222.062 564.696 237.741 579.611 237.878 579.761L238.151 580.021L238.083 580.389C236.99 585.948 235.256 595.03 235.228 595.741V596.232L234.682 596.465L234.573 596.492ZM197.888 523.559C196.085 525.157 191.701 529.255 190.854 532.013C189.925 535.032 194.228 546.491 209.115 569.572C221.243 588.379 231.636 594.238 234.026 595.044C234.436 592.313 236.212 583.244 236.758 580.485C234.614 578.423 220.369 564.423 210.808 549.372C202.395 536.029 198.885 526.564 197.888 523.559Z" fill="#263238"/>
<path d="M167.499 501.434C167.499 501.434 144.281 492.884 133.71 499.603C123.139 506.323 131.62 531.904 138.75 541.943C145.879 551.981 130.364 548.649 121.131 559.985C111.898 571.321 116.515 578.45 125.747 583.899C134.98 589.349 146.302 578.027 150.919 569.217C155.535 560.408 160.998 559.151 172.771 554.535C184.544 549.919 196.672 536.52 192.042 527.711C187.412 518.902 189.953 520.158 191.619 517.645C193.285 515.132 184.066 505.053 178.193 503.796C172.32 502.54 167.499 501.434 167.499 501.434Z" fill="#263238"/>
<path d="M130.91 586.057C128.984 586.053 127.095 585.524 125.447 584.528C119.588 581.072 116.378 577.371 115.641 573.219C114.903 569.067 116.542 564.642 120.653 559.561C124.764 554.48 129.886 552.391 134.024 550.656C137.029 549.4 139.405 548.403 139.856 546.832C140.156 545.767 139.637 544.305 138.244 542.352C132.931 534.841 126.417 517.905 128.561 506.924C128.771 505.34 129.309 503.817 130.142 502.453C130.974 501.088 132.083 499.913 133.396 499.002C143.94 492.256 166.297 500.232 167.745 500.751C168.223 500.86 172.839 501.912 178.398 503.1C183.219 504.138 190.485 511.021 192.193 515.228C192.413 515.65 192.528 516.118 192.528 516.594C192.528 517.069 192.413 517.538 192.193 517.959C191.843 518.465 191.43 518.924 190.963 519.325C189.912 520.295 189.27 520.882 192.643 527.342C193.334 528.794 193.704 530.376 193.73 531.983C193.756 533.59 193.437 535.184 192.793 536.657C190.062 543.937 181.758 551.681 172.99 555.15L169.439 556.515C160.179 560.08 155.535 561.856 151.52 569.504C148.228 575.787 141.481 583.462 134.42 585.47C133.283 585.828 132.102 586.025 130.91 586.057ZM144.773 497.719C141.04 497.523 137.326 498.374 134.051 500.177C132.896 500.994 131.923 502.043 131.194 503.256C130.465 504.469 129.996 505.821 129.817 507.224C127.823 517.427 133.983 534.117 139.282 541.588C140.948 543.937 141.522 545.685 141.085 547.228C140.457 549.441 137.821 550.547 134.475 551.954C130.473 553.62 125.488 555.71 121.623 560.463C117.758 565.216 116.241 569.272 116.897 572.973C117.553 576.674 120.557 580.102 126.061 583.353C127.25 584.051 128.572 584.49 129.942 584.641C131.312 584.792 132.699 584.651 134.01 584.227C140.689 582.329 147.122 574.967 150.29 568.944C154.538 560.831 159.646 558.878 168.92 555.286L172.471 553.92C180.761 550.656 188.942 542.994 191.482 536.165C192.064 534.876 192.36 533.475 192.348 532.061C192.336 530.646 192.018 529.25 191.414 527.971C187.877 521.224 188.218 519.967 190.048 518.328C190.429 517.997 190.768 517.621 191.059 517.208C191.223 516.962 191.155 516.403 190.868 515.706C189.297 511.841 182.4 505.34 178.057 504.411C172.17 503.154 167.349 502.048 167.349 502.048H167.253C167.089 502.021 155.207 497.719 144.773 497.719Z" fill="#263238"/>
<path d="M396.363 523.955L399.327 516.198C399.62 516.014 399.948 515.891 400.29 515.838C400.632 515.785 400.981 515.803 401.316 515.89C401.651 515.977 401.965 516.131 402.238 516.344C402.512 516.557 402.739 516.823 402.905 517.126L402.523 529.746L400.078 540.44C399.695 541.263 399.083 541.959 398.315 542.443C397.547 542.928 396.656 543.181 395.748 543.172C393.468 543.12 391.3 542.173 389.712 540.536L396.363 523.955Z" fill="white"/>
<path d="M395.421 543.827C393.068 543.681 390.855 542.657 389.22 540.959L388.919 540.645L395.748 523.709L398.808 515.761L398.972 515.638C399.337 515.402 399.747 515.243 400.175 515.17C400.604 515.097 401.043 515.112 401.466 515.215C401.889 515.317 402.287 515.504 402.635 515.764C402.983 516.025 403.275 516.354 403.492 516.73L403.643 516.922L403.246 529.787L400.774 540.618C400.356 541.578 399.663 542.392 398.784 542.961C397.905 543.529 396.877 543.826 395.83 543.814L395.421 543.827ZM390.517 540.345C391.92 541.677 393.773 542.433 395.707 542.462C396.479 542.488 397.241 542.29 397.903 541.893C398.564 541.495 399.097 540.915 399.436 540.222L401.867 529.623L402.222 517.331C401.984 516.947 401.614 516.664 401.182 516.533C400.749 516.402 400.284 516.434 399.873 516.621L396.991 524.174L390.517 540.345Z" fill="#263238"/>
<path d="M162.159 612.512C162.159 612.512 219.891 665.3 242.986 678.493C266.081 691.687 276.393 686.333 276.393 686.333C276.393 686.333 339.369 636.509 360.539 607.964C376.6 586.29 382.746 578.819 385.642 578.395C388.537 577.972 411.209 564.738 412.452 563.14C413.695 561.542 413.271 542.516 413.271 542.516C413.271 542.516 417.369 537.982 416.986 535.92C416.604 533.857 407.904 526.018 405.855 523.955C403.807 521.893 403.369 519.011 401.758 521.893C400.146 524.775 400.105 526.441 401.334 527.67C402.564 528.899 402.168 531.768 402.168 531.768L400.925 535.073L400.105 540.427C399.654 541.055 399.008 541.517 398.267 541.742C397.526 541.966 396.733 541.941 396.008 541.669C394.091 541.028 392.379 539.887 391.05 538.364L396.363 523.955C396.363 523.955 391.829 522.316 390.995 525.608C390.162 528.899 392.238 527.67 388.114 530.566C383.989 533.461 379.919 536.753 379.919 540.877C379.919 545.002 372.858 566.445 372.858 566.445C372.858 566.445 342.565 587.737 330.833 594.771C322.638 599.647 270.629 625.706 270.629 625.706C270.629 625.706 217.828 579.952 211.232 571.266C204.635 562.58 193.913 552.295 173.7 559.302" fill="#264296"/>
<path d="M269.905 688.095C264.442 688.095 255.469 686.415 242.59 679.081C219.686 665.996 162.2 613.523 161.626 613.004L162.555 612.007C163.129 612.526 220.491 664.89 243.259 677.906C265.671 690.703 275.915 685.773 276.038 685.718C276.557 685.295 339.082 635.703 359.938 607.568C377.187 584.35 382.446 578.163 385.505 577.726C388.319 577.33 410.813 564.068 411.865 562.702C412.547 561.664 412.752 551.626 412.547 542.503V542.243L412.725 542.038C414.337 540.263 416.508 537.217 416.276 536.029C415.989 534.581 409.83 528.722 407.194 526.222C406.388 525.458 405.732 524.857 405.322 524.42C404.736 523.802 404.21 523.13 403.752 522.412C403.515 522.015 403.226 521.652 402.891 521.333C402.664 521.608 402.459 521.9 402.277 522.207C400.529 525.266 400.993 526.4 401.758 527.165C403.192 528.599 402.823 531.535 402.768 531.863V532.013L401.553 535.25L400.652 540.713C400.117 541.473 399.347 542.035 398.461 542.314C397.575 542.593 396.622 542.573 395.748 542.257C393.703 541.577 391.877 540.36 390.463 538.733L390.203 538.433L395.448 524.324C394.501 524.046 393.489 524.084 392.566 524.433C392.332 524.561 392.129 524.739 391.971 524.954C391.813 525.168 391.704 525.415 391.651 525.676C391.479 526.289 391.419 526.927 391.473 527.561C391.569 528.817 391.214 529.118 388.496 531.03C384.645 533.762 380.534 536.917 380.534 540.782C380.534 544.961 373.773 565.68 373.486 566.554L373.418 566.772L373.24 566.909C372.926 567.114 342.783 588.297 331.174 595.263C323.103 600.098 271.435 625.952 270.916 626.225L270.506 626.416L270.165 626.129C268.007 624.258 217.241 580.198 210.672 571.58C203.843 562.566 193.422 553.087 173.918 559.848L173.468 558.564C194.036 551.435 205.167 562.102 211.709 570.747C217.91 578.942 266.081 620.816 270.657 624.791C275.573 622.332 322.775 598.677 330.423 594.088C341.513 587.437 369.635 567.715 372.202 565.912C372.94 563.659 379.113 544.524 379.113 540.782C379.113 536.261 383.525 532.792 387.649 529.855C390.094 528.148 390.094 528.094 390.053 527.616C389.989 526.835 390.063 526.049 390.272 525.294C390.367 524.845 390.559 524.423 390.835 524.057C391.111 523.692 391.464 523.391 391.87 523.177C393.371 522.614 395.025 522.614 396.527 523.177L397.169 523.409L391.706 538.091C392.903 539.371 394.401 540.333 396.062 540.891C396.628 541.114 397.25 541.152 397.839 541C398.428 540.848 398.953 540.513 399.34 540.044L400.173 534.704L401.389 531.481C401.612 530.285 401.383 529.049 400.747 528.012C398.794 526.045 399.887 523.45 401.048 521.415C401.485 520.65 402.031 519.885 402.837 519.844C403.643 519.803 404.203 520.609 404.844 521.524C405.24 522.168 405.697 522.772 406.21 523.327C406.606 523.737 407.262 524.351 408.054 525.103C413.818 530.566 417.218 534.076 417.533 535.633C417.956 537.763 414.801 541.492 413.831 542.626C413.941 547.419 414.132 561.746 412.875 563.399C411.619 565.052 388.837 578.423 385.56 578.928C382.76 579.324 375.385 588.693 360.907 608.224C339.929 636.509 277.281 686.224 276.639 686.715C274.527 687.677 272.225 688.149 269.905 688.095Z" fill="#263238"/>
<path d="M348.274 583.367L365.264 601.532C377.816 584.787 383.019 578.764 385.587 578.395C388.469 577.986 411.154 564.738 412.397 563.14C413.64 561.542 413.217 542.516 413.217 542.516C413.217 542.516 417.314 537.982 416.932 535.92C416.549 533.857 407.849 526.018 405.801 523.955C403.752 521.893 403.315 519.011 401.703 521.893C400.092 524.775 400.051 526.441 401.28 527.67C402.509 528.899 402.113 531.768 402.113 531.768L400.87 535.073L400.051 540.427C399.599 541.055 398.953 541.517 398.212 541.742C397.472 541.966 396.678 541.941 395.953 541.669C394.036 541.028 392.325 539.887 390.996 538.364L396.363 523.955C396.363 523.955 391.829 522.316 390.996 525.608C390.162 528.899 392.238 527.67 388.114 530.566C383.989 533.461 379.919 536.753 379.919 540.877C379.919 545.002 372.858 566.445 372.858 566.445C372.858 566.445 360.375 575.213 348.274 583.367Z" fill="white"/>
<path d="M365.387 602.597L347.291 583.244L347.946 582.793C359.05 575.281 370.673 567.141 372.271 566.008C373.008 563.754 379.182 544.62 379.182 540.877C379.182 536.357 383.593 532.888 387.718 529.951C390.162 528.244 390.162 528.189 390.121 527.711C390.058 526.93 390.132 526.145 390.34 525.389C390.435 524.941 390.627 524.519 390.903 524.153C391.18 523.787 391.533 523.487 391.938 523.272C393.439 522.71 395.094 522.71 396.595 523.272L397.237 523.505L391.774 538.187C392.972 539.467 394.469 540.429 396.131 540.987C396.697 541.209 397.318 541.247 397.907 541.095C398.496 540.943 399.022 540.609 399.409 540.14L400.242 534.8L401.457 531.576C401.68 530.38 401.451 529.144 400.815 528.107C398.862 526.141 399.955 523.546 401.116 521.511C401.553 520.746 402.099 519.981 402.905 519.94C403.711 519.899 404.271 520.705 404.913 521.62C405.308 522.264 405.766 522.868 406.279 523.423C406.675 523.832 407.33 524.447 408.122 525.212C413.886 530.675 417.287 534.171 417.601 535.728C418.024 537.859 414.869 541.588 413.9 542.721C414.009 547.515 414.2 561.842 412.944 563.495C411.687 565.147 388.906 578.518 385.628 579.024C383.06 579.392 376.395 587.683 365.756 601.887L365.387 602.597ZM349.38 583.476L365.264 600.439C378.034 583.408 382.801 578.081 385.546 577.685C388.291 577.289 410.854 564.027 411.906 562.662C412.588 561.624 412.793 551.585 412.588 542.462V542.202L412.766 541.997C414.378 540.222 416.549 537.176 416.317 535.988C416.03 534.54 409.871 528.681 407.235 526.182C406.442 525.417 405.773 524.816 405.363 524.379C404.781 523.758 404.255 523.086 403.793 522.371C403.556 521.974 403.267 521.611 402.932 521.292C402.705 521.567 402.5 521.859 402.318 522.166C400.57 525.225 401.034 526.359 401.799 527.124C403.233 528.558 402.864 531.494 402.809 531.822V531.972L401.594 535.209L400.693 540.672C400.158 541.432 399.388 541.994 398.502 542.273C397.616 542.552 396.663 542.532 395.789 542.216C393.744 541.536 391.918 540.319 390.504 538.692L390.244 538.392L395.489 524.283C394.542 524.005 393.53 524.043 392.607 524.392C392.373 524.52 392.17 524.698 392.012 524.913C391.854 525.127 391.745 525.374 391.692 525.635C391.52 526.248 391.46 526.886 391.514 527.52C391.61 528.776 391.255 529.077 388.537 530.989C384.686 533.721 380.575 536.876 380.575 540.741C380.575 544.92 373.814 565.639 373.527 566.513L373.459 566.732L373.281 566.868C373.131 567.087 361.085 575.554 349.38 583.476Z" fill="#263238"/>
<path d="M412.757 542.074L408.607 547.025L409.654 547.902L413.804 542.951L412.757 542.074Z" fill="#263238"/>
<path d="M402.482 532.382L401.785 531.208C401.963 531.112 406.005 528.777 408.792 530.921L407.959 532C405.896 530.416 402.523 532.369 402.482 532.382Z" fill="#263238"/>
<path d="M357.657 612.007L335.982 590.36L348.424 582.479L366.179 601.504L357.657 612.007ZM338.181 590.592L357.561 609.999L364.39 601.6L348.274 584.241L338.181 590.592Z" fill="#263238"/>
<path d="M245.936 603.99L240.773 599.374C227.757 607.568 210.617 623.671 207.749 652.216C209.92 654.005 212.078 655.78 214.223 657.501C215.329 627.058 233.398 611.365 245.936 603.99Z" fill="#263238"/>
<path d="M223.988 584.05C222.185 582.37 220.505 580.772 218.976 579.297C205.85 587.3 187.863 603.457 184.913 632.753L191.359 638.339C192.397 606.995 211.395 591.152 223.988 584.05Z" fill="#263238"/>
<path d="M270.629 625.706C270.629 625.706 266.764 622.36 261.069 617.32C248.203 626.498 233.221 643.051 231.541 670.872C233.89 672.579 236.116 674.123 238.178 675.489C238.329 647.094 252.97 630.964 265.262 622.414C260.591 638.435 254.95 660.943 252.423 683.192C254.585 684.119 256.797 684.926 259.047 685.609C261.383 663.825 266.955 641.358 271.613 625.228L270.629 625.706Z" fill="#263238"/>
<path d="M305.006 608.333L298.805 611.502C306.862 624.103 312.912 637.88 316.738 652.339C318.641 650.654 320.544 648.947 322.447 647.217C318.502 633.496 312.63 620.404 305.006 608.333Z" fill="#263238"/>
<path d="M343.603 627.14C345.296 625.419 346.931 623.721 348.506 622.046C342.759 612.749 336.166 604.003 328.811 595.918C327.227 596.806 325.069 597.953 322.556 599.278C330.5 607.826 337.552 617.162 343.603 627.14Z" fill="#263238"/>
<path d="M294.694 671.364C292.878 651.191 289.737 631.879 287.032 617.457L280.681 620.653C284.157 639.179 286.7 657.868 288.302 676.65C290.256 675.065 292.4 673.29 294.694 671.364Z" fill="#263238"/>
<path d="M204.58 563.986C202.692 562.345 200.609 560.942 198.379 559.807C185.254 567.524 166.42 583.64 163.252 613.509C164.481 614.629 166.707 616.637 169.671 619.287C170.859 586.112 192.179 570.392 204.58 563.986Z" fill="#263238"/>
<path d="M254.691 284.671H166.502C163.347 284.671 160.321 285.924 158.091 288.155C155.86 290.386 154.606 293.412 154.606 296.567V343.003C154.606 346.158 155.86 349.184 158.091 351.415C160.321 353.646 163.347 354.899 166.502 354.899H189.174L204.867 380.084L206.342 354.899H254.65C257.805 354.899 260.83 353.646 263.061 351.415C265.292 349.184 266.546 346.158 266.546 343.003V296.567C266.546 293.419 265.298 290.399 263.076 288.169C260.854 285.94 257.839 284.681 254.691 284.671Z" fill="#263238"/>
<path d="M205.468 382.256L188.792 355.582H166.502C163.167 355.578 159.97 354.252 157.612 351.894C155.254 349.535 153.927 346.338 153.923 343.003V296.567C153.931 293.233 155.258 290.037 157.616 287.68C159.973 285.323 163.168 283.995 166.502 283.988H254.691C258.026 283.991 261.223 285.318 263.581 287.676C265.94 290.034 267.266 293.232 267.27 296.567V343.003C267.266 346.338 265.94 349.535 263.581 351.894C261.223 354.252 258.026 355.578 254.691 355.582H207.039L205.468 382.256ZM166.502 285.354C163.531 285.361 160.683 286.544 158.581 288.646C156.48 290.747 155.296 293.595 155.289 296.567V343.003C155.293 345.976 156.475 348.826 158.577 350.928C160.68 353.03 163.53 354.213 166.502 354.216H189.543L204.348 377.899L205.714 354.216H254.663C257.636 354.213 260.486 353.03 262.588 350.928C264.69 348.826 265.873 345.976 265.876 343.003V296.567C265.873 293.594 264.69 290.744 262.588 288.642C260.486 286.54 257.636 285.357 254.663 285.354H166.502Z" fill="#263238"/>
<path d="M250.907 280.846H162.705C161.143 280.845 159.595 281.151 158.151 281.748C156.707 282.346 155.395 283.222 154.29 284.327C153.185 285.432 152.309 286.744 151.711 288.188C151.114 289.632 150.808 291.18 150.809 292.742V339.179C150.809 340.741 151.117 342.288 151.715 343.731C152.313 345.175 153.189 346.486 154.294 347.591C155.398 348.695 156.71 349.572 158.153 350.169C159.596 350.767 161.143 351.075 162.705 351.075H185.377L201.111 376.26L202.6 351.075H250.907C252.469 351.075 254.015 350.767 255.458 350.169C256.9 349.571 258.211 348.695 259.314 347.59C260.418 346.485 261.293 345.173 261.889 343.73C262.486 342.287 262.792 340.74 262.79 339.179V292.742C262.792 291.181 262.486 289.634 261.889 288.191C261.293 286.748 260.418 285.436 259.314 284.332C258.211 283.227 256.9 282.35 255.458 281.752C254.015 281.154 252.469 280.846 250.907 280.846Z" fill="white"/>
<path d="M201.671 378.472L184.995 351.785H162.705C159.37 351.781 156.173 350.455 153.815 348.097C151.457 345.739 150.13 342.541 150.127 339.206V292.77C150.13 289.435 151.457 286.237 153.815 283.879C156.173 281.521 159.37 280.194 162.705 280.191H250.908C254.243 280.194 257.44 281.521 259.798 283.879C262.156 286.237 263.483 289.435 263.486 292.77V339.206C263.483 342.541 262.156 345.739 259.798 348.097C257.44 350.455 254.243 351.781 250.908 351.785H203.242L201.671 378.472ZM162.705 281.57C159.733 281.574 156.883 282.756 154.781 284.859C152.679 286.961 151.496 289.811 151.492 292.783V339.22C151.496 342.193 152.679 345.043 154.781 347.145C156.883 349.247 159.733 350.429 162.705 350.433H185.746L200.551 374.129L201.917 350.433H250.88C253.853 350.429 256.703 349.247 258.805 347.145C260.907 345.043 262.09 342.193 262.093 339.22V292.783C262.09 289.811 260.907 286.961 258.805 284.859C256.703 282.756 253.853 281.574 250.88 281.57H162.705Z" fill="#263238"/>
<path d="M187.358 320.29C190.239 320.29 192.575 317.954 192.575 315.073C192.575 312.191 190.239 309.856 187.358 309.856C184.476 309.856 182.141 312.191 182.141 315.073C182.141 317.954 184.476 320.29 187.358 320.29Z" fill="#263238"/>
<path d="M210.125 320.29C213.007 320.29 215.343 317.954 215.343 315.073C215.343 312.191 213.007 309.856 210.125 309.856C207.244 309.856 204.908 312.191 204.908 315.073C204.908 317.954 207.244 320.29 210.125 320.29Z" fill="#263238"/>
<path d="M238.124 315.073C238.124 316.105 237.818 317.113 237.244 317.971C236.671 318.829 235.856 319.498 234.903 319.893C233.95 320.288 232.901 320.391 231.889 320.19C230.877 319.989 229.947 319.492 229.217 318.762C228.488 318.032 227.991 317.103 227.789 316.091C227.588 315.079 227.691 314.03 228.086 313.076C228.481 312.123 229.15 311.308 230.008 310.735C230.866 310.162 231.875 309.856 232.906 309.856C234.289 309.859 235.614 310.41 236.592 311.388C237.569 312.365 238.12 313.69 238.124 315.073Z" fill="#263238"/>
<path d="M94.6895 418.544C84.8509 418.547 75.2325 415.632 67.0507 410.168C58.869 404.704 52.4913 396.936 48.7244 387.847C44.9575 378.759 43.9705 368.757 45.8882 359.107C47.806 349.457 52.5423 340.593 59.4983 333.635C66.4542 326.677 75.3173 321.938 84.9667 320.018C94.616 318.097 104.618 319.082 113.708 322.846C122.798 326.61 130.567 332.986 136.034 341.166C141.5 349.347 144.418 358.964 144.418 368.803C144.403 381.988 139.16 394.63 129.837 403.955C120.515 413.279 107.875 418.526 94.6895 418.544ZM94.6895 320.44C85.1205 320.438 75.7656 323.273 67.8081 328.588C59.8506 333.902 53.6481 341.457 49.9849 350.297C46.3217 359.137 45.3626 368.865 47.2288 378.251C49.0949 387.636 53.7026 396.257 60.4689 403.023C67.2352 409.79 75.8562 414.397 85.2415 416.263C94.6268 418.13 104.355 417.17 113.195 413.507C122.035 409.844 129.59 403.642 134.905 395.684C140.219 387.727 143.054 378.372 143.052 368.803C143.03 355.984 137.927 343.697 128.862 334.634C119.797 325.571 107.508 320.472 94.6895 320.454V320.44ZM94.6895 413.095C85.9293 413.095 77.3658 410.497 70.082 405.63C62.7982 400.763 57.1211 393.846 53.7688 385.753C50.4164 377.659 49.5393 368.754 51.2483 360.162C52.9573 351.57 57.1757 343.678 63.3701 337.483C69.5645 331.289 77.4566 327.071 86.0485 325.362C94.6403 323.652 103.546 324.53 111.639 327.882C119.733 331.234 126.65 336.911 131.517 344.195C136.384 351.479 138.982 360.043 138.982 368.803C138.971 380.546 134.301 391.806 125.997 400.11C117.693 408.414 106.433 413.084 94.6895 413.095ZM94.6895 325.89C86.1988 325.89 77.8989 328.408 70.8394 333.125C63.7799 337.843 58.2779 344.548 55.0293 352.392C51.7807 360.237 50.9314 368.869 52.5888 377.196C54.2463 385.523 58.336 393.172 64.3407 399.175C70.3455 405.178 77.9955 409.265 86.3233 410.92C94.6511 412.574 103.283 411.722 111.126 408.471C118.97 405.22 125.673 399.716 130.388 392.655C135.103 385.594 137.619 377.293 137.616 368.803C137.598 357.427 133.068 346.523 125.021 338.484C116.973 330.444 106.065 325.924 94.6895 325.917V325.89Z" fill="#263238"/>
<path d="M99.8474 369.779L99.499 371.1L115.689 375.371L116.038 374.051L99.8474 369.779Z" fill="#263238"/>
<path d="M72.7422 335.55L71.6199 336.328L91.3029 364.712L92.4253 363.934L72.7422 335.55Z" fill="#263238"/>
<path d="M94.6895 374.867C93.489 374.869 92.3147 374.516 91.3154 373.85C90.3161 373.185 89.5367 372.238 89.076 371.13C88.6154 370.021 88.4941 368.801 88.7277 367.623C88.9612 366.445 89.539 365.364 90.3879 364.515C91.2368 363.666 92.3186 363.088 93.4962 362.855C94.6738 362.621 95.8942 362.742 97.0028 363.203C98.1114 363.664 99.0584 364.443 99.7236 365.442C100.389 366.442 100.743 367.616 100.74 368.816C100.736 370.42 100.098 371.957 98.9638 373.091C97.8299 374.225 96.2931 374.863 94.6895 374.867ZM94.6895 364.118C93.7597 364.115 92.85 364.389 92.0756 364.903C91.3012 365.418 90.6969 366.151 90.3392 367.009C89.9815 367.867 89.8865 368.812 90.0662 369.725C90.2459 370.637 90.6923 371.475 91.3489 372.134C92.0054 372.792 92.8425 373.241 93.7542 373.423C94.666 373.606 95.6114 373.513 96.4707 373.158C97.3299 372.803 98.0645 372.201 98.5814 371.428C99.0982 370.655 99.3742 369.746 99.3742 368.816C99.3634 367.58 98.8655 366.397 97.9885 365.525C97.1115 364.654 95.9262 364.163 94.6895 364.159V364.118Z" fill="#263238"/>
</svg>
